<svg width="36" height="36" viewBox="0 0 36 36" fill="none" xmlns="http://www.w3.org/2000/svg">
<rect x="0.162109" width="35.1628" height="35.1628" rx="17.5814" fill="url(#paint0_linear_1498_400)"/>
<path d="M14.082 17.5816C14.082 15.5588 15.7214 13.9186 17.7442 13.9186C19.7671 13.9186 21.4073 15.5588 21.4073 17.5816C21.4073 19.6045 19.7671 21.2447 17.7442 21.2447C15.7214 21.2447 14.082 19.6045 14.082 17.5816ZM12.1018 17.5816C12.1018 20.6979 14.6279 23.224 17.7442 23.224C20.8605 23.224 23.3866 20.6979 23.3866 17.5816C23.3866 14.4653 20.8605 11.9392 17.7442 11.9392C14.6279 11.9392 12.1018 14.4653 12.1018 17.5816ZM22.2914 11.7155C22.2913 11.9763 22.3685 12.2313 22.5133 12.4482C22.6581 12.6651 22.864 12.8342 23.1049 12.9341C23.3458 13.034 23.6109 13.0602 23.8667 13.0094C24.1225 12.9586 24.3575 12.8331 24.542 12.6488C24.7265 12.4645 24.8522 12.2296 24.9032 11.9738C24.9541 11.718 24.9281 11.4529 24.8284 11.2119C24.7287 10.9709 24.5598 10.7649 24.343 10.62C24.1262 10.475 23.8713 10.3975 23.6105 10.3974H23.61C23.2604 10.3976 22.9252 10.5365 22.678 10.7836C22.4307 11.0308 22.2917 11.3659 22.2914 11.7155ZM13.3049 26.5259C12.2336 26.4771 11.6513 26.2987 11.2643 26.1479C10.7513 25.9482 10.3853 25.7103 10.0004 25.326C9.61556 24.9417 9.37733 24.576 9.17849 24.0629C9.02764 23.6761 8.84919 23.0937 8.80049 22.0223C8.74722 20.8641 8.73658 20.5161 8.73658 17.5817C8.73658 14.6473 8.7481 14.3003 8.80049 13.1411C8.84928 12.0698 9.02905 11.4885 9.17849 11.1005C9.37821 10.5875 9.61609 10.2214 10.0004 9.83659C10.3847 9.45173 10.7504 9.21351 11.2643 9.01466C11.6511 8.86381 12.2336 8.68536 13.3049 8.63666C14.4632 8.58339 14.8111 8.57275 17.7442 8.57275C20.6773 8.57275 21.0256 8.58427 22.1849 8.63666C23.2562 8.68545 23.8375 8.86522 24.2254 9.01466C24.7385 9.21351 25.1045 9.45226 25.4894 9.83659C25.8742 10.2209 26.1116 10.5875 26.3113 11.1005C26.4621 11.4873 26.6406 12.0698 26.6893 13.1411C26.7426 14.3003 26.7532 14.6473 26.7532 17.5817C26.7532 20.5161 26.7426 20.8631 26.6893 22.0223C26.6405 23.0937 26.4612 23.676 26.3113 24.0629C26.1116 24.576 25.8737 24.942 25.4894 25.326C25.105 25.71 24.7385 25.9482 24.2254 26.1479C23.8386 26.2988 23.2562 26.4772 22.1849 26.5259C21.0266 26.5792 20.6787 26.5898 17.7442 26.5898C14.8098 26.5898 14.4628 26.5792 13.3049 26.5259ZM13.2139 6.65981C12.0442 6.71308 11.2448 6.89856 10.5468 7.1702C9.82381 7.45071 9.2118 7.82704 8.60024 8.43764C7.98867 9.04824 7.6133 9.66122 7.33279 10.3842C7.06116 11.0827 6.87568 11.8816 6.8224 13.0514C6.76825 14.223 6.75586 14.5975 6.75586 17.5816C6.75586 20.5657 6.76825 20.9403 6.8224 22.1119C6.87568 23.2818 7.06116 24.0806 7.33279 24.7791C7.6133 25.5016 7.98875 26.1153 8.60024 26.7256C9.21172 27.336 9.82381 27.7118 10.5468 27.9931C11.2461 28.2647 12.0442 28.4502 13.2139 28.5035C14.3862 28.5567 14.7601 28.57 17.7442 28.57C20.7283 28.57 21.1029 28.5576 22.2745 28.5035C23.4444 28.4502 24.2432 28.2647 24.9417 27.9931C25.6642 27.7118 26.2767 27.3362 26.8882 26.7256C27.4998 26.115 27.8744 25.5016 28.1557 24.7791C28.4273 24.0806 28.6137 23.2817 28.6661 22.1119C28.7193 20.9394 28.7317 20.5657 28.7317 17.5816C28.7317 14.5975 28.7193 14.223 28.6661 13.0514C28.6128 11.8815 28.4273 11.0822 28.1557 10.3842C27.8744 9.66166 27.4988 9.04921 26.8882 8.43764C26.2776 7.82607 25.6642 7.45071 24.9426 7.1702C24.2432 6.89856 23.4443 6.7122 22.2754 6.65981C21.1038 6.60654 20.7292 6.59326 17.7451 6.59326C14.761 6.59326 14.3862 6.60566 13.2139 6.65981Z" fill="white"/>
<defs>
<linearGradient id="paint0_linear_1498_400" x1="28.7319" y1="3.66279" x2="8.22023" y2="31.8663" gradientUnits="userSpaceOnUse">
<stop stop-color="#5219E3"/>
<stop offset="0.21875" stop-color="#A010C0"/>
<stop offset="0.421875" stop-color="#F5137B"/>
<stop offset="0.692708" stop-color="#FA131E"/>
<stop offset="1" stop-color="#FFBD35"/>
</linearGradient>
</defs>
</svg>
