<svg width="36" height="36" viewBox="0 0 36 36" fill="none" xmlns="http://www.w3.org/2000/svg">
<rect width="35.1628" height="35.1628" rx="17.5814" fill="#0077B5"/>
<path d="M27.3431 25.879C26.1893 25.8515 25.063 25.8515 23.9092 25.879C23.662 25.879 23.607 25.8241 23.607 25.5768C23.607 23.544 23.607 21.4837 23.607 19.4508C23.607 18.9838 23.5796 18.5168 23.4422 18.0773C23.0301 16.6488 21.3819 16.1268 20.2006 17.0883C19.5688 17.5828 19.3216 18.2696 19.3216 19.0937C19.3216 21.0167 19.3216 22.9396 19.3216 24.8626C19.3216 25.1098 19.2941 25.3571 19.3216 25.6318C19.349 25.8515 19.2391 25.9065 19.0468 25.879C17.8656 25.879 16.7118 25.879 15.5306 25.879C15.3108 25.879 15.2559 25.8241 15.2559 25.6043C15.2833 23.8736 15.2833 22.143 15.2833 20.3848C15.2833 18.2421 15.2833 16.0994 15.2559 13.9841C15.2559 13.7369 15.3108 13.6819 15.5306 13.6819C16.7118 13.6819 17.8656 13.6819 19.0468 13.6819C19.2666 13.6819 19.3216 13.7369 19.3216 13.9566C19.3216 14.3962 19.3216 14.8357 19.3216 15.3576C19.404 15.2752 19.4314 15.2478 19.4589 15.2203C20.5303 13.6544 22.0412 13.2149 23.8268 13.4896C25.8871 13.8193 27.2057 15.2478 27.5354 17.4454C27.6178 17.9674 27.6453 18.4893 27.6453 19.0113C27.6453 21.209 27.6453 23.3792 27.6453 25.5768C27.6453 25.7966 27.5903 25.879 27.3431 25.879Z" fill="white"/>
<path d="M13.0578 19.7817C13.0578 21.7046 13.0578 23.6276 13.0578 25.5506C13.0578 25.7978 13.0028 25.8802 12.7556 25.8802C11.6018 25.8527 10.448 25.8802 9.29424 25.8802C9.07447 25.8802 9.01953 25.8253 9.01953 25.6055C9.01953 21.7321 9.01953 17.8312 9.01953 13.9578C9.01953 13.7655 9.07447 13.6831 9.29424 13.6831C10.4755 13.6831 11.6567 13.6831 12.838 13.6831C13.0852 13.6831 13.1127 13.7655 13.1127 13.9853C13.0578 15.9083 13.0578 17.8312 13.0578 19.7817Z" fill="white"/>
<path d="M13.2507 10.4963C12.9759 11.5952 11.8496 12.227 10.5585 12.0072C9.18495 11.7875 8.41577 10.4414 8.91024 9.12279C9.23989 8.29866 10.0366 7.80418 11.053 7.83165C12.5913 7.80418 13.6078 9.04038 13.2507 10.4963Z" fill="white"/>
</svg>
