<svg width="36" height="36" viewBox="0 0 36 36" fill="none" xmlns="http://www.w3.org/2000/svg">
<rect x="0.326172" width="35.1628" height="35.1628" rx="17.5814" fill="#1DA1F2"/>
<path d="M26.5249 13.7809C26.5249 13.9732 26.5249 14.1655 26.5249 14.3304C26.5249 20.0168 22.1845 26.5824 14.2728 26.5824C11.8279 26.5824 9.57531 25.8682 7.65234 24.6594C7.98199 24.6869 8.33912 24.7144 8.66877 24.7144C10.6741 24.7144 12.5422 24.0276 14.0256 22.8738C12.1301 22.8463 10.5368 21.5827 10.0148 19.8795C10.2896 19.9344 10.5368 19.9619 10.839 19.9619C11.2236 19.9619 11.6082 19.907 11.9653 19.7971C9.98737 19.4125 8.50394 17.6818 8.50394 15.594C8.50394 15.5666 8.50394 15.5666 8.50394 15.5391C9.08083 15.8687 9.74013 16.061 10.4544 16.0885C9.3006 15.3193 8.53141 14.0007 8.53141 12.4898C8.53141 11.6932 8.75118 10.9514 9.1083 10.3196C11.2236 12.9293 14.4102 14.6325 17.9814 14.8248C17.899 14.5227 17.8715 14.1655 17.8715 13.8359C17.8715 11.4459 19.7945 9.52295 22.1845 9.52295C23.4207 9.52295 24.547 10.0449 25.3162 10.869C26.3051 10.6767 27.2117 10.3196 28.0632 9.82513C27.7336 10.8416 27.0468 11.6657 26.1678 12.2151C27.0468 12.1052 27.871 11.8854 28.6401 11.5283C28.0907 12.4074 27.3765 13.1766 26.5249 13.7809Z" fill="white"/>
</svg>
