<svg width="201" height="54" viewBox="0 0 201 54" fill="none" xmlns="http://www.w3.org/2000/svg">
<rect x="0.769531" width="200" height="53.191" rx="7.2534" fill="#000E35"/>
<path d="M59.2848 28.1734H53.7661L52.4418 32.0863H50.1035L55.3305 17.6091H57.7584L62.9854 32.0863H60.6076L59.2848 28.1734ZM54.3378 26.3685H58.7124L56.5554 20.0172H56.4951L54.3378 26.3685ZM74.5364 26.81C74.5364 30.0905 72.7796 32.197 70.1314 32.197C68.6258 32.197 67.4335 31.5245 66.8106 30.3493H66.7605V35.5766H64.593V21.5297H66.6896V23.2864H66.7287C67.3304 22.1522 68.6152 21.4211 70.0905 21.4211C72.7709 21.4215 74.5364 23.539 74.5364 26.81ZM72.3103 26.81C72.3103 24.6724 71.2068 23.2685 69.5213 23.2685C67.8662 23.2685 66.7521 24.7035 66.7521 26.81C66.7521 28.9366 67.8662 30.3625 69.5213 30.3625C71.2068 30.361 72.3103 28.9651 72.3103 26.81ZM86.2365 26.81C86.2365 30.0905 84.4801 32.197 81.8319 32.197C80.3263 32.197 79.1336 31.5245 78.5111 30.3493H78.4614V35.5766H76.2938V21.5297H78.3905V23.2864H78.4296C79.0312 22.1522 80.316 21.4211 81.7913 21.4211C84.4695 21.4215 86.2365 23.539 86.2365 26.81ZM84.0086 26.81C84.0086 24.6724 82.9051 23.2685 81.2196 23.2685C79.5645 23.2685 78.4504 24.7035 78.4504 26.81C78.4504 28.9366 79.5645 30.3625 81.2196 30.3625C82.9047 30.361 84.0086 28.9651 84.0086 26.81ZM88.071 17.6091H90.2386V32.0863H88.071V17.6091ZM101.963 28.9867C101.673 30.9031 99.8059 32.2171 97.4175 32.2171C94.3475 32.2171 92.4413 30.1596 92.4413 26.8601C92.4413 23.5496 94.3581 21.4014 97.3265 21.4014C100.247 21.4014 102.082 23.4074 102.082 26.6086V27.351H94.6264V27.4807C94.6264 29.2864 95.7602 30.4707 97.4654 30.4707C98.6687 30.4707 99.6118 29.8994 99.9035 28.9859L101.963 28.9867ZM94.6392 25.8363H99.9163C99.8666 24.2207 98.8325 23.1585 97.3283 23.1585C95.8319 23.1585 94.7477 24.24 94.6392 25.8363ZM114.436 17.6091C117.245 17.6091 119.202 19.5453 119.202 22.3645C119.202 25.194 117.205 27.1393 114.367 27.1393H111.256V32.0848H109.008V17.6088L114.436 17.6091ZM111.256 25.2544H113.835C115.791 25.2544 116.904 24.2009 116.904 22.3751C116.904 20.549 115.79 19.5058 113.845 19.5058H111.258V25.2544H111.256ZM120.218 26.81C120.218 23.4889 122.174 21.4014 125.224 21.4014C128.284 21.4014 130.23 23.4874 130.23 26.81C130.23 30.1414 128.294 32.2186 125.224 32.2186C122.154 32.2186 120.218 30.1395 120.218 26.81ZM128.024 26.81C128.024 24.5321 126.981 23.1884 125.225 23.1884C123.468 23.1884 122.426 24.5427 122.426 26.81C122.426 29.0967 123.469 30.4316 125.225 30.4316C126.981 30.4316 128.024 29.0967 128.024 26.81ZM131.731 26.81C131.731 23.5496 133.527 21.423 136.145 21.423C137.66 21.423 138.854 22.124 139.456 23.2886H139.495V17.6095H141.672V32.0863H139.564V30.2912H139.525C138.903 31.4945 137.699 32.1974 136.163 32.1974C133.527 32.197 131.731 30.0704 131.731 26.81ZM133.947 26.81C133.947 28.9775 135.051 30.3625 136.737 30.3625C138.402 30.3625 139.516 28.9578 139.516 26.81C139.516 24.6834 138.401 23.2685 136.737 23.2685C135.051 23.267 133.947 24.6618 133.947 26.81ZM151.076 25.1637C150.886 24.05 150.013 23.2169 148.588 23.2169C146.923 23.2169 145.819 24.6118 145.819 26.8085C145.819 29.0558 146.933 30.4104 148.608 30.4104C149.953 30.4104 150.837 29.7378 151.076 28.5148H153.164C152.923 30.732 151.148 32.2168 148.588 32.2168C145.579 32.2168 143.612 30.1596 143.612 26.8085C143.612 23.528 145.579 21.3999 148.569 21.3999C151.278 21.3999 152.963 23.1051 153.145 25.1622H151.077V25.1637H151.076ZM154.535 29.0667C154.535 27.2212 155.95 26.1374 158.579 25.977L161.388 25.8169V25.0146C161.388 23.82 160.596 23.1793 159.22 23.1793C158.086 23.1793 157.253 23.7612 157.082 24.6637H155.055C155.116 22.7776 156.881 21.4032 159.28 21.4032C161.868 21.4032 163.543 22.7578 163.543 24.8541V32.0885H161.468V30.353H161.417C160.825 31.4868 159.51 32.2391 158.086 32.2391C155.989 32.238 154.535 30.9422 154.535 29.0667ZM161.387 28.1339V27.3206L158.858 27.4807C157.454 27.5608 156.712 28.1029 156.712 29.0159C156.712 29.8987 157.484 30.5215 158.689 30.5215C160.223 30.5208 161.387 29.4988 161.387 28.1339ZM169.881 21.4105C172.218 21.4105 173.892 22.7041 173.944 24.5708H171.908C171.816 23.6384 171.025 23.0656 169.82 23.0656C168.647 23.0656 167.864 23.6062 167.864 24.4301C167.864 25.0621 168.386 25.4839 169.478 25.7544L171.254 26.1656C173.381 26.6762 174.183 27.4592 174.183 29.0046C174.183 30.9108 172.377 32.2146 169.799 32.2146C167.31 32.2146 165.636 30.9407 165.476 29.0134H167.622C167.773 30.0262 168.587 30.5686 169.9 30.5686C171.193 30.5686 172.008 30.0365 172.008 29.1947C172.008 28.5415 171.606 28.1909 170.503 27.9091L168.617 27.4482C166.711 26.9855 165.747 26.0135 165.747 24.5489C165.747 22.6866 167.422 21.4105 169.881 21.4105ZM178.977 19.0343V21.5315H180.983V23.2469H178.977V29.0667C178.977 29.9707 179.38 30.391 180.262 30.391C180.483 30.391 180.834 30.3603 180.974 30.3406V32.0454C180.734 32.106 180.251 32.1448 179.771 32.1448C177.633 32.1448 176.801 31.3428 176.801 29.2955V23.2469H175.265V21.5308H176.801V19.0339L178.977 19.0343ZM186.797 21.4105C189.134 21.4105 190.809 22.7041 190.859 24.5708H188.824C188.732 23.6384 187.941 23.0656 186.737 23.0656C185.564 23.0656 184.78 23.6062 184.78 24.4301C184.78 25.0621 185.302 25.4839 186.395 25.7544L188.171 26.1656C190.297 26.6762 191.1 27.4592 191.1 29.0046C191.1 30.9108 189.294 32.2146 186.715 32.2146C184.227 32.2146 182.552 30.9407 182.392 29.0134H184.538C184.69 30.0262 185.503 30.5686 186.816 30.5686C188.11 30.5686 188.925 30.0365 188.925 29.1947C188.925 28.5415 188.523 28.1909 187.42 27.9091L185.534 27.4482C183.627 26.9855 182.664 26.0135 182.664 24.5489C182.662 22.6866 184.337 21.4105 186.797 21.4105Z" fill="white"/>
<path d="M43.6213 39.0089C42.7897 40.979 41.1218 42.4751 39.073 43.0885C37.9863 43.4105 36.6485 43.5198 34.9828 43.5198H19.751C18.0853 43.5198 16.7475 43.4105 15.6607 43.0885C13.6101 42.478 11.9412 40.9809 11.1125 39.0089C10.4491 37.3253 10.4414 35.4144 10.4414 34.2111V18.9791C10.4414 17.7758 10.4476 15.8652 11.111 14.1817C11.9426 12.2111 13.6105 10.7154 15.6593 10.1017C16.7464 9.7797 18.0838 9.67114 19.7495 9.67114H34.9817C36.6474 9.67114 37.9852 9.7797 39.0719 10.1017C41.1225 10.7118 42.7915 12.2093 43.6202 14.1817C44.2825 15.8652 44.2898 17.7758 44.2898 18.9791V34.2107C44.2909 35.4144 44.2832 37.3249 43.6213 39.0089Z" fill="url(#paint0_linear_1559_12)"/>
<path d="M29.8224 29.1267C29.3143 28.5913 28.4228 28.2466 27.3694 28.2466C26.3159 28.2466 25.424 28.5898 24.916 29.1267C24.6557 29.3881 24.4963 29.7335 24.4671 30.1012C24.3808 30.8918 24.4291 31.5735 24.5216 32.6621C24.6093 33.6994 24.7771 35.0836 24.996 36.4923C25.1517 37.4946 25.2786 38.0363 25.3933 38.4241C25.5794 39.0517 26.2775 39.6018 27.369 39.6018C28.4601 39.6018 29.1572 39.0532 29.3447 38.4241C29.4595 38.0367 29.5867 37.4961 29.742 36.4923C29.9613 35.0836 30.1291 33.7005 30.2168 32.6621C30.3089 31.5735 30.3572 30.8922 30.2709 30.1012C30.242 29.7335 30.083 29.3881 29.8224 29.1267ZM24.6012 24.3541C24.6012 25.8849 25.8418 27.1248 27.3719 27.1248C28.902 27.1248 30.1426 25.8846 30.1426 24.3541C30.1426 22.8241 28.902 21.5835 27.3719 21.5835C25.8418 21.5835 24.6012 22.8244 24.6012 24.3541ZM27.3376 13.4214C20.859 13.4393 15.5501 18.6952 15.4697 25.1736C15.4046 30.4214 18.7543 34.9111 23.4327 36.5556C23.5164 36.5848 23.6077 36.541 23.637 36.4569C23.6454 36.4331 23.648 36.4068 23.6447 36.3812C23.5825 35.9737 23.5251 35.5654 23.4721 35.1618C23.4542 35.0197 23.3628 34.8976 23.232 34.8398C19.413 33.1731 16.9577 29.3885 16.9936 25.2219C17.0484 19.5856 21.6511 14.9902 27.2875 14.9449C33.0496 14.8981 37.7536 19.5731 37.7536 25.3242C37.7492 29.455 35.2998 33.1906 31.5137 34.8417C31.3828 34.8994 31.2915 35.0215 31.2732 35.1637C31.2198 35.5705 31.1624 35.9766 31.101 36.382C31.0875 36.4686 31.1467 36.5497 31.2333 36.5629C31.2597 36.5673 31.2863 36.5647 31.3108 36.5552C35.9439 34.9261 39.2753 30.5062 39.2753 25.3231C39.2756 18.7496 33.9174 13.4032 27.3376 13.4214ZM27.123 18.8827C30.6869 18.7456 33.6868 21.5236 33.8238 25.0874C33.8268 25.1674 33.8286 25.2478 33.8286 25.3279C33.8293 27.1098 33.0909 28.8117 31.7893 30.0288C31.6833 30.1286 31.6267 30.2701 31.6336 30.4163C31.6577 30.8589 31.6489 31.2899 31.6201 31.7749C31.6153 31.8616 31.6815 31.9358 31.7681 31.9405C31.8025 31.9431 31.8365 31.9328 31.865 31.9146C34.045 30.4298 35.3499 27.964 35.3506 25.3272C35.3462 20.919 31.7696 17.3497 27.3621 17.3537C27.2619 17.3537 27.1614 17.3559 27.0612 17.3599C22.8423 17.5229 19.4565 21.0012 19.4035 25.2245C19.3698 27.8982 20.6788 30.4112 22.8891 31.9164C22.96 31.965 23.0569 31.9471 23.1055 31.8762C23.1253 31.8473 23.1348 31.8122 23.1326 31.7771C23.1004 31.3246 23.0956 30.8703 23.1187 30.4167C23.1267 30.2708 23.0697 30.129 22.963 30.0292C21.6167 28.7715 20.8754 26.9958 20.927 25.1546C21.029 21.7626 23.7328 19.026 27.123 18.8827Z" fill="white"/>
<defs>
<linearGradient id="paint0_linear_1559_12" x1="27.3764" y1="9.64855" x2="27.3764" y2="43.4969" gradientUnits="userSpaceOnUse">
<stop stop-color="#AE6BA9"/>
<stop offset="1" stop-color="#694193"/>
</linearGradient>
</defs>
</svg>
