<svg width="166" height="47" viewBox="0 0 166 47" fill="none" xmlns="http://www.w3.org/2000/svg">
<path d="M165.688 42.3108C165.688 44.8902 163.555 46.9796 160.916 46.9796H4.77741C2.14044 46.9796 0 44.8902 0 42.3108V5.07804C0 2.4998 2.14044 0.403076 4.77741 0.403076H160.915C163.555 0.403076 165.686 2.4998 165.686 5.07804L165.688 42.3108Z" fill="#000E35"/>
<path d="M36.4612 23.4301C36.4252 19.53 39.7365 17.6326 39.8879 17.5442C38.0126 14.8784 35.1059 14.5142 34.0845 14.4852C31.6433 14.2347 29.2752 15.9094 28.0316 15.9094C26.7632 15.9094 24.8482 14.5094 22.7843 14.5505C20.1283 14.5904 17.6436 16.0897 16.2809 18.4179C13.4685 23.1651 15.566 30.1411 18.2604 33.9783C19.6083 35.8576 21.1832 37.9558 23.2447 37.882C25.2615 37.8009 26.0148 36.6284 28.4487 36.6284C30.8601 36.6284 31.5676 37.882 33.67 37.8348C35.8345 37.8009 37.1972 35.9471 38.4979 34.0509C40.0555 31.897 40.681 29.7757 40.7058 29.6668C40.6549 29.6499 36.5022 28.1046 36.4612 23.4301Z" fill="white"/>
<path d="M32.4897 11.9609C33.5744 10.6383 34.3166 8.83895 34.1106 7.01294C32.5406 7.0807 30.5772 8.07176 29.4465 9.36533C28.4462 10.5052 27.5526 12.3736 27.7834 14.1306C29.547 14.2589 31.3578 13.263 32.4897 11.9609Z" fill="white"/>
<path d="M65.6489 37.612H62.8303L61.2864 32.8818H55.9199L54.4492 37.612H51.7051L57.022 21.5083H60.3059L65.6489 37.612ZM60.821 30.8973L59.4248 26.6923C59.2771 26.2627 59.0003 25.2511 58.592 23.6586H58.5423C58.3797 24.3435 58.1179 25.3551 57.7579 26.6923L56.3865 30.8973H60.821Z" fill="white"/>
<path d="M79.3226 31.6633C79.3226 33.6381 78.7752 35.1991 77.6806 36.3451C76.7001 37.3652 75.4826 37.8746 74.0293 37.8746C72.4605 37.8746 71.3336 37.3252 70.6472 36.2265H70.5976V42.3434H67.9516V29.8227C67.9516 28.5812 67.9181 27.307 67.8535 26.0001H70.1806L70.3283 27.8406H70.3779C71.2604 26.4539 72.5995 25.7617 74.3966 25.7617C75.8016 25.7617 76.9744 26.3026 77.9127 27.3856C78.8534 28.4699 79.3226 29.8953 79.3226 31.6633ZM76.6269 31.7577C76.6269 30.6274 76.3663 29.6957 75.8425 28.9624C75.2704 28.1976 74.5021 27.8152 73.539 27.8152C72.8862 27.8152 72.2929 28.0282 71.763 28.4481C71.2318 28.8716 70.8843 29.4246 70.7217 30.1095C70.6398 30.429 70.5988 30.6904 70.5988 30.8961V32.8322C70.5988 33.6768 70.8644 34.3896 71.3956 34.9716C71.9268 35.5537 72.6169 35.8441 73.4658 35.8441C74.4624 35.8441 75.2381 35.469 75.7929 34.7211C76.3489 33.9721 76.6269 32.9847 76.6269 31.7577Z" fill="white"/>
<path d="M93.0186 31.6633C93.0186 33.6381 92.4713 35.1991 91.3754 36.3451C90.3961 37.3652 89.1786 37.8746 87.7253 37.8746C86.1565 37.8746 85.0296 37.3252 84.3445 36.2265H84.2949V42.3434H81.6488V29.8227C81.6488 28.5812 81.6153 27.307 81.5508 26.0001H83.8779L84.0255 27.8406H84.0752C84.9564 26.4539 86.2955 25.7617 88.0939 25.7617C89.4976 25.7617 90.6704 26.3026 91.6112 27.3856C92.5482 28.4699 93.0186 29.8953 93.0186 31.6633ZM90.3229 31.7577C90.3229 30.6274 90.061 29.6957 89.5373 28.9624C88.9651 28.1976 88.1994 27.8152 87.235 27.8152C86.581 27.8152 85.989 28.0282 85.4578 28.4481C84.9266 28.8716 84.5803 29.4246 84.4177 30.1095C84.3371 30.429 84.2949 30.6904 84.2949 30.8961V32.8322C84.2949 33.6768 84.5605 34.3896 85.0892 34.9716C85.6204 35.5525 86.3104 35.8441 87.1618 35.8441C88.1584 35.8441 88.9341 35.469 89.4889 34.7211C90.0449 33.9721 90.3229 32.9847 90.3229 31.7577Z" fill="white"/>
<path d="M108.336 33.0961C108.336 34.4659 107.849 35.5804 106.869 36.4408C105.793 37.381 104.295 37.8505 102.37 37.8505C100.593 37.8505 99.1684 37.5165 98.0898 36.8474L98.703 34.6971C99.8646 35.382 101.139 35.7256 102.528 35.7256C103.525 35.7256 104.3 35.5054 104.858 35.0673C105.412 34.6293 105.689 34.0412 105.689 33.3079C105.689 32.6545 105.461 32.1039 105.003 31.6573C104.547 31.2108 103.787 30.7958 102.724 30.4122C99.8324 29.3606 98.3877 27.8202 98.3877 25.7945C98.3877 24.4707 98.8941 23.3853 99.9081 22.5406C100.918 21.6948 102.266 21.2725 103.952 21.2725C105.455 21.2725 106.703 21.5278 107.7 22.0372L107.038 24.1403C106.107 23.6466 105.055 23.3998 103.877 23.3998C102.946 23.3998 102.219 23.6236 101.698 24.069C101.257 24.4671 101.036 24.9523 101.036 25.5271C101.036 26.1636 101.288 26.69 101.795 27.1038C102.235 27.4862 103.036 27.9001 104.197 28.3466C105.618 28.9044 106.662 29.5567 107.334 30.3045C108.003 31.0499 108.336 31.9829 108.336 33.0961Z" fill="white"/>
<path d="M117.085 27.9364H114.168V33.5741C114.168 35.008 114.682 35.7244 115.712 35.7244C116.185 35.7244 116.577 35.6845 116.888 35.6046L116.961 37.5637C116.44 37.7537 115.753 37.8493 114.903 37.8493C113.858 37.8493 113.042 37.5383 112.452 36.9176C111.865 36.2956 111.57 35.2525 111.57 33.7871V27.9339H109.832V25.9978H111.57V23.8717L114.168 23.1069V25.9978H117.085V27.9364Z" fill="white"/>
<path d="M130.243 31.7102C130.243 33.4951 129.72 34.9605 128.675 36.1064C127.579 37.2863 126.124 37.8744 124.311 37.8744C122.563 37.8744 121.172 37.3093 120.134 36.179C119.097 35.0488 118.578 33.6221 118.578 31.9026C118.578 30.1032 119.112 28.6294 120.183 27.4834C121.251 26.3363 122.694 25.7627 124.507 25.7627C126.254 25.7627 127.661 26.3278 128.722 27.4592C129.737 28.5568 130.243 29.9738 130.243 31.7102ZM127.498 31.7937C127.498 30.7228 127.263 29.8044 126.788 29.0384C126.233 28.1115 125.44 27.6492 124.413 27.6492C123.349 27.6492 122.541 28.1127 121.986 29.0384C121.511 29.8056 121.276 30.7385 121.276 31.8421C121.276 32.913 121.511 33.8315 121.986 34.5963C122.558 35.5232 123.358 35.9854 124.389 35.9854C125.399 35.9854 126.192 35.5135 126.764 34.5721C127.252 33.7916 127.498 32.8634 127.498 31.7937Z" fill="white"/>
<path d="M138.845 28.269C138.583 28.2218 138.303 28.1976 138.01 28.1976C137.08 28.1976 136.36 28.5401 135.853 29.2262C135.413 29.8312 135.192 30.596 135.192 31.5193V37.612H132.547L132.572 29.657C132.572 28.3186 132.538 27.1001 132.473 26.0013H134.777L134.874 28.223H134.947C135.227 27.4595 135.667 26.8447 136.27 26.3837C136.86 25.9686 137.497 25.7617 138.183 25.7617C138.428 25.7617 138.648 25.7787 138.845 25.8089V28.269Z" fill="white"/>
<path d="M150.678 31.2567C150.678 31.719 150.647 32.1086 150.581 32.4269H142.643C142.674 33.574 143.058 34.4513 143.795 35.0564C144.464 35.5973 145.329 35.8683 146.391 35.8683C147.566 35.8683 148.639 35.6856 149.603 35.319L150.018 37.1099C148.891 37.5891 147.56 37.8275 146.025 37.8275C144.178 37.8275 142.729 37.2974 141.674 36.2386C140.621 35.1798 140.094 33.758 140.094 31.9743C140.094 30.2233 140.584 28.7652 141.566 27.6023C142.593 26.3608 143.982 25.74 145.73 25.74C147.446 25.74 148.745 26.3608 149.628 27.6023C150.327 28.5885 150.678 29.8083 150.678 31.2567ZM148.155 30.5876C148.172 29.8228 148 29.1621 147.641 28.6042C147.183 27.8867 146.479 27.5285 145.532 27.5285C144.667 27.5285 143.964 27.8782 143.426 28.58C142.986 29.1379 142.724 29.8071 142.643 30.5863H148.155V30.5876Z" fill="white"/>
<path d="M59.9471 11.6016C59.9471 13.0259 59.5089 14.098 58.634 14.818C57.8235 15.4824 56.6718 15.8151 55.18 15.8151C54.4403 15.8151 53.8073 15.7837 53.2773 15.7208V7.93874C53.9686 7.82983 54.7133 7.77417 55.5175 7.77417C56.9386 7.77417 58.0097 8.07548 58.732 8.6781C59.5412 9.35937 59.9471 10.3335 59.9471 11.6016ZM58.5756 11.6367C58.5756 10.7134 58.3249 10.0056 57.8235 9.51184C57.3221 9.01934 56.5899 8.77248 55.6255 8.77248C55.216 8.77248 54.8672 8.79911 54.578 8.85477V14.7708C54.7381 14.795 55.031 14.8059 55.4567 14.8059C56.4521 14.8059 57.2203 14.5361 57.7615 13.9964C58.3026 13.4567 58.5756 12.6701 58.5756 11.6367Z" fill="white"/>
<path d="M67.2185 12.8457C67.2185 13.723 66.9616 14.4418 66.4477 15.0057C65.9091 15.5853 65.1955 15.8745 64.3044 15.8745C63.4455 15.8745 62.7617 15.5974 62.2516 15.0408C61.7427 14.4853 61.4883 13.7847 61.4883 12.9401C61.4883 12.0567 61.7502 11.3319 62.2764 10.7692C62.8026 10.2065 63.51 9.92456 64.4012 9.92456C65.26 9.92456 65.9501 10.2017 66.4726 10.7571C66.969 11.2968 67.2185 11.9938 67.2185 12.8457ZM65.8694 12.8868C65.8694 12.3604 65.7527 11.9091 65.5206 11.5328C65.2476 11.0778 64.8591 10.8503 64.354 10.8503C63.8315 10.8503 63.4343 11.0778 63.1613 11.5328C62.928 11.9091 62.8125 12.3677 62.8125 12.9098C62.8125 13.4362 62.9292 13.8876 63.1613 14.2639C63.443 14.7189 63.8352 14.9464 64.3416 14.9464C64.838 14.9464 65.2277 14.7153 65.5082 14.2518C65.749 13.8682 65.8694 13.4132 65.8694 12.8868Z" fill="white"/>
<path d="M76.9689 10.0408L75.1383 15.7451H73.9468L73.1885 13.268C72.9962 12.6497 72.8398 12.035 72.7181 11.4251H72.6946C72.5816 12.0519 72.4252 12.6654 72.2242 13.268L71.4187 15.7451H70.2136L68.4922 10.0408H69.8289L70.4904 12.7526C70.6505 13.3939 70.782 14.005 70.8875 14.5834H70.9111C71.0079 14.1066 71.168 13.4992 71.3939 12.7647L72.2242 10.042H73.2841L74.0796 12.7066C74.272 13.3564 74.4284 13.982 74.5488 14.5846H74.5848C74.6729 13.9977 74.8057 13.3721 74.9819 12.7066L75.6918 10.042H76.9689V10.0408Z" fill="white"/>
<path d="M83.7122 15.745H82.4115V12.4778C82.4115 11.471 82.0193 10.9676 81.2325 10.9676C80.8465 10.9676 80.535 11.1056 80.293 11.3827C80.0534 11.6598 79.9318 11.9865 79.9318 12.3604V15.7438H78.6311V11.6707C78.6311 11.1697 78.615 10.6264 78.584 10.0383H79.727L79.7879 10.9301H79.8238C79.9753 10.653 80.2011 10.4243 80.4978 10.2416C80.8502 10.0286 81.2449 9.9209 81.6768 9.9209C82.2229 9.9209 82.6771 10.0927 83.0383 10.4376C83.4876 10.8599 83.7122 11.4904 83.7122 12.3277V15.745Z" fill="white"/>
<path d="M87.2994 15.745H86V7.42334H87.2994V15.745Z" fill="white"/>
<path d="M94.9568 12.8457C94.9568 13.723 94.6998 14.4418 94.186 15.0057C93.6474 15.5853 92.9325 15.8745 92.0426 15.8745C91.1826 15.8745 90.4987 15.5974 89.9898 15.0408C89.481 14.4853 89.2266 13.7847 89.2266 12.9401C89.2266 12.0567 89.4884 11.3319 90.0147 10.7692C90.5409 10.2065 91.2483 9.92456 92.1382 9.92456C92.9983 9.92456 93.6871 10.2017 94.2108 10.7571C94.7073 11.2968 94.9568 11.9938 94.9568 12.8457ZM93.6064 12.8868C93.6064 12.3604 93.4898 11.9091 93.2577 11.5328C92.9859 11.0778 92.5962 10.8503 92.0923 10.8503C91.5685 10.8503 91.1714 11.0778 90.8996 11.5328C90.6662 11.9091 90.5508 12.3677 90.5508 12.9098C90.5508 13.4362 90.6675 13.8876 90.8996 14.2639C91.1813 14.7189 91.5735 14.9464 92.0799 14.9464C92.5763 14.9464 92.9648 14.7153 93.2453 14.2518C93.4873 13.8682 93.6064 13.4132 93.6064 12.8868Z" fill="white"/>
<path d="M101.252 15.745H100.084L99.9876 15.088H99.9516C99.552 15.6119 98.9823 15.8745 98.2426 15.8745C97.6903 15.8745 97.2435 15.7015 96.9072 15.3578C96.6019 15.0456 96.4492 14.6572 96.4492 14.1961C96.4492 13.4991 96.7471 12.9679 97.3465 12.6C97.9447 12.2322 98.7862 12.0519 99.8697 12.0603V11.9539C99.8697 11.2024 99.4651 10.8273 98.6547 10.8273C98.0775 10.8273 97.5687 10.9689 97.1293 11.2496L96.865 10.4171C97.4086 10.0891 98.08 9.92456 98.8719 9.92456C100.401 9.92456 101.168 10.7111 101.168 12.2842V14.3849C101.168 14.9549 101.196 15.4086 101.252 15.745ZM99.902 13.7847V12.905C98.4673 12.8808 97.7499 13.2644 97.7499 14.0546C97.7499 14.3522 97.8318 14.5749 97.9994 14.7237C98.1669 14.8726 98.3804 14.9464 98.6348 14.9464C98.9203 14.9464 99.1871 14.858 99.4304 14.6826C99.6748 14.5059 99.825 14.282 99.8809 14.0074C99.8945 13.9456 99.902 13.8706 99.902 13.7847Z" fill="white"/>
<path d="M108.642 15.745H107.487L107.427 14.829H107.391C107.022 15.526 106.394 15.8745 105.512 15.8745C104.807 15.8745 104.22 15.6047 103.754 15.065C103.289 14.5253 103.057 13.8246 103.057 12.9643C103.057 12.041 103.309 11.2932 103.815 10.722C104.305 10.1896 104.906 9.92336 105.621 9.92336C106.406 9.92336 106.956 10.1811 107.269 10.6978H107.294V7.42334H108.596V14.2082C108.596 14.7637 108.611 15.2755 108.642 15.745ZM107.294 13.3394V12.3883C107.294 12.2237 107.281 12.0906 107.258 11.989C107.185 11.684 107.027 11.4275 106.787 11.2206C106.545 11.0136 106.254 10.9096 105.917 10.9096C105.432 10.9096 105.052 11.0971 104.773 11.4735C104.496 11.8498 104.356 12.3302 104.356 12.9171C104.356 13.481 104.489 13.9384 104.756 14.2905C105.037 14.6657 105.417 14.8532 105.893 14.8532C106.319 14.8532 106.661 14.6971 106.92 14.3837C107.171 14.0945 107.294 13.746 107.294 13.3394Z" fill="white"/>
<path d="M119.765 12.8457C119.765 13.723 119.508 14.4418 118.995 15.0057C118.456 15.5853 117.744 15.8745 116.851 15.8745C115.994 15.8745 115.31 15.5974 114.798 15.0408C114.29 14.4853 114.035 13.7847 114.035 12.9401C114.035 12.0567 114.297 11.3319 114.823 10.7692C115.349 10.2065 116.057 9.92456 116.949 9.92456C117.807 9.92456 118.498 10.2017 119.019 10.7571C119.516 11.2968 119.765 11.9938 119.765 12.8457ZM118.418 12.8868C118.418 12.3604 118.301 11.9091 118.069 11.5328C117.794 11.0778 117.407 10.8503 116.901 10.8503C116.38 10.8503 115.982 11.0778 115.708 11.5328C115.475 11.9091 115.359 12.3677 115.359 12.9098C115.359 13.4362 115.476 13.8876 115.708 14.2639C115.99 14.7189 116.382 14.9464 116.888 14.9464C117.385 14.9464 117.776 14.7153 118.056 14.2518C118.296 13.8682 118.418 13.4132 118.418 12.8868Z" fill="white"/>
<path d="M126.76 15.745H125.46V12.4778C125.46 11.471 125.068 10.9676 124.28 10.9676C123.894 10.9676 123.583 11.1056 123.342 11.3827C123.101 11.6598 122.981 11.9865 122.981 12.3604V15.7438H121.679V11.6707C121.679 11.1697 121.664 10.6264 121.633 10.0383H122.775L122.835 10.9301H122.871C123.024 10.653 123.25 10.4243 123.545 10.2416C123.899 10.0286 124.293 9.9209 124.726 9.9209C125.27 9.9209 125.725 10.0927 126.086 10.4376C126.536 10.8599 126.76 11.4904 126.76 12.3277V15.745Z" fill="white"/>
<path d="M135.512 10.9904H134.08V13.7615C134.08 14.4658 134.335 14.8179 134.839 14.8179C135.072 14.8179 135.265 14.7985 135.418 14.7586L135.452 15.7206C135.195 15.815 134.857 15.8622 134.441 15.8622C133.928 15.8622 133.528 15.7097 133.239 15.4048C132.948 15.0998 132.804 14.5868 132.804 13.8668V10.9904H131.949V10.0405H132.804V8.995L134.079 8.61987V10.0393H135.511V10.9904H135.512Z" fill="white"/>
<path d="M142.398 15.745H141.096V12.502C141.096 11.4795 140.703 10.9677 139.918 10.9677C139.315 10.9677 138.903 11.2641 138.677 11.8571C138.638 11.9817 138.616 12.1342 138.616 12.3133V15.7438H137.316V7.42334H138.616V10.8612H138.641C139.05 10.2356 139.637 9.92336 140.398 9.92336C140.937 9.92336 141.382 10.0952 141.736 10.4401C142.177 10.8696 142.398 11.5086 142.398 12.3532V15.745Z" fill="white"/>
<path d="M149.502 12.6229C149.502 12.8504 149.485 13.0416 149.454 13.1977H145.553C145.57 13.7616 145.757 14.1912 146.118 14.4889C146.448 14.7551 146.874 14.8882 147.395 14.8882C147.972 14.8882 148.498 14.7987 148.972 14.6184L149.176 15.4993C148.621 15.734 147.968 15.8514 147.212 15.8514C146.306 15.8514 145.593 15.5913 145.076 15.0709C144.558 14.5506 144.301 13.8524 144.301 12.9763C144.301 12.1159 144.54 11.3995 145.023 10.8284C145.527 10.2185 146.208 9.91357 147.068 9.91357C147.91 9.91357 148.549 10.2185 148.981 10.8284C149.33 11.3124 149.502 11.9114 149.502 12.6229ZM148.261 12.295C148.271 11.9187 148.185 11.5944 148.009 11.3209C147.783 10.9688 147.44 10.7921 146.974 10.7921C146.55 10.7921 146.203 10.9639 145.939 11.3088C145.723 11.5835 145.595 11.9114 145.553 12.295H148.261Z" fill="white"/>
</svg>
