<svg width="22" height="22" viewBox="0 0 22 22" fill="none" xmlns="http://www.w3.org/2000/svg">
<path d="M11 22C17.0751 22 22 17.0751 22 11C22 4.92487 17.0751 0 11 0C4.92487 0 0 4.92487 0 11C0 17.0751 4.92487 22 11 22Z" fill="#F0F0F0"/>
<path d="M10.5645 11.0003H20.9992C20.9992 10.0977 20.8789 9.22336 20.6547 8.3916H10.5645V11.0003Z" fill="#D80027"/>
<path d="M10.5645 5.78303H19.5315C18.9193 4.78412 18.1366 3.90119 17.2241 3.17432H10.5645V5.78303Z" fill="#D80027"/>
<path d="M10.9983 21.0006C13.3518 21.0006 15.5149 20.1871 17.2231 18.8267H4.77344C6.48164 20.1871 8.6448 21.0006 10.9983 21.0006Z" fill="#D80027"/>
<path d="M2.46699 16.2176H19.5315C20.023 15.4157 20.4041 14.5391 20.6548 13.6089H1.34375C1.59441 14.5391 1.97555 15.4157 2.46699 16.2176Z" fill="#D80027"/>
<path d="M5.63219 2.56164H6.54348L5.69582 3.17746L6.01961 4.17391L5.17199 3.55809L4.32437 4.17391L4.60406 3.31309C3.85773 3.93477 3.20359 4.66313 2.66453 5.47469H2.95652L2.41695 5.86668C2.33289 6.00691 2.25227 6.14937 2.175 6.29395L2.43266 7.08695L1.95195 6.7377C1.83246 6.99086 1.72316 7.24973 1.62492 7.51398L1.90879 8.38773H2.95652L2.10887 9.00356L2.43266 10L1.58504 9.38418L1.0773 9.75309C1.02648 10.1616 1 10.5777 1 11H11C11 5.47719 11 4.82609 11 1C9.02453 1 7.18301 1.57305 5.63219 2.56164ZM6.01961 10L5.17199 9.38418L4.32437 10L4.64816 9.00356L3.80051 8.38773H4.84824L5.17199 7.39129L5.49574 8.38773H6.54348L5.69582 9.00356L6.01961 10ZM5.69582 6.09051L6.01961 7.08695L5.17199 6.47113L4.32437 7.08695L4.64816 6.09051L3.80051 5.47469H4.84824L5.17199 4.47824L5.49574 5.47469H6.54348L5.69582 6.09051ZM9.60656 10L8.75895 9.38418L7.91133 10L8.23512 9.00356L7.38746 8.38773H8.4352L8.75895 7.39129L9.0827 8.38773H10.1304L9.28277 9.00356L9.60656 10ZM9.28277 6.09051L9.60656 7.08695L8.75895 6.47113L7.91133 7.08695L8.23512 6.09051L7.38746 5.47469H8.4352L8.75895 4.47824L9.0827 5.47469H10.1304L9.28277 6.09051ZM9.28277 3.17746L9.60656 4.17391L8.75895 3.55809L7.91133 4.17391L8.23512 3.17746L7.38746 2.56164H8.4352L8.75895 1.5652L9.0827 2.56164H10.1304L9.28277 3.17746Z" fill="#0052B4"/>
</svg>
