<svg width="168" height="49" viewBox="0 0 168 49" fill="none" xmlns="http://www.w3.org/2000/svg">
<path d="M161.122 48.4031H6.197C2.7902 48.4031 0 45.6789 0 42.3527V6.05036C0 2.72416 2.7902 -2.50482e-05 6.197 -2.50482e-05H161.122C164.529 -2.50482e-05 167.319 2.72416 167.319 6.05036V42.3527C167.319 45.6789 164.529 48.4031 161.122 48.4031Z" fill="#000E35"/>
<path d="M58.7689 12.3959C58.7689 13.4063 58.4591 14.2156 57.8487 14.8191C57.1468 15.5346 56.2328 15.8946 55.1127 15.8946C54.0422 15.8946 53.1281 15.5285 52.3783 14.807C51.6269 14.0749 51.252 13.1764 51.252 12.101C51.252 11.0255 51.6269 10.127 52.3783 9.40098C53.1281 8.67342 54.0422 8.30737 55.1127 8.30737C55.6456 8.30737 56.1538 8.41477 56.6387 8.61443C57.1221 8.81561 57.5156 9.08787 57.8006 9.42367L57.153 10.062C56.6557 9.48871 55.9787 9.20586 55.1127 9.20586C54.3319 9.20586 53.6548 9.47207 53.0801 10.009C52.5115 10.5475 52.2264 11.2448 52.2264 12.101C52.2264 12.9571 52.5115 13.6605 53.0801 14.1989C53.6548 14.7299 54.3319 15.0021 55.1127 15.0021C55.9415 15.0021 56.6387 14.7299 57.1887 14.1929C57.5512 13.8374 57.7573 13.3473 57.8115 12.7211H55.1127V11.8468H58.7131C58.7565 12.0359 58.7689 12.2189 58.7689 12.3959Z" fill="white" stroke="white" stroke-width="0.16" stroke-miterlimit="10"/>
<path d="M64.4801 9.36431H61.0981V11.6635H64.147V12.5377H61.0981V14.8369H64.4801V15.7278H60.1406V8.47339H64.4801V9.36431Z" fill="white" stroke="white" stroke-width="0.16" stroke-miterlimit="10"/>
<path d="M68.5123 15.7278H67.5549V9.36431H65.4805V8.47339H70.5883V9.36431H68.5123V15.7278Z" fill="white" stroke="white" stroke-width="0.16" stroke-miterlimit="10"/>
<path d="M74.2852 15.7278V8.47339H75.241V15.7278H74.2852Z" fill="white" stroke="white" stroke-width="0.16" stroke-miterlimit="10"/>
<path d="M79.4791 15.7278H78.5294V9.36431H76.4473V8.47339H81.5613V9.36431H79.4791V15.7278Z" fill="white" stroke="white" stroke-width="0.16" stroke-miterlimit="10"/>
<path d="M91.2303 14.7949C90.4975 15.5285 89.5897 15.8946 88.5067 15.8946C87.4176 15.8946 86.5098 15.5285 85.777 14.7949C85.0457 14.0628 84.6816 13.1643 84.6816 12.101C84.6816 11.0376 85.0457 10.1391 85.777 9.40703C86.5098 8.67342 87.4176 8.30737 88.5067 8.30737C89.5835 8.30737 90.4913 8.67342 91.2241 9.41308C91.9616 10.1512 92.3256 11.0437 92.3256 12.101C92.3256 13.1643 91.9616 14.0628 91.2303 14.7949ZM86.485 14.1868C87.0365 14.7299 87.7073 15.0021 88.5067 15.0021C89.3 15.0021 89.977 14.7299 90.5223 14.1868C91.0723 13.6438 91.3512 12.9465 91.3512 12.101C91.3512 11.2554 91.0723 10.5581 90.5223 10.0151C89.977 9.47207 89.3 9.19981 88.5067 9.19981C87.7073 9.19981 87.0365 9.47207 86.485 10.0151C85.935 10.5581 85.6561 11.2554 85.6561 12.101C85.6561 12.9465 85.935 13.6438 86.485 14.1868Z" fill="white" stroke="white" stroke-width="0.16" stroke-miterlimit="10"/>
<path d="M93.668 15.7278V8.47339H94.8299L98.4428 14.1154H98.4846L98.4428 12.7208V8.47339H99.3986V15.7278H98.4009L94.6177 9.8075H94.5758L94.6177 11.2082V15.7278H93.668Z" fill="white" stroke="white" stroke-width="0.16" stroke-miterlimit="10"/>
<path d="M84.4467 26.3222C81.5357 26.3222 79.1576 28.4853 79.1576 31.4696C79.1576 34.4298 81.5357 36.6155 84.4467 36.6155C87.364 36.6155 89.7421 34.4298 89.7421 31.4696C89.7421 28.4853 87.364 26.3222 84.4467 26.3222ZM84.4467 34.5886C82.8495 34.5886 81.4753 33.3014 81.4753 31.4696C81.4753 29.6137 82.8495 28.3491 84.4467 28.3491C86.044 28.3491 87.4244 29.6137 87.4244 31.4696C87.4244 33.3014 86.044 34.5886 84.4467 34.5886ZM72.9064 26.3222C69.9892 26.3222 67.6173 28.4853 67.6173 31.4696C67.6173 34.4298 69.9892 36.6155 72.9064 36.6155C75.8221 36.6155 78.1955 34.4298 78.1955 31.4696C78.1955 28.4853 75.8221 26.3222 72.9064 26.3222ZM72.9064 34.5886C71.3076 34.5886 69.9287 33.3014 69.9287 31.4696C69.9287 29.6137 71.3076 28.3491 72.9064 28.3491C74.5037 28.3491 75.8779 29.6137 75.8779 31.4696C75.8779 33.3014 74.5037 34.5886 72.9064 34.5886ZM59.1739 27.8999V30.0871H64.5234C64.3669 31.3093 63.9486 32.2078 63.3072 32.834C62.5264 33.5903 61.3103 34.4298 59.1739 34.4298C55.8817 34.4298 53.3037 31.8357 53.3037 28.6214C53.3037 25.4071 55.8817 22.813 59.1739 22.813C60.9539 22.813 62.2491 23.4922 63.205 24.3725L64.7837 22.8312C63.4467 21.5848 61.6681 20.6273 59.1739 20.6273C54.6593 20.6273 50.8652 24.2137 50.8652 28.6214C50.8652 33.0291 54.6593 36.6155 59.1739 36.6155C61.6139 36.6155 63.4467 35.835 64.8875 34.3708C66.3639 32.9293 66.824 30.9024 66.824 29.2658C66.824 28.7575 66.7807 28.2901 66.7032 27.8999H59.1739ZM115.328 29.5955C114.893 28.4444 113.549 26.3222 110.813 26.3222C108.102 26.3222 105.845 28.4081 105.845 31.4696C105.845 34.3526 108.079 36.6155 111.074 36.6155C113.495 36.6155 114.893 35.174 115.467 34.3345L113.67 33.1652C113.071 34.0214 112.254 34.5886 111.074 34.5886C109.901 34.5886 109.06 34.0637 108.521 33.0291L115.571 30.1809L115.328 29.5955ZM108.139 31.3093C108.079 29.3248 109.718 28.3083 110.892 28.3083C111.813 28.3083 112.593 28.7575 112.854 29.4004L108.139 31.3093ZM102.409 36.3024H104.726V21.1764H102.409V36.3024ZM98.6131 27.4688H98.5356C98.0151 26.8668 97.022 26.3222 95.764 26.3222C93.1241 26.3222 90.7104 28.5851 90.7104 31.4863C90.7104 34.3708 93.1241 36.6155 95.764 36.6155C97.022 36.6155 98.0151 36.0664 98.5356 35.4462H98.6131V36.1844C98.6131 38.1523 97.5363 39.2096 95.7996 39.2096C94.3836 39.2096 93.5052 38.2113 93.1427 37.3718L91.1271 38.1931C91.7081 39.5575 93.2465 41.2365 95.7996 41.2365C98.517 41.2365 100.81 39.6755 100.81 35.8773V26.6354H98.6131V27.4688ZM95.9623 34.5886C94.365 34.5886 93.028 33.2832 93.028 31.4863C93.028 29.6726 94.365 28.3491 95.9623 28.3491C97.5363 28.3491 98.7773 29.6726 98.7773 31.4863C98.7773 33.2832 97.5363 34.5886 95.9623 34.5886ZM126.179 21.1764H120.636V36.3024H122.947V30.5711H126.179C128.746 30.5711 131.263 28.7575 131.263 25.873C131.263 22.99 128.74 21.1764 126.179 21.1764ZM126.239 28.4671H122.947V23.2804H126.239C127.965 23.2804 128.95 24.6796 128.95 25.873C128.95 27.0438 127.965 28.4671 126.239 28.4671ZM140.528 26.2935C138.858 26.2935 137.121 27.0135 136.407 28.6093L138.458 29.4488C138.9 28.6093 139.712 28.337 140.57 28.337C141.769 28.337 142.985 29.0404 143.004 30.2822V30.441C142.585 30.2051 141.69 29.8557 140.588 29.8557C138.379 29.8557 136.128 31.0431 136.128 33.259C136.128 35.2859 137.938 36.5913 139.972 36.5913C141.527 36.5913 142.386 35.9061 142.925 35.1089H143.004V36.2782H145.236V30.4758C145.236 27.794 143.185 26.2935 140.528 26.2935ZM140.249 34.5825C139.493 34.5825 138.44 34.2165 138.44 33.3014C138.44 32.1306 139.753 31.6814 140.891 31.6814C141.908 31.6814 142.386 31.9007 143.004 32.1896C142.822 33.5903 141.588 34.5825 140.249 34.5825ZM153.37 26.6248L150.713 33.1819H150.634L147.887 26.6248H145.394L149.521 35.7881L147.167 40.887H149.582L155.941 26.6248H153.37ZM132.534 36.3024H134.852V21.1764H132.534V36.3024Z" fill="white"/>
<path d="M12.9341 9.12239C12.5701 9.49449 12.3594 10.0738 12.3594 10.8241V37.5849C12.3594 38.3352 12.5701 38.9145 12.9341 39.2866L13.024 39.3683L28.3832 24.3784V24.0245L13.024 9.03466L12.9341 9.12239Z" fill="url(#paint0_linear_1446_325)"/>
<path d="M33.4969 29.3777L28.3828 24.3786V24.0246L33.5031 19.0255L33.6177 19.0905L39.6815 22.4591C41.412 23.415 41.412 24.9881 39.6815 25.9501L33.6177 29.3126L33.4969 29.3777Z" fill="url(#paint1_linear_1446_325)"/>
<path d="M33.6176 29.3126L28.3827 24.2015L12.9336 39.2867C13.5084 39.8766 14.4457 39.9477 15.5115 39.3577L33.6176 29.3126Z" fill="url(#paint2_linear_1446_325)"/>
<path d="M33.6176 19.0906L15.5115 9.04544C14.4457 8.46158 13.5084 8.53267 12.9336 9.12258L28.3827 24.2017L33.6176 19.0906Z" fill="url(#paint3_linear_1446_325)"/>
<defs>
<linearGradient id="paint0_linear_1446_325" x1="27.0195" y1="37.8636" x2="6.71735" y2="17.0695" gradientUnits="userSpaceOnUse">
<stop stop-color="#00A0FF"/>
<stop offset="0.0066" stop-color="#00A1FF"/>
<stop offset="0.2601" stop-color="#00BEFF"/>
<stop offset="0.5122" stop-color="#00D2FF"/>
<stop offset="0.7604" stop-color="#00DFFF"/>
<stop offset="1" stop-color="#00E3FF"/>
</linearGradient>
<linearGradient id="paint1_linear_1446_325" x1="41.9349" y1="24.1999" x2="11.9453" y2="24.1999" gradientUnits="userSpaceOnUse">
<stop stop-color="#FFE000"/>
<stop offset="0.4087" stop-color="#FFBD00"/>
<stop offset="0.7754" stop-color="#FFA500"/>
<stop offset="1" stop-color="#FF9C00"/>
</linearGradient>
<linearGradient id="paint2_linear_1446_325" x1="30.771" y1="21.4231" x2="3.23961" y2="-6.77547" gradientUnits="userSpaceOnUse">
<stop stop-color="#FF3A44"/>
<stop offset="1" stop-color="#C31162"/>
</linearGradient>
<linearGradient id="paint3_linear_1446_325" x1="9.04473" y1="48.19" x2="21.3387" y2="35.5982" gradientUnits="userSpaceOnUse">
<stop stop-color="#32A071"/>
<stop offset="0.0685" stop-color="#2DA771"/>
<stop offset="0.4762" stop-color="#15CF74"/>
<stop offset="0.8009" stop-color="#06E775"/>
<stop offset="1" stop-color="#00F076"/>
</linearGradient>
</defs>
</svg>
