<svg width="1920" height="549" viewBox="0 0 1920 549" fill="none" xmlns="http://www.w3.org/2000/svg">
<g style="mix-blend-mode:difference" opacity="0.32">
<path fill-rule="evenodd" clip-rule="evenodd" d="M-328.412 368C-431.039 332.787 -431.019 332.73 -430.999 332.673L-430.958 332.552C-430.929 332.469 -430.899 332.382 -430.867 332.291C-430.804 332.109 -430.734 331.909 -430.657 331.692C-430.504 331.259 -430.325 330.758 -430.12 330.191C-429.708 329.057 -429.189 327.659 -428.557 326.015C-427.293 322.728 -425.575 318.445 -423.359 313.308C-418.934 303.053 -412.479 289.288 -403.637 273.19C-386.036 241.143 -358.443 198.875 -317.75 156.551C-234.531 69.9964 -99.6564 -13 102.088 -13C240.888 -13 344.382 24.2809 414.93 64.4804C449.893 84.4029 476.263 104.745 494.602 120.968C503.777 129.084 510.972 136.196 516.262 141.752C518.908 144.532 521.083 146.928 522.795 148.872C523.651 149.845 524.392 150.705 525.02 151.444C525.333 151.814 525.619 152.154 525.876 152.462C525.951 152.552 526.023 152.639 526.093 152.723L526.24 152.902L526.407 153.104L526.486 153.2C526.524 153.247 526.563 153.294 442.588 222L526.563 153.294C564.508 199.671 557.672 268.029 511.294 305.974C465.394 343.53 397.963 337.22 359.794 292.125C359.654 291.971 359.42 291.719 359.094 291.377C357.798 290.015 355.055 287.244 350.824 283.5C342.351 276.005 328.034 264.722 307.496 253.02C267.044 229.969 200.289 204 102.088 204C-33.1672 204 -113.543 257.254 -161.324 306.949C-186.131 332.75 -202.975 358.607 -213.437 377.654C-218.626 387.102 -222.108 394.627 -224.113 399.274C-225.112 401.589 -225.731 403.16 -226.002 403.865C-226.051 403.991 -226.088 404.089 -226.114 404.158M358.762 290.887C358.76 290.884 358.757 290.881 358.755 290.879L358.76 290.885M358.688 290.796C358.688 290.796 358.688 290.797 358.688 290.797L358.708 290.821C358.701 290.813 358.694 290.804 358.688 290.796Z" fill="#1842B1" fill-opacity="0.59"/>
</g>
<g style="mix-blend-mode:difference" opacity="0.32">
<path fill-rule="evenodd" clip-rule="evenodd" d="M1551.33 231.901C1551.33 231.901 1551.34 231.902 1551.34 231.902L1551.33 231.901ZM1461 292C1370.6 352 1370.63 352.051 1370.67 352.103L1370.74 352.209C1370.79 352.281 1370.84 352.356 1370.89 352.434C1370.99 352.589 1371.1 352.755 1371.22 352.931C1371.46 353.284 1371.73 353.678 1372.03 354.114C1372.63 354.984 1373.36 356.017 1374.21 357.201C1375.91 359.57 1378.12 362.549 1380.85 366.049C1386.31 373.043 1393.89 382.157 1403.72 392.653C1423.36 413.618 1452.2 440.344 1491.26 466.696C1570.27 519.999 1688.63 570 1851 570C2012.89 570 2136.53 520.325 2220.18 469.456C2261.81 444.145 2293.5 418.583 2315.32 398.729C2326.25 388.784 2334.77 380.207 2340.88 373.717C2343.95 370.47 2346.41 367.737 2348.29 365.606C2349.23 364.54 2350.02 363.625 2350.66 362.869C2350.99 362.492 2351.27 362.154 2351.52 361.858C2351.64 361.71 2351.76 361.572 2351.86 361.445L2352.02 361.262L2352.09 361.177C2352.12 361.136 2352.15 361.095 2268.5 292L2352.15 361.095C2390.31 314.894 2383.8 246.506 2337.6 208.345C2291.65 170.398 2223.77 176.632 2185.49 222.136C2185.47 222.155 2185.45 222.177 2185.43 222.201C2185.12 222.553 2184.31 223.462 2183 224.849C2180.38 227.629 2175.79 232.295 2169.26 238.24C2156.16 250.167 2135.5 266.98 2107.44 284.044C2051.72 317.925 1966.61 353 1851 353C1735.87 353 1659.23 318.251 1612.62 286.804C1588.87 270.781 1572.24 255.132 1562.11 244.316C1557.05 238.922 1553.68 234.793 1551.9 232.517C1551.2 231.618 1550.75 231.015 1550.56 230.747C1517.13 181.847 1450.51 168.741 1401 201.6C1351.07 234.737 1337.46 302.074 1370.6 352L1461 292ZM2184.97 222.749L2184.97 222.753L2184.91 222.827C2184.91 222.827 2184.91 222.828 2184.91 222.828C2184.93 222.801 2184.95 222.775 2184.97 222.749Z" fill="#1842B1" fill-opacity="0.59"/>
</g>
</svg>
