<svg width="132" height="54" viewBox="0 0 132 54" fill="none" xmlns="http://www.w3.org/2000/svg">
<rect width="131.77" height="53.191" rx="7.2534" fill="#000E35"/>
<path d="M26.5318 9.67114C17.2205 9.67114 9.67188 17.2485 9.67188 26.5956C9.67188 35.943 17.2205 43.5198 26.5318 43.5198C35.844 43.5198 43.3919 35.943 43.3919 26.5956C43.3919 17.2492 35.844 9.67195 26.5316 9.67195L26.5318 9.67114ZM34.2636 34.081C33.9616 34.5782 33.3133 34.7358 32.8181 34.4306C28.8595 32.0034 23.8762 31.4537 18.0075 32.7997C17.442 32.929 16.8782 32.5733 16.7494 32.0054C16.6199 31.4375 16.9729 30.8716 17.5398 30.7423C23.9622 29.2694 29.4712 29.9036 33.9153 32.6299C34.4106 32.9351 34.5676 33.5838 34.2636 34.081ZM36.3272 29.4727C35.9467 30.0935 35.1374 30.2896 34.5193 29.9076C29.9874 27.1113 23.0792 26.3015 17.7188 27.9349C17.0236 28.1457 16.2894 27.7524 16.0784 27.0557C15.869 26.3579 16.261 25.6222 16.955 25.41C23.078 23.545 30.69 24.4484 35.8944 27.6588C36.5124 28.0408 36.7077 28.853 36.3272 29.4727ZM36.5044 24.674C31.0705 21.4341 22.1053 21.1362 16.9173 22.7168C16.0842 22.9705 15.2032 22.4983 14.9507 21.6621C14.6983 20.8253 15.1682 19.9416 16.0019 19.6873C21.9574 17.8724 31.8577 18.2231 38.1138 21.9513C38.8648 22.3977 39.1104 23.3692 38.6655 24.1204C38.2225 24.8726 37.2521 25.1206 36.5052 24.674H36.5044ZM55.5421 25.2948C52.6308 24.598 52.1134 24.1089 52.1134 23.0812C52.1134 22.1103 53.0234 21.4569 54.3784 21.4569C55.691 21.4569 56.9916 21.9531 58.3566 22.9745C58.3969 23.0054 58.4493 23.0178 58.4996 23.0097C58.5519 23.002 58.5962 22.9739 58.6264 22.9317L60.0478 20.9203C60.1062 20.8375 60.0901 20.7233 60.0116 20.66C58.3868 19.3518 56.5588 18.7158 54.4207 18.7158C51.2779 18.7158 49.0814 20.6093 49.0814 23.3185C49.0814 26.2237 50.9759 27.2524 54.2495 28.0464C57.0339 28.6905 57.505 29.2302 57.505 30.1946C57.505 31.2637 56.5547 31.9286 55.0247 31.9286C53.3254 31.9286 51.9383 31.3526 50.388 30.0066C50.3498 29.9723 50.2974 29.9581 50.2491 29.9602C50.1968 29.9642 50.1505 29.9884 50.1183 30.0268L48.5237 31.9306C48.4573 32.0115 48.4654 32.1287 48.5419 32.1974C50.3458 33.8142 52.5644 34.6671 54.9602 34.6671C58.3466 34.6671 60.535 32.8098 60.535 29.9339C60.5411 27.5072 59.0935 26.1633 55.5481 25.2975L55.5421 25.2948ZM68.1976 22.4129C66.7299 22.4129 65.526 22.9933 64.5314 24.1827V22.8439C64.5314 22.7382 64.4468 22.6521 64.3422 22.6521H61.7349C61.6303 22.6521 61.5457 22.7382 61.5457 22.8439V37.7188C61.5457 37.8239 61.6303 37.9108 61.7349 37.9108H64.3422C64.4468 37.9108 64.5314 37.8239 64.5314 37.7188V33.024C65.526 34.1416 66.7299 34.6893 68.1976 34.6893C70.9256 34.6893 73.6879 32.5814 73.6879 28.5517C73.6919 24.5212 70.9296 22.4127 68.1996 22.4127L68.1976 22.4129ZM70.6558 28.5517C70.6558 30.6028 69.3975 32.0357 67.5936 32.0357C65.8119 32.0357 64.467 30.5382 64.467 28.5517C64.467 26.565 65.8119 25.0679 67.5936 25.0679C69.3673 25.0677 70.6558 26.5327 70.6558 28.5517ZM80.7646 22.4129C77.2514 22.4129 74.4992 25.1283 74.4992 28.5956C74.4992 32.0256 77.2333 34.7116 80.7223 34.7116C84.2476 34.7116 87.0078 32.0054 87.0078 28.5517C87.0078 25.1097 84.2657 22.4133 80.7646 22.4133V22.4129ZM80.7646 32.056C78.8962 32.056 77.4869 30.5483 77.4869 28.5507C77.4869 26.544 78.8479 25.0879 80.7223 25.0879C82.6027 25.0879 84.0201 26.595 84.0201 28.5946C84.0201 30.6008 82.651 32.056 80.7646 32.056ZM94.5093 22.6521H91.6404V19.7083C91.6404 19.6028 91.5558 19.5167 91.4511 19.5167H88.8439C88.7392 19.5167 88.6526 19.6028 88.6526 19.7083V22.6521H87.4004C87.2957 22.6521 87.2111 22.7382 87.2111 22.8439V25.0927C87.2111 25.1982 87.2957 25.2845 87.4004 25.2845H88.6526V31.1041C88.6526 33.4545 89.8183 34.6469 92.1195 34.6469C93.0537 34.6469 93.8288 34.4529 94.5596 34.0365C94.62 34.0042 94.6563 33.9395 94.6563 33.8708V31.7285C94.6563 31.6639 94.622 31.6012 94.5657 31.5669C94.5093 31.5305 94.4388 31.5285 94.3804 31.5588C93.8791 31.8114 93.3939 31.9286 92.8503 31.9286C92.0148 31.9286 91.6404 31.5467 91.6404 30.6938V25.2855H94.5093C94.614 25.2855 94.6985 25.1994 94.6985 25.0937V22.8452C94.7026 22.7395 94.618 22.6534 94.5113 22.6534L94.5093 22.6521ZM104.503 22.6637V22.3021C104.503 21.2384 104.91 20.7641 105.82 20.7641C106.364 20.7641 106.8 20.8724 107.29 21.0361C107.35 21.0551 107.412 21.0456 107.461 21.0095C107.511 20.9733 107.539 20.9153 107.539 20.8538V18.6489C107.539 18.5646 107.487 18.4901 107.404 18.4652C106.889 18.311 106.229 18.1528 105.238 18.1528C102.832 18.1528 101.558 19.5137 101.558 22.0871V22.6408H100.306C100.201 22.6408 100.114 22.7269 100.114 22.8324V25.0927C100.114 25.1982 100.201 25.2845 100.306 25.2845H101.558V34.2589C101.558 34.366 101.644 34.4509 101.749 34.4509H104.354C104.461 34.4509 104.546 34.366 104.546 34.2589V25.2851H106.98L110.708 34.2589C110.285 35.2007 109.869 35.3886 109.301 35.3886C108.842 35.3886 108.357 35.2512 107.863 34.9783C107.817 34.9541 107.761 34.9501 107.712 34.9642C107.662 34.9824 107.62 35.0188 107.6 35.0673L106.716 37.0135C106.674 37.1065 106.71 37.2136 106.798 37.2621C107.72 37.7633 108.552 37.9775 109.581 37.9775C111.505 37.9775 112.571 37.0762 113.507 34.655L118.029 22.9256C118.053 22.8666 118.045 22.7999 118.008 22.7475C117.974 22.6956 117.916 22.6643 117.853 22.6643H115.139C115.057 22.6643 114.984 22.7162 114.958 22.7928L112.178 30.7625L109.134 22.7876C109.106 22.7134 109.035 22.6643 108.957 22.6643H104.503V22.6637ZM98.709 22.6521H96.1018C95.9971 22.6521 95.9105 22.7382 95.9105 22.8439V34.2589C95.9105 34.366 95.9971 34.4509 96.1018 34.4509H98.709C98.8137 34.4509 98.9003 34.366 98.9003 34.2589V22.8448C98.9003 22.7391 98.8157 22.653 98.709 22.653V22.6521ZM97.4205 17.4543C96.3877 17.4543 95.5502 18.2934 95.5502 19.33C95.5502 20.3672 96.3877 21.2073 97.4205 21.2073C98.4533 21.2073 99.2888 20.3672 99.2888 19.33C99.2888 18.2936 98.4513 17.4543 97.4205 17.4543ZM120.255 26.3225C119.224 26.3225 118.421 25.4909 118.421 24.481C118.421 23.4711 119.235 22.6299 120.265 22.6299C121.296 22.6299 122.099 23.4614 122.099 24.4705C122.099 25.4804 121.286 26.3225 120.255 26.3225ZM120.265 22.813C119.325 22.813 118.614 23.5628 118.614 24.481C118.614 25.3987 119.321 26.1384 120.255 26.1384C121.195 26.1384 121.906 25.3892 121.906 24.4705C121.906 23.5527 121.199 22.813 120.265 22.813ZM120.672 24.6598L121.191 25.389H120.753L120.285 24.7201H119.885V25.389H119.518V23.4561H120.376C120.825 23.4561 121.119 23.6859 121.119 24.0727C121.121 24.3896 120.938 24.5832 120.674 24.6598H120.672ZM120.362 23.7878H119.885V24.3991H120.362C120.6 24.3991 120.742 24.2821 120.742 24.0931C120.742 23.8943 120.6 23.7878 120.362 23.7878Z" fill="#1ED760"/>
</svg>
