<svg width="375" height="1054" viewBox="0 0 375 1054" fill="none" xmlns="http://www.w3.org/2000/svg">
<g style="mix-blend-mode:difference" opacity="0.32">
<path fill-rule="evenodd" clip-rule="evenodd" d="M-354.014 273.544C-431.029 247.123 -431.014 247.081 -431 247.038L-430.968 246.947C-430.947 246.885 -430.924 246.82 -430.9 246.751C-430.853 246.614 -430.8 246.465 -430.743 246.302C-430.628 245.977 -430.494 245.601 -430.339 245.175C-430.03 244.325 -429.641 243.276 -429.166 242.042C-428.218 239.576 -426.929 236.362 -425.266 232.508C-421.945 224.814 -417.101 214.486 -410.466 202.407C-397.257 178.362 -376.55 146.647 -346.013 114.891C-283.562 49.9478 -182.347 -12.3257 -30.9497 -12.3257C73.2108 -12.3257 150.877 15.6467 203.819 45.809C230.057 60.7572 249.846 76.0201 263.608 88.1927C270.494 94.2823 275.893 99.6184 279.862 103.787C281.848 105.873 283.48 107.671 284.765 109.129C285.408 109.859 285.964 110.504 286.435 111.059C286.67 111.337 286.884 111.592 287.077 111.823C287.133 111.89 287.188 111.956 287.24 112.019L287.351 112.153L287.476 112.304L287.535 112.377C287.564 112.412 287.593 112.447 224.575 163.998L287.593 112.447C316.068 147.245 310.938 198.535 276.135 227.006C241.689 255.184 191.086 250.45 162.443 216.614C162.337 216.499 162.163 216.31 161.918 216.053C160.945 215.031 158.887 212.952 155.711 210.143C149.353 204.519 138.609 196.053 123.197 187.273C92.8398 169.978 42.7439 150.493 -30.9497 150.493C-132.451 150.493 -192.768 190.45 -228.624 227.737C-247.24 247.096 -259.881 266.496 -267.732 280.788C-271.626 287.877 -274.239 293.523 -275.744 297.009C-276.493 298.746 -276.958 299.925 -277.162 300.454C-277.198 300.549 -277.226 300.623 -277.245 300.674M161.668 215.685C161.667 215.683 161.665 215.681 161.663 215.679L161.667 215.684M161.613 215.617C161.613 215.617 161.613 215.618 161.613 215.618L161.628 215.636C161.623 215.629 161.618 215.623 161.613 215.617Z" fill="#1842B1" fill-opacity="0.59"/>
</g>
<g style="mix-blend-mode:difference" opacity="0.32">
<path fill-rule="evenodd" clip-rule="evenodd" d="M198.254 849.999C198.254 849.999 198.254 849.999 198.254 849.999ZM130.449 895.091C62.5944 940.109 62.6198 940.147 62.6455 940.186L62.6987 940.266C62.7348 940.32 62.7724 940.376 62.8115 940.434C62.8895 940.551 62.9734 940.675 63.0629 940.807C63.242 941.072 63.4442 941.368 63.6696 941.695C64.1204 942.347 64.6644 943.123 65.303 944.011C66.5799 945.788 68.238 948.024 70.2889 950.65C74.3872 955.898 80.0776 962.735 87.4567 970.611C102.195 986.341 123.841 1006.39 153.16 1026.16C212.466 1066.16 301.31 1103.67 423.183 1103.67C544.699 1103.67 637.5 1066.4 700.292 1028.24C731.536 1009.25 755.323 990.066 771.698 975.169C779.901 967.707 786.296 961.273 790.889 956.403C793.188 953.967 795.041 951.916 796.449 950.317C797.153 949.518 797.747 948.831 798.23 948.264C798.471 947.981 798.685 947.727 798.872 947.505C798.965 947.394 799.052 947.291 799.131 947.195L799.245 947.058L799.298 946.994C799.324 946.963 799.349 946.933 736.558 895.091L799.349 946.933C827.992 912.268 823.099 860.956 788.421 832.325C753.935 803.853 702.982 808.53 674.248 842.672C674.235 842.686 674.221 842.702 674.205 842.721C673.972 842.985 673.364 843.666 672.382 844.707C670.415 846.793 666.973 850.294 662.069 854.754C652.232 863.704 636.73 876.318 615.667 889.121C573.844 914.542 509.957 940.859 423.183 940.859C336.763 940.859 279.24 914.787 244.253 891.192C226.425 879.17 213.942 867.429 206.338 859.313C202.546 855.266 200.012 852.168 198.679 850.461C198.152 849.786 197.817 849.334 197.67 849.133C172.581 812.443 122.572 802.61 85.4127 827.263C47.9377 852.126 37.7216 902.649 62.5944 940.109L130.449 895.091ZM673.864 843.131L673.861 843.135L673.815 843.19C673.815 843.19 673.815 843.191 673.814 843.191C673.831 843.171 673.847 843.151 673.864 843.131Z" fill="#1842B1" fill-opacity="0.59"/>
</g>
</svg>
