<svg width="28" height="19" viewBox="0 0 28 19" fill="none" xmlns="http://www.w3.org/2000/svg">
<path d="M1.91676 1.52543e-07C1.68366 -0.000114977 1.45518 0.0649417 1.2571 0.187825C1.05903 0.310708 0.899255 0.486522 0.795825 0.695414C0.692394 0.904306 0.649427 1.13796 0.671775 1.36998C0.694122 1.602 0.780894 1.82315 0.922292 2.00846L13.0056 17.8418C13.1223 17.9949 13.2727 18.1191 13.4452 18.2045C13.6177 18.2899 13.8076 18.3344 14.0001 18.3344C14.1926 18.3344 14.3825 18.2899 14.555 18.2045C14.7275 18.1191 14.8779 17.9949 14.9946 17.8418L27.0779 2.00846C27.2193 1.82315 27.3061 1.602 27.3284 1.36998C27.3508 1.13796 27.3078 0.904306 27.2044 0.695414C27.1009 0.486522 26.9412 0.310709 26.7431 0.187826C26.545 0.0649425 26.3165 -0.000114915 26.0834 1.52543e-07H1.91676ZM4.44443 2.5H23.5558L14.0001 15.0212L4.44443 2.5Z" fill="white"/>
</svg>
