<svg width="76" height="76" viewBox="0 0 76 76" fill="none" xmlns="http://www.w3.org/2000/svg">
<path d="M4.04688 68.8915C4.39049 68.3862 4.85539 68.2245 5.46177 68.2447C6.71496 68.2851 7.96815 68.2447 9.3224 68.2447C8.00857 66.1224 7.90751 64 8.89794 61.8979C8.17028 61.5139 7.4224 61.2309 6.75538 60.7862C5.58304 59.9979 5.54262 58.7649 6.61389 57.8554C9.56496 55.3288 12.516 52.782 15.4873 50.2756C16.2958 49.5883 16.8618 48.7596 17.2054 47.7288C18.499 43.8075 19.833 39.9064 21.1469 35.9852C22.1373 32.9937 24.1181 31.0532 27.1298 30.1235C29.3128 29.4564 31.516 28.749 33.699 28.0415C33.8 28.0011 33.9011 27.9809 33.982 27.9405C33.9618 27.8596 33.9618 27.799 33.9415 27.7788C32.1022 26.182 31.2937 24.1405 31.3745 21.715C31.4352 19.9969 31.3139 18.2586 31.516 16.5607C31.9607 13.0235 35.2149 10.4767 38.8532 10.6586C42.35 10.8203 45.3213 13.7511 45.4426 17.2479C45.5032 19.0671 45.5032 20.866 45.4628 22.6852C45.4022 24.6862 44.533 26.3437 43.0373 27.6575C42.916 27.7788 42.7745 27.8798 42.6532 28.0011C42.633 28.0213 42.633 28.0415 42.633 28.1022C44.6139 28.7288 46.5947 29.3958 48.5958 29.982C51.85 30.932 53.9319 32.9937 54.983 36.2075C56.216 40.0277 57.5298 43.8277 58.8032 47.6277C59.1468 48.6586 59.7128 49.5277 60.5415 50.2351C63.4724 52.7213 66.383 55.2277 69.3139 57.7341C70.5064 58.7649 70.466 59.9777 69.1319 60.8266C68.5458 61.2107 67.8788 61.4734 67.2319 61.7968C68.5053 63.8585 68.5458 66.0011 67.1713 68.2043C68.3639 68.2043 69.4553 68.2245 70.5468 68.2043C71.1532 68.1841 71.6181 68.3458 71.9617 68.8511C71.9617 69.0734 71.9617 69.2958 71.9617 69.5181C71.6787 70.0234 71.2341 70.2053 70.6479 70.2053C48.8788 70.1851 27.1298 70.1851 5.3607 70.2053C4.77453 70.2053 4.32985 70.0234 4.04688 69.5181C4.04688 69.3362 4.04688 69.1139 4.04688 68.8915ZM54.5383 41.2607C53.9926 39.6234 53.4873 38.0671 52.9617 36.5309C52.1937 34.2266 50.6373 32.7309 48.3128 32.0235C46.2713 31.3969 44.2298 30.7501 42.1883 30.1032C39.9851 29.3958 37.7213 29.0926 35.4575 29.699C32.5671 30.4671 29.6969 31.3766 26.8671 32.3671C25.0277 33.0139 23.8149 34.449 23.1681 36.2883C22.8649 37.1373 22.582 38.0064 22.299 38.8554C22.1171 39.4011 21.9554 39.9266 21.7532 40.4926C23.3501 41.2809 24.8862 42.049 26.4426 42.8373C26.8873 41.7256 27.2915 40.7149 27.716 39.6841C27.9383 39.1586 28.3022 38.8352 28.9086 38.9564C29.4543 39.0777 29.6969 39.482 29.6969 40.0277C29.6969 40.2096 29.6969 40.3713 29.6969 40.5532C29.6969 44.9596 29.6969 49.3458 29.6969 53.7522C29.6969 54.0149 29.6969 54.2575 29.6969 54.5203C35.2958 54.5203 40.8139 54.5203 46.3724 54.5203C46.3724 54.2373 46.3724 53.9947 46.3724 53.7724C46.3724 49.366 46.3724 44.9798 46.3724 40.5735C46.3724 39.4213 46.5745 39.0373 47.2011 38.9362C47.7873 38.8352 48.1309 39.1586 48.5351 40.149C48.9596 41.2 49.3841 42.2511 49.8288 43.3426C51.4054 42.6352 52.9213 41.9681 54.5383 41.2607ZM43.3405 68.2245C43.3607 68.2245 43.4415 68.2447 43.5426 68.2447C50.3341 68.2447 57.1054 68.2447 63.8968 68.2447C64.0585 68.2447 64.2607 68.2245 64.4022 68.1234C65.2915 67.5171 65.9585 66.749 66.1405 65.6575C66.4639 63.717 65.433 62.1405 63.3915 61.5139C58.1362 59.8968 52.8809 58.3 47.6256 56.7032C47.3224 56.6022 46.9788 56.5617 46.6554 56.5617C40.8947 56.5617 35.1139 56.5617 29.3532 56.5617C29.0501 56.5617 28.7266 56.6022 28.4437 56.683C22.9256 58.3202 17.4075 59.9777 11.9096 61.6554C11.5862 61.7564 11.2224 61.999 11.0405 62.2819C10.1107 63.5958 9.96921 65.0309 10.6564 66.4862C11.3235 67.8809 12.5362 68.2447 14.0118 68.2447C22.8245 68.2245 31.6575 68.2447 40.4703 68.2245C40.6926 68.2245 40.9352 68.2043 41.1777 68.1841C40.7532 66.9309 39.7224 66.1426 38.1862 65.9405C35.3362 65.5968 32.4862 65.3139 29.616 65.0107C27.1905 64.7479 24.7852 64.5053 22.3596 64.2426C21.6724 64.1617 21.349 63.717 21.4096 63.1309C21.4703 62.5851 21.9352 62.2213 22.5618 62.2819C25.5735 62.5851 28.5852 62.949 31.5969 63.2117C34.8713 63.4947 38.1054 64.1819 41.4203 63.8181C42.1277 63.7373 42.8351 63.7171 43.5426 63.6968C44.4926 63.6564 44.9777 63.9798 44.9777 64.6468C44.9979 65.2936 44.533 65.6373 43.6234 65.6777C43.1383 65.6979 42.6735 65.7383 42.2086 65.7788C42.5926 66.6277 42.9564 67.3756 43.3405 68.2245ZM43.482 20.0777C43.482 19.1884 43.5022 18.3192 43.4617 17.4298C43.3405 14.9033 41.3192 12.8416 38.8128 12.6596C36.2256 12.4777 33.8 14.2362 33.5171 16.8033C33.2745 18.8043 33.2745 20.866 33.4362 22.8873C33.6586 25.616 35.9628 27.4756 38.7117 27.3745C41.2788 27.2735 43.3607 25.1713 43.4617 22.5235C43.5022 21.715 43.482 20.9064 43.482 20.0777ZM21.1267 42.3926C21.0256 42.6554 20.9447 42.8575 20.8841 43.0596C20.2979 44.7777 19.7118 46.4958 19.166 48.2139C18.6809 49.6894 17.8522 50.882 16.6798 51.8926C14.1937 53.9745 11.7277 56.0968 9.26177 58.2192C8.87772 58.5628 8.47347 58.9064 8.049 59.2702C9.48411 60.099 10.8586 60.099 12.2128 59.3309C14.6181 57.9968 17.0032 56.582 19.449 55.3288C21.1671 54.4394 22.4607 53.3075 23.0064 51.3873C23.2086 50.6798 23.7745 50.4373 24.3405 50.6394C24.9064 50.8617 25.0681 51.4075 24.8458 52.1351C24.2394 54.1362 23.0469 55.6522 21.1873 56.6224C21.1267 56.6426 21.0862 56.7032 20.9043 56.8649C23.1075 56.1979 25.1288 55.5713 27.1703 54.9851C27.6149 54.8639 27.6958 54.6617 27.6958 54.2575C27.6756 51.4479 27.6958 48.6383 27.6958 45.8288C27.6958 45.6873 27.6756 45.5458 27.6756 45.4245C27.4532 45.7075 27.332 45.9703 27.2309 46.2532C27.1096 46.5362 27.0086 46.8394 26.8873 47.1022C26.6043 47.7086 26.0788 47.9511 25.5532 47.7288C25.0277 47.5064 24.8256 46.9607 25.0681 46.3341C25.2703 45.7883 25.5128 45.2426 25.7352 44.6362C24.1586 43.9086 22.6628 43.1607 21.1267 42.3926ZM67.9596 59.2905C67.7777 59.1288 67.6564 58.9873 67.5351 58.8862C64.8266 56.5819 62.1383 54.2373 59.4096 51.9532C58.1766 50.9022 57.3075 49.6692 56.8224 48.1128C56.3171 46.4756 55.7309 44.8586 55.1649 43.1809C53.6085 43.8681 52.0926 44.5149 50.5362 45.2022C50.6373 45.4649 50.7181 45.6873 50.8192 45.9096C51.6883 48.0522 52.5575 50.1947 53.4064 52.3575C53.7702 53.2873 54.3564 54.0351 55.1851 54.5C58.1766 56.1979 61.1883 57.8958 64.2202 59.5128C65.4128 60.1798 66.6862 60.0181 67.9596 59.2905ZM54.9628 56.8649C54.983 56.8245 54.983 56.7841 55.0032 56.7437C54.8617 56.6628 54.7 56.5617 54.5585 56.4809C53.1234 55.6724 52.0926 54.5405 51.4862 52.9841C50.6171 50.6596 49.6469 48.3554 48.7171 46.0511C48.6362 45.849 48.5351 45.6469 48.4341 45.4447C48.3937 45.4649 48.3734 45.4649 48.333 45.4851C48.333 48.0724 48.333 50.6394 48.333 53.2266C48.333 54.8639 48.333 54.8639 49.8692 55.3288C51.5671 55.8341 53.2649 56.3394 54.9628 56.8649Z" fill="#1842B1"/>
<path d="M52.5296 65.2325C51.4987 65.2932 50.4679 65.3538 49.437 65.4145C48.7094 65.4549 48.2647 65.1113 48.2041 64.5049C48.1636 63.8783 48.5477 63.474 49.336 63.4336C51.3775 63.3123 53.419 63.1911 55.4807 63.0698C55.5817 63.0698 55.703 63.0496 55.8041 63.0698C56.4307 63.09 56.8551 63.4538 56.8753 63.9996C56.8956 64.5857 56.4913 65.0102 55.8445 65.0506C54.7126 65.1113 53.6211 65.1719 52.5296 65.2325Z" fill="#EDC400"/>
<g clip-path="url(#clip0_1446_397)">
<path d="M28.9119 34.9747C29.0744 34.2415 29.1891 33.5411 29.4089 32.8538C29.6478 32.1141 30.4601 31.7738 31.5592 31.9309C32.4289 32.0552 33.2699 32.2451 34.1969 32.4218C34.216 32.4022 34.2829 32.3171 34.3785 32.2451C35.1239 31.6363 35.812 30.9948 36.6243 30.4319C37.4462 29.8558 38.5644 29.8558 39.3958 30.4253C40.3037 31.0472 41.1065 31.7345 41.9571 32.3956C42.7408 32.2451 43.6296 32.0487 44.5375 31.9178C45.5218 31.7738 46.3628 32.1272 46.5922 32.8145C46.8216 33.5084 46.9362 34.2284 47.1083 34.9943C47.0223 34.955 47.0509 34.9747 47.0796 34.9747C48.5418 35.1121 48.991 35.4656 49.0005 36.4802C49.0483 40.3946 44.1647 43.3926 38.4879 42.9409C38.163 42.9148 37.819 42.9148 37.494 42.9409C31.7312 43.4319 26.6852 40.1851 27.0196 36.2053C27.077 35.4656 27.6217 35.1187 28.9119 34.9747ZM39.9024 42.0245C40.1891 41.9983 40.4567 41.9787 40.7243 41.9591C44.7382 41.6187 47.8346 39.0527 47.567 36.2904C47.5479 36.0678 47.4236 35.9827 47.1083 35.9762C45.9328 35.9369 44.7955 36.0678 43.6964 36.3558C43.4002 36.4344 43.2951 36.5522 43.2759 36.7617C43.2377 37.161 43.1517 37.5603 43.0561 37.9596C42.9988 38.2149 42.7503 38.3589 42.3585 38.3654C41.8424 38.372 41.5844 38.0905 41.6895 37.6715C42.3107 35.1514 41.2881 32.9978 38.5835 31.2305C38.1152 30.9228 37.9145 30.9228 37.4558 31.2239C34.6461 33.0502 33.6139 35.2692 34.3976 37.8548C34.8754 39.4455 36.1274 40.735 38.1534 41.8478C38.5931 41.5009 39.0518 41.167 39.4627 40.807C39.8546 40.4666 40.2082 40.1 40.5713 39.7466C40.7816 39.5371 41.097 39.4389 41.3932 39.5502C41.613 39.6353 41.7946 39.8382 41.8806 40.015C41.9284 40.1197 41.7851 40.2833 41.6608 40.3946C41.097 40.9314 40.514 41.4616 39.9024 42.0245ZM36.1083 41.9983C36.1083 41.9656 36.1178 41.9525 36.1083 41.946C36.0796 41.9198 36.0509 41.8936 36.0223 41.8674C33.9866 40.4208 32.878 38.6992 32.7156 36.6897C32.706 36.5849 32.5435 36.4344 32.3906 36.3951C31.282 36.0613 30.1065 35.9369 28.9024 35.9827C28.5774 35.9958 28.4245 36.0875 28.4436 36.3035C28.501 36.801 28.4914 37.3115 28.6443 37.7959C29.3802 40.159 32.6869 42.0114 36.1083 41.9983ZM33.4992 33.312C32.7442 33.168 31.9606 33.0109 31.1673 32.88C31.0718 32.8669 30.8329 32.9913 30.8137 33.0698C30.6799 33.659 30.5748 34.2481 30.4888 34.8372C30.4792 34.9027 30.6035 35.027 30.6991 35.0467C31.3776 35.171 32.0752 35.2692 32.7347 35.374C32.9736 34.7128 33.2221 34.0583 33.4992 33.312ZM43.2855 35.374C43.9449 35.2692 44.6044 35.1776 45.2447 35.0598C45.3689 35.0401 45.5409 34.9027 45.5314 34.8307C45.4549 34.2481 45.3594 33.6655 45.2256 33.0895C45.2064 33.0044 44.9484 32.8669 44.8433 32.88C44.0501 33.0109 43.2664 33.168 42.5209 33.312C42.7981 34.0583 43.0466 34.7194 43.2855 35.374Z" fill="#EDC400"/>
</g>
<defs>
<clipPath id="clip0_1446_397">
<rect width="22" height="13" fill="white" transform="translate(27 30)"/>
</clipPath>
</defs>
</svg>
