<svg width="76" height="76" viewBox="0 0 76 76" fill="none" xmlns="http://www.w3.org/2000/svg">
<path d="M9.92538 71.8982C9.72325 71.6758 9.44026 71.5141 9.29877 71.2514C8.99558 70.645 9.42004 69.9577 10.1073 69.8971C10.4913 69.8567 10.8956 69.8971 11.3403 69.8971C11.3403 62.4992 11.3403 55.1418 11.3403 47.8046C10.9764 47.6631 10.5924 47.5418 10.2286 47.3801C8.369 46.4503 7.37855 44.9343 7.27749 42.8524C7.23707 41.9429 7.78281 41.4173 8.69238 41.3971C8.75302 41.3971 8.83387 41.3971 8.89451 41.3971C9.92536 41.3769 11.1179 41.6801 11.9669 41.2758C13.1392 40.7099 14.0488 39.5982 15.0392 38.6886C15.2009 38.5471 15.2818 38.2844 15.3222 38.0418C15.5041 37.1726 15.6456 36.3035 15.8275 35.4344C15.969 34.7673 16.4339 34.4035 16.9796 34.5046C17.5658 34.6056 17.8892 35.0907 17.7679 35.8184C17.586 36.8695 17.4445 37.9205 17.1817 38.9312C17.0807 39.3556 16.7573 39.7397 16.4743 40.0833C16.0903 40.5078 15.6052 40.8716 15.1403 41.2961C17.6669 41.7205 18.8392 40.3258 19.1424 38.628C19.8903 34.3631 20.7796 30.1386 21.6083 25.8939C21.77 25.1056 22.1743 24.6812 22.8009 24.7014C23.4477 24.7418 23.8317 25.2269 23.852 26.0556C23.9732 29.3705 24.1147 32.6854 24.236 36.0003C24.236 36.1014 24.2562 36.2226 24.2562 36.3641C28.1168 36.3641 31.9371 36.3641 35.8381 36.3641C35.8381 36.0812 35.8381 35.8184 35.8381 35.5556C35.8381 32.5035 35.8381 29.4514 35.8381 26.3993C35.8381 25.4897 36.3232 24.9844 37.0913 25.0652C37.7179 25.1258 37.9807 25.5301 38.1424 26.0961C38.9307 29.1482 39.719 32.2003 40.5073 35.2727C40.8307 36.4854 41.1339 37.7184 41.437 38.9312C41.9019 40.7907 42.852 41.4982 44.9137 41.3769C44.6913 41.1748 44.57 41.0131 44.4083 40.912C43.7413 40.4269 43.4179 39.7801 43.2562 38.9716C42.1849 33.7769 41.0934 28.6024 39.9817 23.428C39.4764 21.1237 38.1222 19.4663 35.9796 18.4759C35.2115 18.1322 34.4435 17.7886 33.6754 17.4854C32.7254 17.1014 31.7956 16.7982 30.7243 16.9801C29.6328 17.162 28.5009 16.6567 27.3892 17.1418C26.136 17.6876 24.8222 18.112 23.6094 18.7386C21.2647 19.9312 20.2541 22.0333 19.8498 24.5599C19.5062 26.8035 19.0413 29.0269 18.6371 31.2705C18.6169 31.3716 18.5966 31.4929 18.5562 31.5939C18.3945 32.1599 17.9296 32.4833 17.4243 32.3822C16.8786 32.2812 16.5147 31.7961 16.636 31.2099C17.1818 28.279 17.6062 25.328 18.3339 22.4376C19.0413 19.5876 20.9615 17.6471 23.6701 16.5152C24.519 16.1514 25.3679 15.8078 26.3179 15.4035C25.1658 14.0897 25.186 12.5535 25.2062 10.9971C25.2264 10.1078 25.186 9.21841 25.2466 8.34926C25.3881 6.24714 26.6817 4.73118 28.703 4.16522C28.8041 4.14501 28.9051 4.08437 28.986 4.04395C29.7743 4.04395 30.5828 4.04395 31.3711 4.04395C31.5732 4.1248 31.7754 4.20565 31.9775 4.26629C33.7966 4.87267 35.0296 6.44926 35.0903 8.36947C35.1307 9.80458 35.1105 11.2397 35.0903 12.6748C35.0903 13.7056 34.6658 14.595 33.9988 15.4642C34.9083 15.8482 35.7775 16.2322 36.6668 16.6163C39.3956 17.8493 41.1743 19.8907 41.8817 22.8216C42.3062 24.6003 42.6498 26.3993 43.0339 28.1982C43.7615 31.6344 44.469 35.0705 45.2169 38.4865C45.2977 38.8301 45.52 39.2141 45.803 39.4567C46.5509 40.1439 47.2583 41.0131 48.1679 41.3365C49.0371 41.6599 50.1285 41.4173 51.119 41.4173C56.4753 41.4173 61.8317 41.4173 67.1881 41.4173C68.5221 41.4173 69.0073 41.9226 68.8658 43.2567C68.6232 45.4195 67.4307 46.8546 65.4296 47.6429C65.2275 47.7237 65.0051 47.7843 64.803 47.845C64.803 55.2024 64.803 62.5194 64.803 69.9375C65.086 69.9375 65.3488 69.9577 65.6115 69.9375C66.1977 69.9173 66.7434 69.978 66.9456 70.645C67.1477 71.312 66.7232 71.6556 66.2179 71.9588C47.4403 71.8982 28.6828 71.8982 9.92538 71.8982ZM62.7413 47.8854C62.3977 47.8854 62.1349 47.8854 61.8722 47.8854C56.3137 47.8854 50.7552 47.8854 45.1966 47.8854C44.9339 47.8854 44.6509 47.9056 44.4083 47.845C43.903 47.7035 43.62 47.3599 43.6605 46.8141C43.7009 46.2684 44.0243 45.9854 44.5498 45.9248C44.7519 45.9046 44.9541 45.9248 45.136 45.9248C49.9466 45.9248 54.7573 45.9248 59.5679 45.9248C60.9424 45.9248 62.2966 45.945 63.6711 45.9248C65.2679 45.9046 66.5009 44.8939 66.7636 43.4386C57.7083 43.4386 48.653 43.4386 39.5775 43.4386C39.5977 43.6003 39.5977 43.7418 39.6381 43.8631C40.5275 46.1269 40.5073 48.4918 40.4466 50.8567C40.4264 52.0492 40.0222 52.696 38.9105 53.0397C37.5764 53.4641 36.202 53.828 34.8477 54.1514C34.4232 54.2524 34.1605 54.4141 33.9381 54.8184C33.4328 55.7684 32.8669 56.6982 32.402 57.6684C32.2403 57.9918 32.1796 58.4365 32.2605 58.7599C32.786 60.862 33.3317 62.9439 33.9381 65.0258C34.3222 66.3599 34.0796 67.4514 33.1296 68.4418C32.7051 68.8865 32.3413 69.3514 31.8966 69.8971C42.2658 69.8971 52.4732 69.8971 62.7413 69.8971C62.7413 62.5194 62.7413 55.2429 62.7413 47.8854ZM13.4424 47.9056C13.4424 55.2631 13.4424 62.5397 13.4424 69.8365C15.8477 69.8365 18.2126 69.8365 20.6381 69.8365C20.2339 69.0077 20.4966 68.2801 20.82 67.5726C22.1743 64.5812 23.5083 61.5694 24.8222 58.5577C24.9435 58.2748 24.9434 57.8705 24.8626 57.5673C24.519 56.5567 24.0743 55.6067 23.7307 54.596C23.5488 54.0907 23.286 53.828 22.7403 53.7067C21.8913 53.5046 21.0424 53.2216 20.2137 52.9184C19.3849 52.6152 18.9403 52.0088 18.8998 51.1194C18.8796 50.695 18.8998 50.2705 18.8998 49.8663C18.8998 49.2195 18.8998 48.5726 18.8998 47.9056C16.9998 47.9056 15.2413 47.9056 13.4424 47.9056ZM30.6435 52.6354C30.6637 52.5343 30.6839 52.5141 30.6637 52.4939C30.5424 52.2514 30.4211 52.029 30.2998 51.7865C29.2285 49.7854 28.8849 47.7035 29.6328 45.5205C30.0169 44.3886 30.5424 43.2769 31.0881 42.2056C31.6339 41.1748 31.9169 40.1237 31.8966 38.9716C31.8966 38.4663 31.7147 38.345 31.2296 38.345C29.0062 38.3652 26.7828 38.3652 24.5392 38.345C24.0743 38.345 23.8924 38.5269 23.7509 38.9312C23.1243 40.7705 22.5584 42.6301 21.7701 44.4088C20.8807 46.4301 20.7594 48.4918 20.8807 50.6343C20.8807 50.8365 21.0828 51.1194 21.2647 51.1801C24.2966 52.2716 27.4094 52.7365 30.6435 52.6354ZM33.8371 38.3652C33.8371 38.9918 33.8775 39.5375 33.8371 40.0631C33.736 41.4173 33.1296 42.5695 32.4828 43.7418C30.6232 47.1982 30.8658 49.3205 32.786 52.0088C32.9073 52.1907 33.2307 52.3929 33.3924 52.3524C34.9488 51.9886 36.5051 51.5843 38.0615 51.1801C38.203 51.1397 38.4254 50.9375 38.4254 50.8163C38.4254 49.4418 38.5871 48.0269 38.3041 46.7333C37.7179 44.045 36.8892 41.4173 36.1211 38.7695C36.0807 38.6078 35.8381 38.4258 35.6966 38.4056C35.1307 38.345 34.5445 38.3652 33.8371 38.3652ZM33.1296 10.4716C33.1296 9.76415 33.17 9.05671 33.1296 8.34926C33.069 7.05565 32.0381 6.04501 30.7243 5.96416C30.4615 5.94394 30.1988 5.96416 29.936 5.96416C28.319 5.98437 27.2679 6.9748 27.2073 8.5716C27.1669 9.82479 27.1669 11.0982 27.2073 12.3514C27.2477 13.7259 28.0562 14.7163 29.3296 14.9184C29.9562 15.0195 30.603 14.979 31.2296 14.8578C32.3211 14.6354 33.069 13.7056 33.1094 12.5939C33.1498 11.8865 33.1296 11.179 33.1296 10.4716ZM28.7839 69.5333C28.8243 69.5737 28.8445 69.6141 28.8849 69.6545C29.1275 69.5131 29.4307 69.4322 29.6126 69.2503C30.4413 68.4014 31.2498 67.512 32.0179 66.6226C32.1594 66.4609 32.1796 66.0971 32.119 65.8748C31.1488 62.2567 30.1583 58.6386 29.1679 55.0205C29.1275 54.879 28.986 54.6769 28.8647 54.6769C27.8541 54.5758 26.8637 54.5152 25.7924 54.4343C25.8732 54.6769 25.9339 54.8588 25.9945 55.0407C27.2881 58.3556 28.5413 61.6705 29.8552 64.9652C30.1179 65.6322 30.1381 66.2184 29.8349 66.8652C29.4509 67.7141 29.1275 68.6439 28.7839 69.5333ZM9.44027 43.3982C9.56155 44.712 10.835 45.8439 12.3509 45.8843C14.4935 45.9248 16.636 45.9046 18.7786 45.8843C18.92 45.8843 19.1626 45.8035 19.203 45.7024C19.5062 44.9546 19.769 44.1865 20.052 43.378C16.4743 43.3982 12.9775 43.3982 9.44027 43.3982ZM22.4169 68.8662C23.6296 68.5428 24.3977 67.9365 24.903 66.9865C25.5296 65.8546 26.1562 64.7024 26.7828 63.5705C26.8637 63.429 27.0051 63.2269 26.9647 63.0854C26.702 62.3173 26.3988 61.5694 26.0551 60.6599C24.802 63.4897 23.6498 66.1173 22.4169 68.8662ZM38.9913 41.3365C39.3956 41.3365 39.7998 41.3365 40.0828 41.3365C39.3754 38.6886 38.6477 36.0205 37.9201 33.2918C37.536 35.212 37.9807 38.4461 38.9913 41.3365ZM20.2945 41.2758C20.3349 41.3365 20.3754 41.4173 20.4158 41.478C20.5977 41.2961 20.8403 41.1546 20.9211 40.9524C21.3456 39.8812 21.7498 38.8099 22.0935 37.7184C22.4573 36.5258 22.1541 35.3131 22.0935 34.1205C21.3658 36.4854 21.3658 39.012 20.2945 41.2758ZM28.0966 65.8141C28.0562 65.7939 28.0158 65.7737 27.9754 65.7535C27.086 67.128 26.1966 68.5226 25.3073 69.8971C25.4488 69.8971 25.7115 69.9173 25.9541 69.8971C26.1764 69.8567 26.4998 69.8163 26.5605 69.6748C27.1062 68.3811 27.5913 67.0875 28.0966 65.8141Z" fill="#1842B1"/>
<path d="M63.4099 34.0212C63.4301 32.667 63.8546 31.434 64.5822 30.2818C65.2291 29.251 65.8961 28.2404 65.9971 26.9669C66.1184 25.5318 65.9163 24.1776 65.0674 22.985C63.794 21.1861 63.1674 19.2052 63.4301 17.002C63.4706 16.7393 63.511 16.4765 63.5514 16.2137C63.7131 15.4052 64.178 15.001 64.7844 15.1223C65.411 15.2435 65.5727 15.7691 65.5323 16.5978C65.4716 17.6286 65.411 18.6797 65.6333 19.6701C65.8152 20.4786 66.3408 21.2265 66.7854 21.9542C68.0184 23.8946 68.3418 25.9967 67.7557 28.1797C67.4727 29.2712 66.8461 30.2616 66.2801 31.2521C65.7748 32.1616 65.411 33.0712 65.3705 34.1223C65.3301 35.0723 64.9461 35.4967 64.2588 35.4361C63.6322 35.4159 63.3695 34.9712 63.4099 34.0212Z" fill="#EDC400"/>
<path d="M60.4022 9.84831C60.3618 11.5866 59.9171 12.86 59.1692 14.0324C58.5426 15.0026 57.9363 15.9526 57.815 17.1653C57.6735 18.6004 57.8756 19.9345 58.6639 21.1675C59.432 22.3398 60.1597 23.5324 60.3214 24.9473C60.3618 25.3919 60.4022 25.8366 60.4022 26.2611C60.4022 26.7866 60.099 27.1302 59.5735 27.2111C59.0075 27.2919 58.6437 27.009 58.482 26.4632C58.482 26.443 58.4618 26.4228 58.4618 26.4026C58.5629 24.5632 57.4916 23.1685 56.6831 21.6526C55.349 19.1058 55.4501 16.5185 56.8448 13.9919C57.3501 13.0824 57.815 12.1728 58.2395 11.2228C58.381 10.8994 58.3809 10.4951 58.4011 10.1111C58.4618 9.18129 58.8054 8.7164 59.4724 8.75682C60.1192 8.79725 60.4022 9.24193 60.4022 9.84831Z" fill="#EDC400"/>
<path d="M52.7283 26.1383C52.7688 27.6947 52.4454 29.0894 51.6166 30.3223C50.7475 31.6362 50.0401 32.9702 50.0401 34.6074C50.0401 35.1936 49.5549 35.517 49.0092 35.4766C48.4432 35.4362 48.0996 35.0117 48.0996 34.3851C48.1198 33.0308 48.4028 31.7574 49.1305 30.6053C49.373 30.2011 49.6358 29.817 49.8581 29.4128C51.0911 27.3308 51.0911 25.2287 49.8783 23.1468C49.7975 22.9851 49.6964 22.8436 49.5954 22.7021C49.3124 22.1564 49.4337 21.5904 49.8986 21.3074C50.3837 21.0042 50.9092 21.1457 51.273 21.6713C52.2432 23.0053 52.789 24.5213 52.7283 26.1383Z" fill="#EDC400"/>
<path d="M52.6965 10.2061C52.6763 11.5603 52.272 12.8135 51.5242 13.9455C50.6954 15.1986 50.0486 16.4923 50.0486 18.0486C50.0486 18.655 49.5433 19.0189 48.9976 18.9784C48.4518 18.9178 48.088 18.4933 48.1082 17.8667C48.1284 16.4316 48.5125 15.0976 49.2603 13.8444C49.7657 12.9752 50.2103 12.0657 50.5944 11.1359C50.7561 10.7721 50.7157 10.3072 50.7561 9.9029C50.8369 9.15503 51.2008 8.75077 51.7869 8.77099C52.4135 8.7912 52.7571 9.23588 52.7369 10.0242C52.7167 10.0646 52.6965 10.1455 52.6965 10.2061Z" fill="#EDC400"/>
<path d="M55.7512 34.1801C55.7108 32.1588 56.681 30.5418 57.7927 28.9652C58.1161 28.5003 58.6214 28.4397 59.0863 28.7631C59.5512 29.0663 59.6927 29.5312 59.43 30.0365C59.2076 30.4609 58.9448 30.8652 58.6821 31.2695C58.0757 32.179 57.7927 33.1695 57.7321 34.2609C57.6917 35.0897 57.3278 35.5141 56.6608 35.4737C56.0544 35.4131 55.731 34.9684 55.7512 34.1801Z" fill="#EDC400"/>
<path d="M68.1342 10.1306C67.8512 11.1008 67.6288 12.071 67.2852 13.021C67.0629 13.6476 66.4767 13.8497 65.9512 13.6274C65.4257 13.405 65.2842 12.8795 65.4661 12.2327C65.6884 11.4848 65.8703 10.7167 65.9916 9.92843C66.1129 9.14014 66.4363 8.73588 67.0427 8.75609C67.6693 8.79652 68.0331 9.28163 68.1342 10.1306Z" fill="#EDC400"/>
</svg>
