<svg width="59" height="59" viewBox="0 0 59 59" fill="none" xmlns="http://www.w3.org/2000/svg">
<path d="M43.1778 3.88208C43.2528 3.90708 43.3278 3.95709 43.4028 3.98209C45.1779 4.43213 46.3531 5.83226 46.3531 7.65742C46.3781 12.4829 46.3531 17.3333 46.3531 22.1587C46.3531 22.8588 45.953 23.2838 45.353 23.2838C44.7279 23.2838 44.3529 22.8588 44.3529 22.1087C44.3529 17.4333 44.3529 12.7329 44.3529 8.05746C44.3529 6.50732 43.7278 5.88226 42.1527 5.88226C36.0021 5.88226 29.8516 5.88226 23.701 5.88226C22.2759 5.88226 21.6258 6.53232 21.6258 7.95745C21.6258 18.5084 21.6258 29.0593 21.6258 39.6103C21.6258 40.1603 21.7258 40.6604 22.1259 41.0854C22.5759 41.5605 23.326 41.7605 23.876 41.5355C24.6011 41.2354 24.9511 40.6604 24.9761 39.8853C24.9761 38.1352 24.9761 36.385 24.9761 34.6348C24.9761 33.7848 25.1761 32.9847 25.6762 32.2846C26.6763 30.8095 28.4514 30.1844 30.1016 30.6595C31.7767 31.1595 33.0019 32.7347 33.0019 34.5098C33.0269 38.5852 33.0269 42.6856 33.0269 46.7609C33.0269 46.961 33.0269 47.161 33.0269 47.386C33.2519 47.386 33.4019 47.411 33.5769 47.411C36.5022 47.411 39.4524 47.411 42.3777 47.411C43.7028 47.411 44.4029 46.7109 44.4029 45.3608C44.4029 40.7854 44.4029 36.235 44.4029 31.6596C44.4029 31.4846 44.4029 31.2845 44.4029 31.1095C44.4529 30.6095 44.8279 30.2345 45.303 30.2094C45.778 30.1844 46.203 30.4595 46.328 30.9345C46.378 31.1345 46.3781 31.3346 46.3781 31.5346C46.3781 36.16 46.3781 40.8104 46.3781 45.4358C46.3781 47.811 44.7779 49.4112 42.3777 49.4112C39.4524 49.4112 36.5522 49.4112 33.6269 49.4112C33.4519 49.4112 33.2519 49.4112 33.0019 49.4112C33.0019 50.1862 33.0019 50.9363 33.0019 51.6614C33.0269 52.7115 32.7768 53.6866 32.2768 54.5866C32.0518 54.9867 31.6767 55.1617 31.2267 55.0867C30.7766 54.9867 30.4766 54.6866 30.4266 54.2366C30.4016 54.0116 30.5266 53.7616 30.5766 53.5115C30.7266 52.9115 30.9767 52.3364 30.9767 51.7364C31.0017 46.0359 30.9767 40.3354 30.9767 34.6348C30.9767 33.5598 30.2266 32.6597 29.2265 32.5097C28.2764 32.3846 27.3263 33.0097 27.0513 33.9598C26.9763 34.2098 26.9763 34.4848 26.9763 34.7599C26.9763 36.485 26.9763 38.1852 26.9763 39.9103C26.9513 42.1855 25.1261 43.8357 22.9009 43.6357C21.2258 43.4606 19.7507 41.9855 19.7007 40.2604C19.6506 38.3352 19.6757 36.385 19.6757 34.4598C19.6757 34.2848 19.6757 34.1098 19.6757 33.7848C19.5006 33.9848 19.4006 34.0848 19.3256 34.1848C18.1005 35.785 16.8504 37.3851 15.6253 38.9852C14.1252 40.9354 14.0501 42.9356 15.3753 45.0108C17.1754 47.811 18.9756 50.5863 20.7507 53.3865C21.1508 53.9866 21.1258 54.4866 20.6757 54.8617C20.1757 55.3117 19.5256 55.1617 19.0756 54.4866C17.7505 52.4364 16.4254 50.3613 15.1002 48.3111C14.5752 47.511 14.0752 46.7109 13.5501 45.9109C11.95 43.4106 12.05 40.4104 13.8251 38.0602C15.6253 35.6849 17.4505 33.3597 19.2756 31.0095C19.5506 30.6595 19.6757 30.2845 19.6757 29.8344C19.6507 22.7588 19.7007 15.6581 19.6507 8.5825C19.6256 6.3573 20.3257 4.63215 22.8009 3.93208C29.5765 3.88208 36.3772 3.88208 43.1778 3.88208Z" fill="#1842B1"/>
<path d="M29.9429 18.7082C30.6679 17.5581 31.343 16.483 32.018 15.4079C32.5931 14.5078 33.3682 14.5328 33.9432 15.4079C34.6183 16.483 35.3183 17.5831 36.0184 18.7082C37.1435 17.6581 38.4936 17.0081 39.8688 16.333C40.7688 15.908 41.3939 16.208 41.5439 17.1831C41.7439 18.7082 42.0439 20.2083 41.6939 21.7585C41.3439 23.2586 40.6688 24.5837 39.6937 25.7338C38.7436 26.8339 37.5185 27.409 36.0434 27.434C34.0182 27.459 31.968 27.459 29.9429 27.434C28.2427 27.409 26.9176 26.6339 25.9175 25.2838C24.3424 23.1336 23.8173 20.7584 24.3173 18.1332C24.3674 17.8081 24.4174 17.4831 24.4674 17.1331C24.6174 16.258 25.2424 15.908 26.0425 16.308C27.3926 16.958 28.7928 17.6081 29.9429 18.7082ZM32.8431 17.6581C32.3431 18.6582 31.768 19.6083 31.393 20.6334C30.968 21.8585 30.9179 23.1586 31.443 24.3837C31.743 25.0838 32.3431 25.4338 33.0681 25.3838C33.7432 25.3338 34.3683 24.9088 34.5183 24.2087C34.6683 23.4836 34.7933 22.7336 34.7683 22.0085C34.7933 20.3584 33.9182 19.0332 32.8431 17.6581ZM26.2925 18.6582C25.8175 21.0334 26.4925 23.0336 28.1427 24.7087C28.5177 25.0838 29.0928 25.2338 29.5928 25.4838C29.6178 25.4338 29.6678 25.3838 29.6928 25.3588C29.1678 23.9837 29.0428 22.5586 29.2428 21.1084C29.2678 21.0084 29.1928 20.8584 29.1178 20.7584C28.3427 19.8333 27.3926 19.1832 26.2925 18.6582ZM36.2934 25.3338C36.3184 25.3838 36.3684 25.4338 36.3934 25.4838C36.8935 25.2088 37.4935 25.0338 37.8686 24.6587C38.3686 24.1587 38.7687 23.5336 39.0937 22.9086C39.7687 21.5835 39.8938 20.1583 39.6687 18.6582C38.6186 19.1082 37.7686 19.7083 37.0435 20.5084C36.8185 20.7584 36.7185 21.0084 36.7685 21.3584C36.9435 22.7336 36.7935 24.0587 36.2934 25.3338Z" fill="#EDC400"/>
<path d="M32.9719 12.0577C30.4467 12.0577 27.8964 12.0577 25.3712 12.0577C24.5711 12.0577 24.1461 11.6826 24.1211 11.0576C24.1211 10.5325 24.4711 10.1325 24.9712 10.0575C25.1462 10.0325 25.2962 10.0325 25.4712 10.0325C30.4467 10.0325 35.4471 10.0325 40.4226 10.0325C41.3477 10.0325 41.8227 10.3575 41.8227 11.0076C41.8227 11.6826 41.3477 12.0327 40.3976 12.0327C37.9473 12.0577 35.4721 12.0577 32.9719 12.0577Z" fill="#1842B1"/>
<path d="M38.588 42.5109C37.8879 42.5109 37.1879 42.5109 36.4878 42.5109C35.8127 42.5109 35.3877 42.1359 35.3877 41.5358C35.3627 40.9358 35.8127 40.5107 36.4878 40.5107C37.9129 40.5107 39.3381 40.5107 40.7882 40.5107C41.4383 40.5107 41.8633 40.9358 41.8883 41.5108C41.8883 42.0859 41.4383 42.5109 40.8132 42.5109C40.0631 42.5109 39.3131 42.5109 38.588 42.5109Z" fill="#1842B1"/>
<path d="M38.6288 35.4849C39.3539 35.4849 40.0539 35.4849 40.779 35.4849C41.4041 35.4849 41.8541 35.9099 41.8541 36.485C41.8541 37.06 41.4041 37.485 40.754 37.485C39.3289 37.485 37.9037 37.485 36.4536 37.485C35.8036 37.485 35.3785 37.085 35.3535 36.51C35.3535 35.9099 35.7786 35.5099 36.4536 35.4849C37.2037 35.4849 37.9037 35.4849 38.6288 35.4849Z" fill="#1842B1"/>
<path d="M38.6267 30.4845C39.3518 30.4845 40.0519 30.4845 40.7769 30.4845C41.427 30.4845 41.877 30.9095 41.877 31.4596C41.877 32.0346 41.452 32.4597 40.8019 32.4597C39.3518 32.4847 37.9017 32.4847 36.4515 32.4597C35.8015 32.4597 35.3764 32.0096 35.4014 31.4346C35.4014 30.8595 35.8265 30.4595 36.5015 30.4595C37.1766 30.4595 37.9017 30.4845 38.6267 30.4845Z" fill="#1842B1"/>
<path d="M46.3498 26.706C46.3498 27.231 45.8997 27.6811 45.3497 27.6811C44.7996 27.6811 44.3746 27.2561 44.3496 26.706C44.3496 26.156 44.7996 25.6809 45.3497 25.6809C45.8997 25.7059 46.3498 26.181 46.3498 26.706Z" fill="#1842B1"/>
</svg>
