<svg width="59" height="59" viewBox="0 0 59 59" fill="none" xmlns="http://www.w3.org/2000/svg">
<path d="M2.33203 7.59979C2.38513 7.41396 2.46475 7.20158 2.51785 7.01575C3.07534 5.21055 4.72127 3.90975 6.57956 3.90975C12.4996 3.8832 18.4461 3.90975 24.3661 3.90975C25.0563 3.90975 25.5076 4.3345 25.5076 4.97163C25.5076 5.63531 25.0298 6.03351 24.2599 6.03351C18.4726 6.03351 12.6854 6.03351 6.89811 6.03351C5.6504 6.03351 4.74781 6.69719 4.48234 7.83871C4.42924 8.05109 4.42924 8.26347 4.42924 8.47584C4.42924 19.015 4.42924 29.5277 4.42924 40.0668C4.42924 40.1996 4.42924 40.3323 4.42924 40.5181C21.1539 40.5181 37.8254 40.5181 54.5501 40.5181C54.5501 40.3058 54.5501 40.1199 54.5501 39.9341C54.5501 29.5011 54.5501 19.0947 54.5501 8.66167C54.5501 6.93611 53.6475 6.03351 51.9485 6.03351C46.055 6.03351 40.1616 6.03351 34.2681 6.03351C34.0823 6.03351 33.923 6.03351 33.7372 6.03351C33.1532 5.98042 32.755 5.55567 32.755 4.97163C32.755 4.41414 33.1532 3.96284 33.7372 3.90975C33.8965 3.8832 34.0558 3.90975 34.215 3.90975C40.135 3.90975 46.0285 3.90975 51.9485 3.90975C54.8421 3.90975 56.7004 5.7415 56.7004 8.66167C56.7004 22.5458 56.7004 36.4564 56.7004 50.3406C56.7004 53.2607 54.8687 55.119 51.9219 55.119C37.0025 55.119 22.083 55.119 7.16358 55.119C4.58852 55.119 3.10188 53.9775 2.38511 51.4821C2.38511 51.4555 2.33203 51.429 2.33203 51.4024C2.33203 36.775 2.33203 22.1741 2.33203 7.59979ZM4.4558 42.6685C4.4558 42.8543 4.4558 42.987 4.4558 43.1198C4.4558 45.5886 4.4558 48.031 4.4558 50.4998C4.4558 51.9865 5.41149 52.9422 6.92467 52.9422C21.9769 52.9422 37.029 52.9422 52.1078 52.9422C53.6475 52.9422 54.6032 52.013 54.6032 50.4733C54.6032 48.031 54.6032 45.5886 54.6032 43.1463C54.6032 42.987 54.5766 42.8277 54.5766 42.6685C37.852 42.6685 21.207 42.6685 4.4558 42.6685Z" fill="#1842B1"/>
<path d="M33.1388 13.9188C33.2184 13.6268 33.2715 13.3348 33.3512 13.0428C33.829 11.4765 34.7847 10.335 36.2713 9.67131C37.3598 9.19346 38.3951 8.60943 39.6163 8.52978C42.0586 8.3705 44.3682 9.88368 45.1115 12.1933C45.8548 14.5294 44.8991 17.2372 42.7223 18.4318C41.2622 19.2283 39.7755 20.0247 38.0234 19.8388C37.6783 19.8123 37.3598 19.7592 36.9616 19.6796C36.935 19.8388 36.935 19.9716 36.935 20.1308C36.935 21.644 36.935 23.1307 36.935 24.6439C36.935 25.0155 37.0147 25.2013 37.4129 25.281C38.3155 25.4668 39.1915 25.7323 40.0941 25.9181C41.1825 26.157 42.0851 26.6349 42.6692 27.6437C43.4125 27.2189 44.1558 26.98 45.0053 27.1127C46.8105 27.3782 48.0317 29.1038 47.6335 30.8824C47.4477 31.7054 47.2353 32.5283 47.0229 33.3513C46.8105 34.1477 46.5716 34.9441 46.3327 35.7936C47.1822 35.7936 48.0582 35.7936 48.9077 35.7936C49.1467 35.7936 49.4121 35.7936 49.6511 35.8733C50.1289 36.006 50.4209 36.4573 50.3678 36.9617C50.3147 37.4395 49.9696 37.8112 49.4918 37.8908C49.3059 37.9174 49.0936 37.9174 48.9077 37.9174C35.9262 37.9174 22.9182 37.9174 9.93665 37.9174C9.85701 37.9174 9.75082 37.9174 9.67118 37.9174C8.92786 37.8908 8.47656 37.4926 8.47656 36.8555C8.47656 36.2184 8.92786 35.7936 9.67118 35.7936C10.7862 35.7671 11.9011 35.7936 13.0161 35.7936C13.1754 35.7936 13.3612 35.7671 13.6001 35.7671C13.5205 35.6609 13.4674 35.6078 13.4409 35.5547C9.85701 32.0239 9.83046 25.6792 13.786 22.0953C15.5115 20.5291 17.4229 19.1752 19.3343 17.8478C21.1926 16.5735 23.1571 15.5117 25.095 14.3436C27.617 12.8304 30.2186 12.618 32.8999 13.8657C32.9795 13.8923 33.0326 13.8923 33.1388 13.9188ZM38.2624 32.5814C36.8819 32.4221 35.5811 32.2629 34.2538 32.077C30.3513 31.5992 26.4755 31.0948 22.573 30.6435C21.2457 30.4842 19.998 30.1922 18.8565 29.4489C17.2636 28.4135 15.5912 27.5109 13.9718 26.5552C13.8125 26.4491 13.6532 26.3694 13.4674 26.2898C11.8215 30.378 14.1311 35.8467 19.6263 35.7936C25.6525 35.7405 31.6521 35.7671 37.6783 35.7671C37.8642 35.7671 38.05 35.7671 38.2624 35.7671C38.2624 34.6786 38.2624 33.6699 38.2624 32.5814ZM31.4663 15.5382C29.608 14.9276 27.9621 15.1135 26.3693 16.0426C24.6703 17.0514 22.9447 18.0336 21.2988 19.1221C19.5201 20.2901 17.8211 21.5378 16.1221 22.8121C15.5381 23.2634 15.0602 23.874 14.5027 24.4315C16.5469 25.6261 18.5644 26.8207 20.582 27.9888C20.6882 28.0684 20.9537 27.9888 21.0864 27.9091C23.5553 26.3694 26.0242 24.8297 28.4931 23.2634C28.6523 23.1572 28.8116 22.8917 28.8116 22.6794C28.8382 21.8033 28.8382 20.9538 28.8116 20.0778C28.7851 18.0602 29.5284 16.5205 31.4663 15.5382ZM31.6521 25.9712C31.6521 26.4491 31.6521 26.8738 31.6521 27.272C31.6787 28.5463 32.6609 29.7143 33.9352 29.9002C35.7935 30.1656 37.6518 30.378 39.5101 30.5904C39.8021 30.6169 40.1738 30.5108 40.4392 30.3515C40.8374 30.086 41.0498 29.6612 40.9702 29.1569C40.864 28.6259 40.5454 28.2543 40.0145 28.1215C38.8729 27.8295 37.7314 27.5375 36.5634 27.272C35.8997 27.1127 35.3953 26.8207 35.0502 26.2367C34.9971 26.1305 34.8643 25.9978 34.7582 25.9978C33.7494 25.9447 32.714 25.9712 31.6521 25.9712ZM34.7847 23.8209C34.7847 22.3077 34.8112 20.8211 34.7847 19.361C34.7581 18.246 33.9352 17.4761 32.953 17.4761C31.8645 17.4761 31.0681 18.1929 31.015 19.361C30.9619 20.768 30.9885 22.2015 30.9885 23.6085C30.9885 23.6616 31.015 23.7413 31.0416 23.8209C32.2627 23.8209 33.5104 23.8209 34.7847 23.8209ZM40.4127 35.7671C41.2622 35.7671 42.0321 35.8202 42.7754 35.7405C43.7045 35.6609 44.3416 35.0768 44.6071 34.2008C44.9522 33.0062 45.2442 31.785 45.5363 30.5638C45.669 30.0064 45.4301 29.5285 44.9788 29.3161C44.5275 29.1038 44.0231 29.2365 43.678 29.6878C43.3063 30.1656 42.9346 30.6435 42.6161 31.1479C42.1382 31.8647 41.5277 32.3956 40.7047 32.6611C40.5985 32.6876 40.4658 32.8469 40.4658 32.9265C40.3861 33.8291 40.4127 34.7848 40.4127 35.7671ZM41.1029 16.8656C40.4658 15.8037 39.8817 14.7949 39.2446 13.7861C39.1119 13.6003 38.8729 13.3879 38.634 13.3614C37.6783 13.1755 36.7226 13.0428 35.7138 12.91C35.1564 13.8392 35.1033 14.8745 35.6077 15.9364C36.1386 17.0248 37.0412 17.6089 38.2358 17.7151C39.3242 17.8213 40.2003 17.2372 41.1029 16.8656ZM28.9443 25.4934C27.325 26.5021 25.7056 27.5375 24.0597 28.5728C24.0862 28.5994 24.0862 28.6525 24.1128 28.679C26.0507 28.9179 28.0152 29.1569 30.0062 29.3958C29.8469 28.8648 29.6877 28.4135 29.608 27.9622C29.5284 27.4844 29.5284 27.0065 29.5549 26.5287C29.5549 26.0774 29.4753 25.7323 28.9443 25.4934ZM42.7754 15.4586C43.6249 13.9454 43.2532 12.2729 42.0055 11.2907C41.156 10.627 39.3773 10.2819 38.3155 11.211C39.8817 11.1845 40.8109 12.0074 41.4215 13.3348C41.7666 14.0516 42.271 14.7152 42.7754 15.4586Z" fill="#1842B1"/>
<path d="M29.1955 6.00685C28.6114 6.00685 28.1602 5.50245 28.1602 4.94497C28.1602 4.36093 28.6645 3.85654 29.2486 3.88308C29.8061 3.90963 30.2839 4.41402 30.2574 4.97151C30.2308 5.529 29.753 6.00685 29.1955 6.00685Z" fill="#1842B1"/>
<path d="M35.0162 48.88C29.9457 48.88 24.9017 48.88 19.8312 48.88C19.4065 48.88 19.1941 48.9862 18.9817 49.3844C18.3711 50.579 17.3358 51.1631 16.0085 51.1631C14.6811 51.1631 13.6723 50.5525 13.0617 49.3579C12.8759 49.0128 12.6901 48.88 12.2919 48.88C10.9911 48.9066 9.6637 48.9066 8.3629 48.88C7.56648 48.88 7.11518 48.3756 7.16828 47.712C7.24792 47.1279 7.64614 46.7828 8.30981 46.7828C9.63717 46.7828 10.9645 46.7828 12.2919 46.7828C12.6104 46.7828 12.8228 46.7297 12.9821 46.3846C13.5927 45.1369 14.6015 44.4732 15.9819 44.4732C17.3624 44.4467 18.3977 45.0838 19.0083 46.3315C19.1941 46.7032 19.4065 46.8094 19.8047 46.8094C29.8926 46.8094 39.9805 46.8094 50.0684 46.8094C50.3073 46.8094 50.5196 46.8094 50.7586 46.8359C51.263 46.9155 51.6081 47.3137 51.6081 47.8181C51.6081 48.3225 51.3161 48.7738 50.8117 48.8535C50.5462 48.9066 50.2807 48.9066 50.0153 48.9066C45.0244 48.88 40.0336 48.88 35.0162 48.88ZM16.0085 46.5439C15.3182 46.5439 14.7607 47.1014 14.7607 47.7916C14.7607 48.4818 15.3448 49.0393 16.035 49.0393C16.7252 49.0393 17.2827 48.4553 17.2827 47.7916C17.2827 47.0748 16.7252 46.5439 16.0085 46.5439Z" fill="#EDC400"/>
</svg>
