<svg width="85" height="86" viewBox="0 0 85 86" fill="none" xmlns="http://www.w3.org/2000/svg">
<rect y="0.736328" width="84.5267" height="84.5271" rx="23" fill="#E8EDF3"/>
<path d="M56.5957 16.7366C56.0988 16.7443 55.6254 16.949 55.2793 17.3056C54.9333 17.6622 54.7429 18.1415 54.75 18.6384V20.5134H52.875C52.6265 20.5099 52.3799 20.5558 52.1493 20.6485C51.9187 20.7411 51.7089 20.8787 51.5319 21.0531C51.355 21.2276 51.2145 21.4355 51.1186 21.6647C51.0227 21.8939 50.9733 22.1399 50.9733 22.3884C50.9733 22.6369 51.0227 22.8829 51.1186 23.1121C51.2145 23.3414 51.355 23.5493 51.5319 23.7237C51.7089 23.8982 51.9187 24.0357 52.1493 24.1284C52.3799 24.221 52.6265 24.2669 52.875 24.2634H54.75V26.1384C54.7465 26.3869 54.7924 26.6336 54.885 26.8641C54.9777 27.0947 55.1152 27.3045 55.2897 27.4815C55.4642 27.6584 55.672 27.7989 55.9013 27.8948C56.1305 27.9907 56.3765 28.0401 56.625 28.0401C56.8735 28.0401 57.1195 27.9907 57.3487 27.8948C57.578 27.7989 57.7858 27.6584 57.9603 27.4815C58.1348 27.3045 58.2723 27.0947 58.365 26.8641C58.4576 26.6336 58.5035 26.3869 58.5 26.1384V24.2634H60.375C60.6235 24.2669 60.8701 24.221 61.1007 24.1284C61.3313 24.0357 61.5411 23.8982 61.7181 23.7237C61.895 23.5493 62.0355 23.3414 62.1314 23.1121C62.2273 22.8829 62.2767 22.6369 62.2767 22.3884C62.2767 22.1399 62.2273 21.8939 62.1314 21.6647C62.0355 21.4355 61.895 21.2276 61.7181 21.0531C61.5411 20.8787 61.3313 20.7411 61.1007 20.6485C60.8701 20.5558 60.6235 20.5099 60.375 20.5134H58.5V18.6384C58.5036 18.3875 58.4568 18.1383 58.3623 17.9058C58.2679 17.6733 58.1277 17.4621 57.9501 17.2847C57.7725 17.1073 57.5611 16.9674 57.3285 16.8733C57.0958 16.7791 56.8467 16.7326 56.5957 16.7366ZM40.375 20.5134C26.9354 20.5134 16 31.4488 16 44.8884C16 58.328 26.9354 69.2634 40.375 69.2634C49.4663 69.2634 57.3924 64.2545 61.5737 56.8611C61.7253 56.5927 61.8083 56.2911 61.8156 55.983C61.8228 55.6749 61.754 55.3697 61.6152 55.0945C61.4764 54.8194 61.2719 54.5826 61.0198 54.4053C60.7677 54.228 60.4758 54.1155 60.1699 54.0779C49.3642 52.7443 41 43.5725 41 32.3884C41 29.1124 41.7394 26.022 43.0337 23.2234C43.1626 22.9439 43.2207 22.6371 43.2029 22.3299C43.1852 22.0227 43.0921 21.7246 42.9319 21.4619C42.7717 21.1992 42.5493 20.9799 42.2844 20.8234C42.0194 20.667 41.72 20.5781 41.4126 20.5647C41.1776 20.5545 40.8332 20.5134 40.375 20.5134ZM38.6831 24.4343C37.8459 26.9533 37.25 29.5845 37.25 32.3884C37.25 44.3823 45.5605 54.3705 56.7129 57.1443C52.9576 62.1567 47.132 65.5134 40.375 65.5134C28.9621 65.5134 19.75 56.3013 19.75 44.8884C19.75 34.0554 28.0796 25.3057 38.6831 24.4343ZM62.8457 32.9866C62.3488 32.9943 61.8754 33.199 61.5293 33.5556C61.1833 33.9122 60.9929 34.3915 61 34.8884V36.7634H59.125C58.8765 36.7599 58.6299 36.8058 58.3993 36.8985C58.1687 36.9911 57.9589 37.1287 57.7819 37.3031C57.605 37.4776 57.4645 37.6855 57.3686 37.9147C57.2727 38.1439 57.2233 38.3899 57.2233 38.6384C57.2233 38.8869 57.2727 39.1329 57.3686 39.3621C57.4645 39.5914 57.605 39.7993 57.7819 39.9737C57.9589 40.1482 58.1687 40.2857 58.3993 40.3784C58.6299 40.471 58.8765 40.5169 59.125 40.5134H61V42.3884C60.9965 42.6369 61.0424 42.8836 61.135 43.1141C61.2277 43.3447 61.3652 43.5545 61.5397 43.7315C61.7142 43.9084 61.922 44.0489 62.1513 44.1448C62.3805 44.2407 62.6265 44.2901 62.875 44.2901C63.1235 44.2901 63.3695 44.2407 63.5987 44.1448C63.828 44.0489 64.0358 43.9084 64.2103 43.7315C64.3848 43.5545 64.5223 43.3447 64.615 43.1141C64.7076 42.8836 64.7535 42.6369 64.75 42.3884V40.5134H66.625C66.8735 40.5169 67.1201 40.471 67.3507 40.3784C67.5813 40.2857 67.7911 40.1482 67.9681 39.9737C68.145 39.7993 68.2855 39.5914 68.3814 39.3621C68.4773 39.1329 68.5267 38.8869 68.5267 38.6384C68.5267 38.3899 68.4773 38.1439 68.3814 37.9147C68.2855 37.6855 68.145 37.4776 67.9681 37.3031C67.7911 37.1287 67.5813 36.9911 67.3507 36.8985C67.1201 36.8058 66.8735 36.7599 66.625 36.7634H64.75V34.8884C64.7536 34.6375 64.7068 34.3883 64.6123 34.1558C64.5179 33.9233 64.3777 33.7121 64.2001 33.5347C64.0225 33.3573 63.8111 33.2174 63.5785 33.1233C63.3458 33.0291 63.0967 32.9826 62.8457 32.9866Z" fill="#012C9C"/>
</svg>
