<svg width="59" height="59" viewBox="0 0 59 59" fill="none" xmlns="http://www.w3.org/2000/svg">
<path d="M29.9151 3.87939C30.3402 3.97942 30.7653 4.05443 31.1654 4.17946C34.3411 5.07967 36.6166 7.98034 36.7167 11.2811C36.7417 12.4814 36.7417 13.6817 36.7167 14.8819C36.6667 16.7574 35.9665 18.3827 34.6912 19.7581C34.5912 19.8831 34.4661 20.0081 34.3661 20.1331C34.3661 20.1331 34.3661 20.1582 34.3411 20.2582C34.8912 20.2582 35.4414 20.2582 35.9915 20.2582C40.6676 20.3082 44.5435 23.4089 45.5437 27.985C45.7188 28.7351 45.7688 29.5103 45.7688 30.2605C45.7938 32.1359 45.7688 34.0364 45.7688 35.9118C45.7688 36.0868 45.7688 36.2619 45.7688 36.4619C47.2191 36.637 48.5944 36.837 49.9947 37.012C52.0202 37.2621 53.4455 38.7875 53.5706 40.8129C53.6706 42.6884 52.3453 44.4138 50.4448 44.8639C50.2448 44.9139 50.0197 44.9389 49.7697 44.9639C49.8197 45.0639 49.8697 45.1639 49.9197 45.2389C51.4451 47.2644 51.7451 49.4399 50.6199 51.7154C49.4946 53.991 47.5942 55.1162 45.0686 55.1162C34.1911 55.1162 23.2886 55.1162 12.411 55.1162C9.83544 55.1162 7.91 53.966 6.78474 51.6654C5.65948 49.3649 6.00956 47.1644 7.58492 45.1639C7.63493 45.0889 7.68495 45.0139 7.75996 44.8889C7.63493 44.8389 7.53491 44.8139 7.45989 44.7888C5.60947 44.1387 4.4592 42.4133 4.68425 40.5879C4.93431 38.6124 6.38464 37.2121 8.38511 37.012C9.83544 36.862 11.2858 36.662 12.8111 36.4869C12.8111 36.2869 12.8111 36.1118 12.8111 35.9368C12.8111 34.0114 12.7861 32.1109 12.8361 30.1855C12.8611 29.2603 13.0112 28.335 13.1862 27.4348C13.3112 26.7597 13.8614 26.4596 14.4365 26.6096C14.9866 26.7597 15.2367 27.2598 15.1117 27.9099C14.8366 29.2603 14.6866 32.261 14.8616 33.6613C16.387 33.6613 17.9373 33.6613 19.5377 33.6613C19.5377 32.7861 19.5377 31.9359 19.5377 31.0607C19.5377 30.8356 19.5377 30.5856 19.6127 30.3605C19.7377 29.8854 20.1628 29.6353 20.6379 29.6854C21.1131 29.7354 21.4631 30.0854 21.5131 30.5606C21.5382 30.7356 21.5382 30.9356 21.5382 31.1107C21.5382 33.9363 21.5382 36.737 21.5382 39.5626C21.5382 41.8132 21.1381 42.7134 19.4127 44.2387C19.6127 44.3137 19.7627 44.3637 19.9378 44.4138C22.8635 45.339 25.8141 46.2892 28.7398 47.2144C28.9149 47.2644 29.1399 47.3394 29.315 47.2894C32.5157 46.2392 35.6914 45.1639 38.9172 44.0887C38.8422 44.0137 38.7921 43.9386 38.7171 43.8886C37.5669 42.9134 36.9667 41.6631 36.9667 40.1628C36.9417 37.0621 36.9667 33.9613 36.9667 30.8606C36.9667 30.7356 36.9667 30.6356 36.9917 30.5105C37.0918 29.9854 37.4918 29.6603 38.017 29.6603C38.5421 29.6854 38.9422 30.0354 38.9672 30.5856C38.9922 31.4108 38.9922 32.261 38.9922 33.0861C38.9922 33.2612 38.9922 33.4362 38.9922 33.6363C40.6176 33.6363 42.1929 33.6363 43.7433 33.6363C43.7683 33.6113 43.7933 33.5863 43.7933 33.5612C43.7933 31.7858 44.0184 29.9854 43.5933 28.235C42.7681 24.7342 39.7674 22.3337 36.1665 22.2336C35.1913 22.2086 34.2411 22.2336 33.2659 22.2336C32.9908 22.2336 32.8658 22.3087 32.7658 22.5837C32.1406 24.1591 30.7653 25.1093 29.1399 25.1093C27.5395 25.1093 26.1892 24.1591 25.5391 22.5587C25.4391 22.3337 25.339 22.2336 25.064 22.2336C23.5136 22.2836 21.9633 22.1086 20.4379 22.5337C19.9128 22.6837 19.3877 22.3087 19.2626 21.7835C19.1376 21.2584 19.4377 20.7083 20.0128 20.6083C20.938 20.4332 21.8882 20.3582 22.8385 20.2582C23.1385 20.2332 23.4636 20.2582 23.8637 20.2582C23.7637 20.1331 23.7387 20.0581 23.6887 20.0081C22.3383 18.6328 21.5131 16.9824 21.4631 15.057C21.4131 13.4316 21.3381 11.7812 21.5882 10.1809C22.0383 6.88009 24.6389 4.47953 27.9396 3.95441C28.0397 3.92941 28.1397 3.9044 28.2147 3.87939C28.7898 3.87939 29.34 3.87939 29.9151 3.87939ZM26.3393 48.5397C23.1135 47.5145 19.9128 46.5643 16.7871 45.464C15.1117 44.8639 13.4363 44.8639 11.7109 44.9889C9.6354 45.1389 8.01002 47.1394 8.16006 49.2149C8.31009 51.4404 10.0355 53.0658 12.286 53.0908C16.662 53.0908 21.013 53.0908 25.389 53.0908C25.4891 53.0908 25.5891 53.0908 25.7141 53.0658C24.9639 51.4404 25.139 49.965 26.3393 48.5397ZM32.5157 53.0908C36.8917 53.0908 41.1927 53.1408 45.5187 53.0658C47.3441 53.0407 48.9195 51.5404 49.2196 49.765C49.5446 47.8896 48.5944 46.0141 46.844 45.314C45.3687 44.7138 43.7683 44.7138 42.268 45.1139C39.8924 45.7391 37.5919 46.6143 35.2413 47.4145C34.1161 47.7895 33.0158 48.1646 31.8655 48.5397C33.0658 49.915 33.2659 51.4154 32.5157 53.0908ZM25.8141 19.2329C26.6393 18.0827 27.6896 17.4075 29.0649 17.4075C30.4652 17.3825 31.5405 18.0327 32.3657 19.1579C33.5659 18.2577 34.4161 17.1325 34.5912 15.6821C34.7662 14.2318 34.7662 12.7564 34.7162 11.3061C34.6412 8.35543 32.1656 5.95487 29.2149 5.87986C26.2142 5.80484 23.6386 8.03035 23.3886 10.981C23.2886 12.2563 23.2886 13.5566 23.3636 14.8319C23.4386 16.6573 24.2888 18.1077 25.8141 19.2329ZM14.8116 35.6867C14.8116 36.1618 14.8116 36.612 14.8116 37.0371C14.8116 37.9373 14.5365 38.2623 13.6613 38.3624C11.9609 38.5874 10.2605 38.7875 8.56015 38.9875C7.40988 39.1125 6.58469 39.9627 6.6347 41.013C6.68471 42.1132 7.50991 42.9134 8.71018 42.9134C11.3858 42.9384 14.0364 42.9384 16.712 42.9134C18.3874 42.8884 19.5127 41.7381 19.5377 40.0628C19.5377 38.7374 19.5377 37.3871 19.5377 36.0618C19.5377 35.9368 19.5127 35.8118 19.4877 35.6617C17.9123 35.6867 16.387 35.6867 14.8116 35.6867ZM38.9922 35.7117C38.9672 35.8118 38.9422 35.8868 38.9422 35.9618C38.9422 37.3871 38.9172 38.7875 38.9422 40.2128C38.9672 41.5881 39.7174 42.4633 41.0927 42.7884C41.4678 42.8884 41.8929 42.9384 42.268 42.9384C44.6935 42.9634 47.1441 42.9634 49.5696 42.9384C50.6949 42.9384 51.5201 42.1382 51.5701 41.063C51.6201 40.0127 50.8449 39.1375 49.7447 39.0125C48.1443 38.8125 46.5439 38.6124 44.9436 38.3874C44.0684 38.2623 43.7933 37.9623 43.7933 37.0871C43.7933 36.637 43.7933 36.1869 43.7933 35.7117C42.1679 35.7117 40.5926 35.7117 38.9922 35.7117ZM29.0899 53.0908C30.1151 53.0908 30.9403 52.2906 30.9653 51.2653C30.9903 50.2651 30.1651 49.3899 29.1649 49.3899C28.1147 49.3649 27.2645 50.1901 27.2645 51.2153C27.2395 52.2406 28.0647 53.0908 29.0899 53.0908ZM29.1399 23.1088C30.1401 23.1088 30.9903 22.2336 30.9653 21.2584C30.9403 20.2582 30.1151 19.408 29.1149 19.408C28.1147 19.408 27.2395 20.2832 27.2645 21.3084C27.2645 22.2836 28.1397 23.1088 29.1399 23.1088Z" fill="#1842B1"/>
<path d="M29.1392 37.4636C31.2647 37.4886 32.9901 39.214 32.9651 41.3395C32.9401 43.465 31.2147 45.1904 29.0892 45.1904C26.9887 45.1904 25.2383 43.44 25.2383 41.3395C25.2633 39.164 26.9887 37.4636 29.1392 37.4636ZM29.1142 39.4641C28.0889 39.4641 27.2637 40.2893 27.2637 41.2895C27.2637 42.2897 28.0889 43.1399 29.0892 43.1649C30.1144 43.1899 30.9646 42.3147 30.9646 41.2895C30.9646 40.2643 30.1394 39.4641 29.1142 39.4641Z" fill="#EDC400"/>
<path d="M29.1243 35.2383C26.9988 35.2383 25.2734 33.5129 25.2734 31.3874C25.2734 29.2619 27.0488 27.4865 29.1493 27.5115C31.2748 27.5365 33.0002 29.2869 32.9752 31.3874C32.9752 33.5379 31.2498 35.2383 29.1243 35.2383ZM29.1493 33.2378C30.1746 33.2378 30.9998 32.3876 30.9748 31.3874C30.9748 30.3622 30.1496 29.537 29.1243 29.537C28.0991 29.537 27.2489 30.3872 27.2739 31.4374C27.2989 32.4376 28.1241 33.2378 29.1493 33.2378Z" fill="#EDC400"/>
<path d="M17.3788 23.8079C17.3538 24.333 16.9037 24.7831 16.3786 24.7831C15.8284 24.7831 15.3783 24.308 15.4033 23.7579C15.4283 23.2078 15.8784 22.7827 16.4286 22.8077C16.9537 22.8077 17.4038 23.2828 17.3788 23.8079Z" fill="#1842B1"/>
<path d="M29.1246 7.68115C31.2501 7.68115 32.9755 9.40655 32.9755 11.532C32.9755 13.6575 31.2251 15.4079 29.0996 15.4079C26.9991 15.4079 25.2487 13.6575 25.2737 11.532C25.2737 9.38155 26.9991 7.68115 29.1246 7.68115ZM29.1246 13.3825C30.1498 13.3825 30.975 12.5323 30.975 11.532C30.975 10.5068 30.1498 9.68161 29.1246 9.68161C28.0744 9.68161 27.2492 10.5318 27.2492 11.557C27.2742 12.5823 28.1244 13.3825 29.1246 13.3825Z" fill="#EDC400"/>
</svg>
