<svg width="76" height="76" viewBox="0 0 76 76" fill="none" xmlns="http://www.w3.org/2000/svg">
<path d="M36.4962 71.979C35.0611 71.4939 34.5356 70.4631 34.5558 68.9673C34.6165 65.7333 34.576 62.5195 34.576 59.2854C34.576 59.0227 34.576 58.7599 34.576 58.3759C34.2526 58.4769 34.0101 58.5578 33.7877 58.6386C31.6654 59.4876 29.5228 60.3163 27.4005 61.1652C23.2973 62.7822 19.3356 60.0939 19.3356 55.6876C19.3356 52.7769 19.3356 49.8461 19.3356 46.9354C19.3356 46.6929 19.3356 46.4503 19.3356 46.1269C19.0728 46.1269 18.8505 46.1269 18.6484 46.1269C17.4154 46.1269 16.1824 46.1471 14.9494 46.1269C12.6249 46.0865 11.2707 44.0046 12.2207 41.862C13.393 39.2344 14.5249 36.6067 15.8186 34.0397C16.6473 32.362 17.0313 30.7046 16.9303 28.8248C16.7484 24.9844 17.375 21.2652 19.0728 17.8088C23.0143 9.80458 29.4016 5.21629 38.275 4.16522C38.4367 4.14501 38.6186 4.08437 38.7803 4.04395C39.9324 4.04395 41.0845 4.04395 42.2165 4.04395C43.4899 4.26629 44.7835 4.40778 46.0569 4.71097C55.2537 6.85352 62.308 14.4333 63.8239 23.812C64.3697 27.1471 64.208 30.462 63.359 33.7365C63.1165 34.6663 62.6718 35.0503 62.0654 34.9088C61.3984 34.7471 61.1963 34.2014 61.4388 33.2312C64.0261 23.2461 59.4377 12.9982 50.3218 8.34926C37.325 1.73969 21.3973 9.82479 19.1941 24.2365C18.8505 26.4195 19.0122 28.6833 18.8707 30.9067C18.8303 31.5939 18.709 32.3216 18.426 32.928C17.0313 36.1014 15.576 39.2344 14.1409 42.3876C13.6154 43.5599 13.959 44.1056 15.2526 44.1056C16.8494 44.1056 18.426 44.1056 20.0228 44.1056C21.0132 44.1056 21.3164 44.429 21.3366 45.4195C21.3366 48.8759 21.3164 52.312 21.3366 55.7684C21.3569 58.1737 23.1558 59.8312 25.4803 59.6088C25.9047 59.5684 26.3494 59.4269 26.7537 59.2652C29.4622 58.2141 32.1707 57.1429 34.8792 56.0716C36.0516 55.6067 36.5973 55.9907 36.5973 57.2642C36.5973 61.1854 36.5973 65.0865 36.5973 69.0078C36.5973 70.0386 36.7186 70.1195 37.6484 69.7556C43.2675 67.6535 48.8665 65.5514 54.4856 63.4493C55.6377 63.0248 55.9814 62.4993 55.9814 61.2461C55.9814 58.1131 55.9611 54.9599 56.0016 51.8269C56.0622 46.9152 57.3356 42.3269 59.5792 37.9812C59.9229 37.3344 60.4484 37.112 60.9739 37.3748C61.5197 37.6376 61.6814 38.2237 61.3377 38.911C58.9324 43.5599 57.8409 48.4918 57.9824 53.7269C58.0431 56.2535 58.0026 58.7599 58.0026 61.2865C58.0026 63.3482 57.1335 64.6014 55.2133 65.3088C49.4122 67.4918 43.6314 69.6546 37.8303 71.8375C37.7494 71.8578 37.6888 71.9184 37.6282 71.979C37.2037 71.979 36.8601 71.979 36.4962 71.979Z" fill="#1842B1"/>
<path d="M28.0156 27.9553C27.4294 27.0053 26.7624 26.1159 26.3177 25.1457C25.873 24.1755 25.5092 23.1244 25.3879 22.0734C25.1251 19.8297 26.2368 18.1319 28.3592 17.3031C29.956 16.6765 31.6134 16.5553 33.3113 16.7978C33.9985 16.8989 34.3421 16.7372 34.6251 16.05C35.2517 14.534 36.1411 13.1595 37.4347 12.0883C39.456 10.4106 41.8815 10.4308 43.8624 12.1691C45.156 13.301 46.0453 14.7159 46.6719 16.2925C46.9145 16.9191 47.2379 16.9797 47.8038 16.8989C49.3198 16.6968 50.8358 16.717 52.3315 17.1617C55.1007 18.0106 56.3538 20.2138 55.6464 23.0234C55.2623 24.5797 54.4741 25.934 53.5038 27.167C53.1804 27.5914 53.2613 27.8138 53.5038 28.2382C54.2315 29.451 55.04 30.6436 55.4847 31.9574C56.657 35.3127 54.9996 38.0819 51.5028 38.668C50.1889 38.8904 48.8347 38.8095 47.4804 38.7691C47.0358 38.7489 46.8741 38.8499 46.7124 39.234C46.1262 40.6287 45.3783 41.9223 44.307 43.0138C42.0432 45.3382 39.1932 45.3382 36.889 43.0542C35.7773 41.9425 35.0092 40.6084 34.423 39.1733C34.2411 38.7489 34.0592 38.6276 33.5943 38.6882C32.0581 38.8904 30.5219 38.9106 29.006 38.4861C26.0549 37.6574 24.7613 35.3329 25.59 32.3616C25.9943 30.9063 26.7624 29.6531 27.6517 28.4606C27.7932 28.2585 27.9145 28.0765 28.0156 27.9553ZM34.3624 27.7733C34.3422 27.7733 34.3219 27.7733 34.3219 27.7733C34.3624 28.7436 34.3826 29.7138 34.4836 30.684C34.5038 30.967 34.706 31.3106 34.9485 31.4521C36.6262 32.4627 38.3241 33.4531 40.0219 34.4031C40.2241 34.5244 40.6081 34.5042 40.8102 34.3829C42.6496 33.3521 44.4687 32.2808 46.2879 31.1893C46.49 31.068 46.6921 30.7042 46.6921 30.4616C46.7326 28.6021 46.7326 26.7627 46.6921 24.9031C46.6921 24.6404 46.49 24.2563 46.2677 24.1148C44.59 23.1042 42.8921 22.1138 41.1943 21.1638C40.9719 21.0425 40.5879 21.0425 40.3453 21.1638C39.0719 21.8106 37.7581 22.417 36.5656 23.2053C33.9783 24.9234 34.5039 23.9734 34.3624 27.0861C34.3624 27.3287 34.3624 27.551 34.3624 27.7733ZM44.9134 38.385C43.4581 37.8595 42.0432 37.3744 40.6485 36.8691C40.5272 36.8287 40.3858 36.7882 40.2645 36.8287C38.9304 37.2936 37.5964 37.7585 36.2219 38.2436C36.7677 39.5372 37.4145 40.7702 38.4655 41.7404C39.8602 43.0542 41.3358 43.0542 42.7304 41.7606C43.7209 40.8308 44.3677 39.6585 44.9134 38.385ZM44.9336 17.3234C44.5294 16.0297 43.4581 14.3925 42.5081 13.6042C41.2347 12.5734 39.9815 12.5531 38.7283 13.584C37.556 14.5542 36.8485 15.8276 36.2826 17.1819C37.7581 17.7074 39.173 18.2127 40.6081 18.6978C40.7496 18.7382 40.9517 18.718 41.1134 18.6574C42.3464 18.2329 43.6198 17.7882 44.9336 17.3234ZM33.473 18.7989C31.8762 18.5968 30.2794 18.5765 28.7634 19.3042C27.8134 19.7489 27.3081 20.517 27.3283 21.568C27.3688 23.4478 28.339 24.9234 29.3698 26.3382C30.4007 25.4489 31.3709 24.6202 32.3209 23.7712C32.4624 23.6499 32.6039 23.468 32.6241 23.3063C32.9273 21.8106 33.19 20.3351 33.473 18.7989ZM47.7028 36.768C49.239 37.0106 50.9368 36.8893 52.0081 36.4648C53.4836 35.8787 54.1911 34.7468 53.7666 33.2308C53.4836 32.1797 52.9379 31.2095 52.473 30.2191C52.3113 29.8553 52.0081 29.5723 51.7858 29.2691C50.7549 30.1787 49.7847 31.0074 48.8347 31.8361C48.7134 31.9372 48.5921 32.0989 48.5719 32.2606C48.2687 33.7361 47.9858 35.2319 47.7028 36.768ZM29.3698 29.451C28.5007 30.5627 27.773 31.735 27.4496 33.1095C27.0453 34.7467 27.6719 35.8989 29.2485 36.4244C30.623 36.8893 32.0379 36.8691 33.4528 36.6265C33.19 35.1914 32.9273 33.817 32.6645 32.4223C32.6443 32.2808 32.523 32.1393 32.4219 32.0585C31.4315 31.2095 30.4209 30.3606 29.3698 29.451ZM47.6826 18.9C47.8847 19.7691 48.1677 20.5574 48.2081 21.3457C48.2889 22.8212 48.9358 23.8319 50.1283 24.6404C50.7347 25.0446 51.2198 25.6106 51.7858 26.1361C52.7358 24.8627 53.5241 23.6095 53.807 22.0936C54.0092 20.901 53.6049 19.951 52.574 19.4053C51.0177 18.5968 49.3602 18.6978 47.6826 18.9ZM34.8475 21.9117C36.04 21.2244 37.0911 20.5978 38.2836 19.9106C37.273 19.6276 36.4241 19.3851 35.5145 19.1223C35.2719 20.0925 35.0698 20.9414 34.8475 21.9117ZM46.3485 33.6553C45.1762 34.3425 44.1049 34.9489 42.9124 35.6563C43.9028 35.9393 44.7517 36.1819 45.6613 36.4446C45.8836 35.4946 46.106 34.6255 46.3485 33.6553ZM37.8794 35.6159C36.8283 35.0095 35.9187 34.484 34.8879 33.8776C35.09 34.7265 35.2921 35.4946 35.4741 36.3233C36.3028 36.0808 37.0305 35.8585 37.8794 35.6159ZM45.6815 19.2436C44.8932 19.4861 44.1656 19.6882 43.2964 19.951C44.3475 20.5574 45.2368 21.0627 46.2879 21.6691C46.0655 20.7797 45.8836 20.0521 45.6815 19.2436ZM30.7039 27.8946C31.2698 28.4404 31.7751 28.9053 32.3411 29.4106C32.3411 28.3393 32.3411 27.3893 32.3411 26.3382C31.7549 26.9042 31.2698 27.3691 30.7039 27.8946ZM48.8549 26.1361C48.8549 27.2276 48.8549 28.1574 48.8549 29.2287C49.4411 28.6627 49.9464 28.1978 50.4719 27.6723C49.9262 27.167 49.4411 26.7021 48.8549 26.1361Z" fill="#EDC400"/>
<path d="M37.2834 27.8139C37.2632 25.9543 38.7185 24.4788 40.5781 24.4788C42.4175 24.4788 43.9132 25.9341 43.9334 27.7734C43.9536 29.5926 42.4579 31.1086 40.6387 31.1288C38.7994 31.1288 37.3036 29.6532 37.2834 27.8139ZM40.5579 26.4596C39.7898 26.4798 39.244 27.066 39.2643 27.8341C39.2845 28.5617 39.8706 29.1277 40.5781 29.1277C41.3058 29.1277 41.9323 28.5011 41.9121 27.7734C41.9323 27.0256 41.326 26.4394 40.5579 26.4596Z" fill="#EDC400"/>
</svg>
