<svg width="59" height="59" viewBox="0 0 59 59" fill="none" xmlns="http://www.w3.org/2000/svg">
<path d="M31.1705 3.90709C32.0957 4.03211 33.0459 4.13214 33.9711 4.30718C41.7479 5.80752 47.5743 10.0835 51.2001 17.0851C56.3263 26.9624 54.0758 38.7401 45.8489 46.2169C45.6488 46.4169 45.4238 46.5919 45.1987 46.767C44.7236 47.1171 44.1735 47.0921 43.7984 46.667C43.4233 46.2419 43.4733 45.6667 43.8984 45.2416C44.8486 44.2914 45.8739 43.4162 46.6991 42.416C56.8264 30.1882 51.5002 11.6589 36.1216 6.90778C23.9688 3.13191 11.1158 10.3336 8.14015 22.7114C6.03966 31.4134 8.51524 38.8902 15.1168 44.9666C15.1668 45.0166 15.2418 45.0666 15.3168 45.1416C15.8419 45.6167 15.942 46.2169 15.5419 46.667C15.1418 47.1171 14.5416 47.1671 14.0415 46.642C12.8162 45.4167 11.5159 44.2414 10.4657 42.8911C6.41476 37.6149 4.81439 31.6385 5.66458 25.037C6.91487 15.1347 14.0415 7.10783 23.7188 4.65726C25.0441 4.33218 26.4194 4.20716 27.7447 3.9821C27.8947 3.9571 28.0448 3.93209 28.1698 3.88208C29.17 3.90709 30.1702 3.90709 31.1705 3.90709Z" fill="#1842B1"/>
<path d="M33.746 44.5655C34.7212 44.6156 35.6715 44.5905 36.6217 44.7156C40.3225 45.1907 43.0232 47.7913 43.6483 51.4921C43.7733 52.2673 43.8234 53.0925 43.8484 53.8677C43.8734 54.7429 43.4983 55.118 42.6231 55.118C40.7726 55.118 38.9222 55.118 37.0718 55.118C30.3452 55.118 23.5937 55.118 16.8671 55.118C15.7669 55.118 15.4668 54.8179 15.4668 53.6927C15.4668 52.2423 15.6918 50.842 16.292 49.5167C17.6923 46.416 20.1679 44.8656 23.4936 44.6406C24.1688 44.5905 24.844 44.6406 25.5691 44.6406C25.6691 43.9654 25.7692 43.3153 25.8442 42.6651C25.8692 42.5401 25.7442 42.365 25.6191 42.265C23.9187 40.8397 23.0185 39.0393 23.1436 36.7887C23.1686 36.4387 23.1186 36.1386 22.7685 35.9135C22.5684 35.7635 22.4184 35.3634 22.4434 35.0883C22.5684 31.6626 25.119 28.7869 28.5198 28.1617C32.6958 27.4116 36.7717 30.7123 36.8717 34.9383C36.8717 35.2634 36.6967 35.6635 36.4717 35.8885C36.2466 36.1136 36.1716 36.2886 36.1966 36.5637C36.3216 38.8892 35.4964 40.7897 33.696 42.29C33.596 42.365 33.496 42.5401 33.521 42.6651C33.546 43.2902 33.671 43.9404 33.746 44.5655ZM22.4434 53.0925C27.2945 53.0925 32.0706 53.0925 36.8967 53.0925C36.8967 52.5424 36.8967 52.0173 36.8967 51.4671C36.9217 50.917 37.1968 50.5169 37.6469 50.4169C38.2971 50.2669 38.8472 50.692 38.8722 51.3671C38.8972 51.9422 38.8722 52.5174 38.8722 53.0925C39.8974 53.0925 40.8477 53.0925 41.8479 53.0925C41.8229 52.7924 41.7979 52.5424 41.7729 52.2923C41.4728 49.5917 39.8224 47.4912 37.2718 46.9161C36.0465 46.641 34.7713 46.716 33.496 46.641C33.3709 46.641 33.1959 46.766 33.0959 46.8911C31.1204 48.7415 28.1947 48.7415 26.2193 46.9161C26.0692 46.766 25.8192 46.666 25.6191 46.666C24.944 46.641 24.2438 46.641 23.5687 46.666C20.0929 46.766 17.4422 49.6167 17.5173 53.1425C18.4675 53.1425 19.4427 53.1425 20.4429 53.1425C20.4429 52.6174 20.4429 52.0923 20.4429 51.5922C20.4429 50.892 20.818 50.4669 21.4182 50.4669C22.0183 50.4669 22.4184 50.892 22.4434 51.5922C22.4434 52.0423 22.4434 52.5424 22.4434 53.0925ZM25.144 36.2136C25.144 36.5887 25.119 36.9638 25.144 37.3139C25.2941 39.2893 26.3193 40.6396 28.1197 41.3898C29.7451 42.065 31.6205 41.5648 32.8708 40.2645C33.9961 39.0893 34.2461 37.6639 34.1461 36.1136C34.1461 36.0136 33.9711 35.8635 33.846 35.8135C33.2959 35.5385 32.7208 35.3134 32.1957 35.0133C31.9206 34.8633 31.6955 34.8883 31.4205 34.9633C30.2452 35.3134 29.0699 35.6635 27.8697 35.9135C26.9694 36.0886 26.0692 36.1136 25.144 36.2136ZM24.6189 34.1881C26.6944 34.1381 28.7199 33.9881 30.5953 33.1379C31.5455 32.7128 32.3957 32.7378 33.2709 33.3379C33.671 33.613 34.1461 33.763 34.6462 34.0131C34.0961 31.5875 31.9956 30.0372 29.495 30.1122C27.1195 30.1372 25.044 31.8626 24.6189 34.1881ZM27.7696 43.4153C27.6946 44.0154 27.5946 44.5405 27.5446 45.0907C27.5446 45.2407 27.6446 45.4407 27.7446 45.5408C28.7949 46.491 30.5203 46.491 31.5955 45.5408C31.6955 45.4657 31.8206 45.3157 31.8206 45.2407C31.7706 44.6406 31.6705 44.0404 31.5705 43.4153C30.2702 43.7654 29.0449 43.7403 27.7696 43.4153Z" fill="#1842B1"/>
<path d="M26.8649 17.8338C27.54 16.7585 28.1902 15.7333 28.8403 14.708C29.3904 13.8328 30.2156 13.8078 30.7658 14.708C31.4159 15.7333 32.0661 16.7585 32.7162 17.8338C33.0663 17.5837 33.3914 17.2586 33.7664 17.0586C34.6917 16.5335 35.6419 16.0083 36.6171 15.5332C37.1922 15.2332 37.9174 15.5582 38.0174 16.1584C38.2925 17.8088 38.5926 19.4842 38.1425 21.1595C37.7924 22.4848 37.1672 23.6851 36.292 24.7104C35.4168 25.7356 34.2916 26.3357 32.9413 26.3607C30.8408 26.4108 28.7403 26.4108 26.6398 26.3607C25.0894 26.3357 23.8892 25.5856 22.964 24.3353C21.3886 22.2348 20.8885 19.8842 21.3636 17.3086C21.4136 17.0086 21.4386 16.7085 21.4886 16.4084C21.6386 15.5332 22.2888 15.2082 23.114 15.5833C24.4393 16.1834 25.7396 16.8085 26.8649 17.8338ZM29.7655 16.9336C29.3654 17.5837 28.9653 18.1588 28.6653 18.784C27.9651 20.2343 27.7651 21.7347 28.3152 23.285C28.5652 23.9852 29.1154 24.3353 29.7905 24.3353C30.4657 24.3353 31.0408 23.9352 31.2409 23.235C31.3909 22.7599 31.4909 22.2598 31.5159 21.7847C31.666 19.9593 30.8908 18.4339 29.7655 16.9336ZM23.364 17.9088C23.039 20.0843 23.5641 21.9597 25.0144 23.5851C25.4145 24.0102 25.9396 24.2603 26.5648 24.3103C26.0897 22.985 25.9396 21.6597 26.1397 20.2843C26.1647 20.1343 26.0897 19.9593 25.9897 19.8342C25.2895 19.009 24.3893 18.4089 23.364 17.9088ZM36.217 17.7838C35.4669 18.3089 34.7917 18.784 34.1415 19.2841C33.6164 19.6842 33.2913 20.1593 33.5164 20.8595C33.5914 21.0595 33.5664 21.3346 33.5414 21.5596C33.4164 22.4598 33.2913 23.3851 33.1663 24.3103C33.8415 24.2102 34.4166 23.8852 34.8667 23.31C36.092 21.7097 36.5421 19.9343 36.217 17.7838Z" fill="#EDC400"/>
<path d="M26.2683 11.0086C26.2683 11.5087 25.9933 11.8338 25.3681 12.0088C23.8928 12.4089 22.4675 12.934 21.1922 13.7592C15.4158 17.41 12.5902 22.6362 13.0403 29.4628C13.3654 34.539 15.7659 38.5649 19.8168 41.6406C20.2169 41.9407 20.517 42.2658 20.392 42.8159C20.2919 43.241 20.0169 43.5661 19.5668 43.5661C19.2667 43.5661 18.8916 43.4661 18.6666 43.266C14.9657 40.5654 12.5652 36.9896 11.4649 32.5385C9.01435 22.7363 15.0658 12.6089 24.843 10.0833C25.6682 9.8833 26.2933 10.2834 26.2683 11.0086Z" fill="#1842B1"/>
<path d="M48.4006 28.0632C48.1755 34.4146 45.6749 39.4908 40.6738 43.2667C40.2487 43.5918 39.8236 43.7168 39.3485 43.4167C38.7233 43.0166 38.7233 42.2164 39.3735 41.7413C40.6238 40.8161 41.724 39.7659 42.6993 38.5906C49.6259 30.1387 46.3751 17.0856 36.2728 12.8347C35.4976 12.5096 34.6974 12.2845 33.9222 12.0345C33.2221 11.8094 32.897 11.3343 33.072 10.7342C33.2221 10.159 33.7472 9.90898 34.4223 10.084C41.699 11.9594 47.2253 18.2109 48.1755 25.6876C48.3006 26.5128 48.3256 27.338 48.4006 28.0632Z" fill="#1842B1"/>
<path d="M29.6451 11.4341C29.095 11.4341 28.6699 11.009 28.6699 10.4589C28.6699 9.90874 29.095 9.48364 29.6451 9.48364C30.1953 9.48364 30.6454 9.90874 30.6704 10.4339C30.6704 10.984 30.2203 11.4341 29.6451 11.4341Z" fill="#1842B1"/>
</svg>
