<svg width="76" height="76" viewBox="0 0 76 76" fill="none" xmlns="http://www.w3.org/2000/svg">
<path d="M19.2983 71.9769C18.793 71.5726 18.2473 71.2088 17.7824 70.7439C13.9217 66.9035 10.0611 63.0226 6.22068 59.162C4.94727 57.8886 4.94727 56.8577 6.22068 55.5843C8.12068 53.6843 10.0207 51.7641 11.9409 49.8641C13.1334 48.6716 13.8207 48.5705 15.2962 49.4194C17.0749 47.7013 18.8941 45.9833 20.6526 44.2247C23.6643 41.2333 27.242 39.7981 31.4866 39.8386C36.8026 39.8992 42.1186 39.8386 47.4345 39.8588C49.5973 39.8588 51.1739 41.0918 51.659 43.0726C52.2452 45.4982 50.5069 47.9843 48.0005 48.1258C45.8175 48.2269 43.6345 48.1662 41.4515 48.1865C41.1888 48.1865 40.926 48.1865 40.6632 48.2471C40.1579 48.3482 39.9154 48.712 39.9356 49.2173C39.9558 49.7226 40.1983 50.046 40.7037 50.1471C40.9058 50.1875 41.1079 50.1875 41.2898 50.1875C44.1398 50.1875 46.9898 50.1875 49.8196 50.2077C50.3249 50.2077 50.6888 50.046 51.0526 49.7024C55.0143 46.0237 58.9962 42.3652 62.9781 38.6864C65.1005 36.746 68.2537 36.746 70.2952 38.7067C71.2856 39.6567 71.3867 40.9907 70.4771 42.0216C65.6058 47.6205 60.7345 53.2194 55.843 58.7982C54.6707 60.1524 53.1345 60.7184 51.376 60.6982C45.1707 60.6982 38.9856 60.6982 32.7803 60.6982C31.0015 60.6982 29.4451 61.2035 28.0909 62.4163C28.6569 63.6088 28.2324 64.5184 27.3632 65.3673C25.5239 67.146 23.7451 68.9854 21.926 70.7843C21.4611 71.229 20.9154 71.5929 20.3898 71.9971C20.0058 71.9769 19.6622 71.9769 19.2983 71.9769ZM26.6154 60.9205C26.7164 60.8801 26.7973 60.8599 26.8377 60.8194C28.7175 59.2226 30.9005 58.6567 33.326 58.6769C39.3292 58.7375 45.3324 58.6971 51.3356 58.6971C52.5483 58.6971 53.5792 58.3535 54.4079 57.4237C59.2186 51.9056 64.009 46.4077 68.8196 40.9099C69.1835 40.4854 69.1026 40.2428 68.7186 39.9396C67.4249 38.8684 65.5856 38.9694 64.2515 40.1822C60.2494 43.8609 56.2675 47.5396 52.2856 51.2386C51.6186 51.8652 50.8707 52.1684 49.9611 52.1684C47.7579 52.1482 45.5547 52.1684 43.3515 52.1684C42.4217 52.1684 41.492 52.1886 40.5824 52.1279C39.1877 52.0269 38.0962 50.895 37.9547 49.5003C37.7728 47.6609 39.0866 46.2258 41.0069 46.2056C43.1696 46.1854 45.3324 46.2056 47.4952 46.1854C48.8696 46.1652 49.7994 45.2556 49.7792 43.9822C49.759 42.7492 48.8292 41.8801 47.4749 41.8801C41.8962 41.8801 36.3175 41.8599 30.7388 41.9003C27.5451 41.9205 24.7962 43.0928 22.492 45.2758C20.6526 47.0343 18.8334 48.8131 17.0143 50.5716C16.893 50.6928 16.792 50.8343 16.61 51.0567C16.9537 51.3599 17.3579 51.5822 17.56 51.9258C17.7217 52.1886 17.8026 52.6333 17.6813 52.896C17.56 53.1588 17.176 53.4418 16.893 53.462C16.5696 53.4822 16.1856 53.2599 15.9228 53.0375C15.1951 52.3503 14.5079 51.6226 13.8813 50.9758C11.6579 53.2194 9.49515 55.362 7.43344 57.4237C11.5568 61.5673 15.7207 65.7514 19.8441 69.8748C21.9462 67.7726 24.109 65.6099 26.3728 63.346C26.2111 63.245 25.9888 63.1237 25.8271 62.962C23.7047 60.8397 21.5824 58.7173 19.46 56.595C19.2983 56.4333 19.1366 56.2918 19.0154 56.1099C18.7526 55.6854 18.7728 55.2609 19.1164 54.8971C19.4803 54.5131 19.9249 54.4726 20.3696 54.7758C20.5515 54.8971 20.693 55.0588 20.8547 55.2205C22.7951 57.0801 24.7154 59.0003 26.6154 60.9205Z" fill="#1842B1"/>
<path d="M42.9782 4.06416C44.575 4.85246 45.6463 6.20671 46.6165 7.6216C46.9399 8.0865 46.7984 8.5716 46.3739 8.91522C45.9697 9.23863 45.3835 9.17799 45.0197 8.73331C44.4739 8.10671 43.9484 7.43969 43.4027 6.81309C43.1601 6.53012 42.8569 6.30777 42.5739 6.06522C36.7931 10.5727 36.8739 19.0822 41.5431 23.529C41.5431 23.2259 41.5431 22.9833 41.5431 22.761C41.5431 19.729 41.5431 16.6971 41.5431 13.6854C41.5431 13.4227 41.5633 13.1397 41.6442 12.8971C41.8059 12.412 42.2303 12.129 42.675 12.2908C42.9984 12.412 43.2814 12.7759 43.5037 13.0993C43.6048 13.2408 43.5442 13.5237 43.5442 13.7461C43.5442 16.7376 43.5442 19.7088 43.5442 22.7003C43.5442 22.9429 43.5442 23.1854 43.5442 23.5493C43.7463 23.3876 43.8878 23.3067 43.9888 23.1854C46.5558 20.2142 47.4654 16.7982 46.7782 12.9578C46.758 12.8567 46.7378 12.7354 46.7175 12.6344C46.5963 11.8663 46.8793 11.3812 47.5058 11.2599C48.0718 11.1588 48.5367 11.5429 48.6782 12.2503C49.6888 17.7684 48.1729 22.4173 43.8271 26.0556C43.6856 26.1769 43.5846 26.4599 43.5846 26.662C43.5644 27.6929 43.5846 28.7439 43.5644 29.7748C43.5644 30.4822 43.1601 30.9471 42.5739 30.9269C41.9878 30.9269 41.5835 30.462 41.5835 29.7546C41.5633 28.7237 41.6037 27.6727 41.5633 26.6418C41.5633 26.4195 41.4218 26.1365 41.2601 25.995C38.4303 23.6907 36.7527 20.7397 36.2878 17.162C35.6612 12.2099 37.2782 8.02586 41.0378 4.73118C41.341 4.46841 41.725 4.26629 42.0686 4.04395C42.3516 4.06416 42.675 4.06416 42.9782 4.06416Z" fill="#EDC400"/>
<path d="M65.6772 15.4009C66.2633 15.4615 66.8697 15.4615 67.4559 15.5828C68.3048 15.7445 68.8304 16.3913 68.9516 17.2402C69.9218 24.3753 64.6059 31.4498 57.4708 32.4402C56.2378 32.6019 54.9644 32.5009 53.7314 32.5413C53.5495 32.5413 53.3069 32.6424 53.1857 32.7636C52.4378 33.4913 51.7101 34.219 50.9825 34.9466C50.4367 35.4722 49.8506 35.5328 49.4261 35.0881C48.9814 34.6434 49.042 34.0977 49.5878 33.5317C50.2952 32.8041 51.0229 32.0966 51.7303 31.369C51.8718 31.2073 52.0133 30.9445 51.9931 30.7626C51.2857 25.5477 54.075 19.7062 59.3506 16.9977C61.3112 15.9466 63.4335 15.4211 65.6772 15.4009ZM55.3282 30.5605C62.0995 30.7828 67.9612 24.2339 66.9101 17.5434C59.3304 16.5934 53.5293 23.3243 53.974 29.2466C54.2165 28.9636 54.358 28.7413 54.5399 28.5594C56.6825 26.3966 58.8452 24.2339 60.9878 22.0913C61.5537 21.5253 62.0995 21.4647 62.5442 21.8892C63.0091 22.3339 62.9484 22.92 62.3825 23.5062C61.2101 24.6785 60.0378 25.8509 58.8654 27.0232C57.7335 28.1551 56.5814 29.3073 55.3282 30.5605Z" fill="#EDC400"/>
<path d="M19.6772 15.4831C27.3581 15.4629 33.523 21.7693 33.4421 29.4501C33.4421 29.5916 33.4624 29.7331 33.4219 29.8544C33.0783 30.8448 33.5634 31.4916 34.2911 32.098C34.8368 32.5427 35.3017 33.0884 35.7868 33.5937C36.2921 34.1193 36.3123 34.7054 35.8677 35.1097C35.4634 35.4937 34.8772 35.4735 34.3921 35.0086C33.6241 34.2608 32.8964 33.5129 32.1283 32.765C31.9868 32.6235 31.7645 32.5023 31.5826 32.5225C26.9134 33.0278 22.9517 31.4916 19.8187 28.0554C17.09 25.064 15.9379 21.4863 16.3219 17.4437C16.4432 16.1906 17.1304 15.564 18.4038 15.4831C18.8485 15.4629 19.273 15.4831 19.6772 15.4831ZM18.3836 17.5246C17.3528 24.8416 23.8411 30.9054 29.9049 30.5416C29.723 30.3395 29.5613 30.1778 29.3996 29.9959C27.2772 27.8735 25.1549 25.7512 23.0326 23.6086C22.8709 23.4469 22.7092 23.3054 22.5879 23.1235C22.3251 22.6991 22.3655 22.2746 22.7092 21.9108C23.073 21.5267 23.5177 21.4863 23.9624 21.7895C24.1847 21.931 24.3666 22.1331 24.5485 22.3352C26.6506 24.4374 28.7528 26.5597 30.8751 28.6618C31.0368 28.8235 31.1985 28.965 31.4411 29.1671C31.5826 22.3757 25.0336 16.5746 18.3836 17.5246Z" fill="#EDC400"/>
</svg>
