<svg width="83" height="83" viewBox="0 0 83 83" fill="none" xmlns="http://www.w3.org/2000/svg">
<rect width="82.0534" height="82.0538" rx="23" fill="#FFFDEB"/>
<path d="M40.9974 16.0002C40.5006 16.008 40.0271 16.2126 39.681 16.5692C39.335 16.9258 39.1446 17.4052 39.1517 17.9021V21.6521C39.1482 21.9005 39.1941 22.1472 39.2867 22.3778C39.3794 22.6084 39.5169 22.8182 39.6914 22.9952C39.8659 23.1721 40.0737 23.3126 40.303 23.4085C40.5322 23.5044 40.7782 23.5538 41.0267 23.5538C41.2752 23.5538 41.5212 23.5044 41.7504 23.4085C41.9797 23.3126 42.1875 23.1721 42.362 22.9952C42.5365 22.8182 42.674 22.6084 42.7667 22.3778C42.8593 22.1472 42.9052 21.9005 42.9017 21.6521V17.9021C42.9053 17.6511 42.8585 17.402 42.764 17.1695C42.6696 16.9369 42.5294 16.7257 42.3518 16.5484C42.1742 16.371 41.9628 16.2311 41.7302 16.137C41.4975 16.0428 41.2484 15.9963 40.9974 16.0002ZM24.6546 22.7825C24.2815 22.7825 23.9168 22.894 23.6074 23.1025C23.2979 23.3109 23.0577 23.607 22.9174 23.9528C22.7771 24.2986 22.7432 24.6784 22.82 25.0435C22.8968 25.4087 23.0808 25.7427 23.3485 26.0027L25.9998 28.654C26.3518 29.006 26.8291 29.2037 27.3268 29.2037C27.8244 29.2037 28.3017 29.006 28.6537 28.654C29.0056 28.3021 29.2033 27.8248 29.2033 27.3271C29.2033 26.8294 29.0056 26.3521 28.6537 26.0002L26.0023 23.3489C25.827 23.169 25.6174 23.0262 25.3859 22.9289C25.1544 22.8316 24.9057 22.7818 24.6546 22.7825ZM57.3402 22.7825C56.8532 22.7966 56.3909 22.9998 56.0511 23.3489L53.3998 26.0002C53.0478 26.3521 52.8501 26.8294 52.8501 27.3271C52.8501 27.8248 53.0478 28.3021 53.3998 28.654C53.7517 29.006 54.229 29.2037 54.7267 29.2037C55.2243 29.2037 55.7016 29.006 56.0536 28.654L58.7049 26.0027C58.9765 25.7392 59.162 25.3998 59.2371 25.029C59.3122 24.6582 59.2734 24.2733 59.1258 23.925C58.9782 23.5766 58.7286 23.2811 58.4099 23.0772C58.0912 22.8733 57.7183 22.7705 57.3402 22.7825ZM41.0267 27.2771C33.455 27.2771 27.2767 33.4554 27.2767 41.0271C27.2767 48.5988 33.455 54.7771 41.0267 54.7771C48.5984 54.7771 54.7767 48.5988 54.7767 41.0271C54.7767 33.4554 48.5984 27.2771 41.0267 27.2771ZM41.0267 31.0271C46.5718 31.0271 51.0267 35.482 51.0267 41.0271C51.0267 46.5721 46.5718 51.0271 41.0267 51.0271C35.4816 51.0271 31.0267 46.5721 31.0267 41.0271C31.0267 35.482 35.4816 31.0271 41.0267 31.0271ZM17.9017 39.1521C17.6532 39.1486 17.4066 39.1945 17.176 39.2871C16.9454 39.3798 16.7356 39.5173 16.5586 39.6918C16.3817 39.8662 16.2412 40.0741 16.1453 40.3034C16.0494 40.5326 16 40.7786 16 41.0271C16 41.2756 16.0494 41.5216 16.1453 41.7508C16.2412 41.98 16.3817 42.1879 16.5586 42.3624C16.7356 42.5368 16.9454 42.6744 17.176 42.767C17.4066 42.8597 17.6532 42.9056 17.9017 42.9021H21.6517C21.9002 42.9056 22.1468 42.8597 22.3774 42.767C22.608 42.6744 22.8178 42.5368 22.9948 42.3624C23.1717 42.1879 23.3122 41.98 23.4081 41.7508C23.504 41.5216 23.5534 41.2756 23.5534 41.0271C23.5534 40.7786 23.504 40.5326 23.4081 40.3034C23.3122 40.0741 23.1717 39.8662 22.9948 39.6918C22.8178 39.5173 22.608 39.3798 22.3774 39.2871C22.1468 39.1945 21.9002 39.1486 21.6517 39.1521H17.9017ZM60.4017 39.1521C60.1532 39.1486 59.9066 39.1945 59.676 39.2871C59.4454 39.3798 59.2356 39.5173 59.0586 39.6918C58.8817 39.8662 58.7412 40.0741 58.6453 40.3034C58.5494 40.5326 58.5 40.7786 58.5 41.0271C58.5 41.2756 58.5494 41.5216 58.6453 41.7508C58.7412 41.98 58.8817 42.1879 59.0586 42.3624C59.2356 42.5368 59.4454 42.6744 59.676 42.767C59.9066 42.8597 60.1532 42.9056 60.4017 42.9021H64.1517C64.4002 42.9056 64.6468 42.8597 64.8774 42.767C65.108 42.6744 65.3178 42.5368 65.4948 42.3624C65.6717 42.1879 65.8122 41.98 65.9081 41.7508C66.004 41.5216 66.0534 41.2756 66.0534 41.0271C66.0534 40.7786 66.004 40.5326 65.9081 40.3034C65.8122 40.0741 65.6717 39.8662 65.4948 39.6918C65.3178 39.5173 65.108 39.3798 64.8774 39.2871C64.6468 39.1945 64.4002 39.1486 64.1517 39.1521H60.4017ZM27.2889 52.8337C26.802 52.8479 26.3397 53.0511 25.9998 53.4001L23.3485 56.0515C23.1742 56.2257 23.0359 56.4326 22.9415 56.6603C22.8472 56.888 22.7986 57.132 22.7986 57.3785C22.7986 57.6249 22.8471 57.869 22.9414 58.0967C23.0357 58.3244 23.1739 58.5313 23.3482 58.7056C23.5225 58.8799 23.7294 59.0181 23.9571 59.1124C24.1848 59.2067 24.4288 59.2552 24.6753 59.2552C24.9218 59.2552 25.1658 59.2066 25.3935 59.1123C25.6212 59.0179 25.8281 58.8796 26.0023 58.7053L28.6537 56.0539C28.9252 55.7905 29.1107 55.4511 29.1859 55.0803C29.261 54.7095 29.2222 54.3246 29.0745 53.9763C28.9269 53.6279 28.6774 53.3324 28.3587 53.1285C28.04 52.9245 27.6671 52.8218 27.2889 52.8337ZM54.7059 52.8337C54.3328 52.8338 53.9681 52.9452 53.6586 53.1537C53.3492 53.3622 53.1089 53.6583 52.9687 54.0041C52.8284 54.3499 52.7945 54.7297 52.8713 55.0948C52.9481 55.46 53.1321 55.7939 53.3998 56.0539L56.0511 58.7053C56.2254 58.8796 56.4322 59.0178 56.6599 59.1121C56.8876 59.2064 57.1316 59.2549 57.378 59.2549C57.6245 59.2549 57.8685 59.2064 58.0961 59.1121C58.3238 59.0178 58.5307 58.8796 58.7049 58.7053C58.8792 58.5311 59.0174 58.3242 59.1117 58.0965C59.206 57.8689 59.2545 57.6248 59.2545 57.3784C59.2545 57.132 59.206 56.888 59.1117 56.6603C59.0174 56.4326 58.8792 56.2257 58.7049 56.0515L56.0536 53.4001C55.8783 53.2203 55.6687 53.0775 55.4372 52.9802C55.2057 52.8829 54.957 52.8331 54.7059 52.8337ZM40.9974 58.5002C40.5006 58.508 40.0271 58.7126 39.681 59.0692C39.335 59.4258 39.1446 59.9052 39.1517 60.4021V64.1521C39.1482 64.4005 39.1941 64.6472 39.2867 64.8778C39.3794 65.1084 39.5169 65.3182 39.6914 65.4951C39.8659 65.6721 40.0737 65.8126 40.303 65.9085C40.5322 66.0044 40.7782 66.0538 41.0267 66.0538C41.2752 66.0538 41.5212 66.0044 41.7504 65.9085C41.9797 65.8126 42.1875 65.6721 42.362 65.4951C42.5365 65.3182 42.674 65.1084 42.7667 64.8778C42.8593 64.6472 42.9052 64.4005 42.9017 64.1521V60.4021C42.9053 60.1511 42.8585 59.902 42.764 59.6695C42.6696 59.4369 42.5294 59.2257 42.3518 59.0484C42.1742 58.871 41.9628 58.7311 41.7302 58.637C41.4975 58.5428 41.2484 58.4963 40.9974 58.5002Z" fill="#FFBD00"/>
</svg>
