<svg width="148" height="44" viewBox="0 0 148 44" fill="none" xmlns="http://www.w3.org/2000/svg">
<path d="M31.5669 11.6698H20.8047C20.491 11.6698 20.1888 11.7917 19.9671 12.01L11.9337 19.924C11.8157 20.0374 11.6257 20.0346 11.5106 19.9184C11.4559 19.8645 11.4271 19.7908 11.4242 19.7171V9.337C11.4242 9.0167 11.1623 8.75592 10.837 8.75309H10.8313H0.293637C0.129572 8.75309 -0.00283229 8.61987 4.60566e-05 8.4583C4.60566e-05 8.38176 0.0317079 8.30807 0.0863964 8.25421L8.11986 0.340149C8.34149 0.121889 8.64372 0 8.95746 0H19.7196C20.0448 0 20.3097 0.257946 20.3125 0.57825V0.583921V10.2667C20.3183 10.5899 20.586 10.845 20.9141 10.8421C21.0695 10.8393 21.2163 10.7798 21.3257 10.6721L28.8526 3.26824C29.0742 3.04998 29.3764 2.92809 29.6902 2.92809H40.4523C40.7776 2.92809 41.0424 3.18604 41.0453 3.50634V3.51201V14.1047C41.0481 14.4165 40.9244 14.717 40.6998 14.9381L32.8535 22.6537C32.4102 23.0902 32.1598 23.6855 32.1598 24.3034V34.522C32.1598 34.8309 32.036 35.1257 31.8144 35.3468L23.7809 43.2609C23.6629 43.3743 23.473 43.3714 23.3578 43.2552C23.3031 43.2014 23.2743 43.1277 23.2715 43.054V32.671C23.2715 32.3507 23.0095 32.0899 22.6843 32.0871H22.6814H12.1409C11.9768 32.0871 11.8444 31.9539 11.8473 31.7923C11.8473 31.7158 11.879 31.6421 11.9337 31.5882L19.9671 23.6742C20.1888 23.4559 20.491 23.334 20.8047 23.334H30.9739C31.6273 23.334 32.1598 22.8124 32.1598 22.1662V12.2481C32.1598 11.9278 31.8979 11.667 31.5726 11.6642H31.5669V11.6698Z" fill="#010F35"/>
<path d="M66.2436 32.0898H59.4133C59.0851 32.0898 58.8203 31.829 58.8203 31.5059V3.50335C58.8203 3.18021 59.0851 2.91943 59.4133 2.91943H66.2436C66.5717 2.91943 66.8365 3.18021 66.8365 3.50335V31.5059C66.8365 31.8262 66.5717 32.0898 66.2436 32.0898Z" fill="#010F35"/>
<path d="M82.0359 3.50335V24.856C82.0359 25.1792 82.3007 25.4399 82.6289 25.4399H93.0312C93.3593 25.4399 93.6241 25.7007 93.6241 26.0238V31.5059C93.6241 31.829 93.3593 32.0898 93.0312 32.0898H74.5695C74.2414 32.0898 73.9766 31.829 73.9766 31.5059V3.50335C73.9766 3.18021 74.2414 2.91943 74.5695 2.91943H81.4401C81.7682 2.91943 82.0331 3.17738 82.0359 3.50335Z" fill="#010F35"/>
<path d="M103.284 32.0899H95.7769C95.6129 32.0899 95.4805 31.9595 95.4805 31.8007C95.4805 31.7696 95.4862 31.7355 95.4949 31.7072L105.16 3.32203C105.241 3.08393 105.468 2.92236 105.722 2.92236H114.276C114.532 2.92236 114.757 3.08393 114.837 3.32203L124.416 31.71C124.468 31.8631 124.382 32.0275 124.227 32.0785C124.198 32.087 124.166 32.0927 124.134 32.0927H116.538C116.277 32.0927 116.043 31.9226 115.969 31.676L114.693 27.4072C114.619 27.1578 114.388 26.9877 114.124 26.9877H105.69C105.428 26.9877 105.195 27.1578 105.12 27.4072L103.845 31.676C103.776 31.9198 103.546 32.0899 103.284 32.0899ZM110.739 13.858C110.477 12.9255 110.085 11.2899 109.956 10.6834H109.91C109.737 11.3268 109.435 12.6137 109.084 13.858L107.123 20.678H112.656L110.739 13.858Z" fill="#010F35"/>
<path d="M124.182 2.91943H146.78C147.108 2.91943 147.373 3.18021 147.373 3.50335V8.98537C147.373 9.30851 147.108 9.56929 146.78 9.56929H140.122C139.794 9.56929 139.529 9.83007 139.529 10.1532V31.5059C139.529 31.829 139.264 32.0898 138.936 32.0898H132.106C131.781 32.0954 131.513 31.8375 131.507 31.5172V31.5059V10.1532C131.507 9.83007 131.242 9.56929 130.914 9.56929H124.179C123.851 9.56929 123.586 9.30851 123.586 8.98537V3.50335C123.589 3.18021 123.854 2.91943 124.182 2.91943Z" fill="#010F35"/>
</svg>
