<svg width="186" height="36" viewBox="0 0 186 36" fill="none" xmlns="http://www.w3.org/2000/svg">
<path d="M123.303 27.8494C121.968 27.8494 120.824 26.7478 120.824 25.3583C120.824 24.0043 121.968 22.9026 123.303 22.9026C124.704 22.9026 125.815 24.0043 125.815 25.3583C125.815 26.7478 124.7 27.8494 123.303 27.8494ZM135.959 27.9454C131.888 27.9454 127.948 24.8892 127.948 19.722C127.948 14.4909 131.986 11.4347 136.053 11.4347C138.882 11.4347 141.394 12.945 142.826 14.8356L140.538 16.7902C139.301 15.3083 137.803 14.4909 136.056 14.4909C133.48 14.4909 131.131 16.1612 131.131 19.722C131.131 23.1549 133.325 24.8892 135.963 24.8892C138.063 24.8892 139.744 23.7555 140.542 22.1776L143.118 23.752C141.523 26.4635 138.886 27.9454 135.959 27.9454ZM166.131 14.1462C167.022 12.412 168.769 11.2819 170.869 11.2783C172.839 11.2783 174.431 12.2556 175.29 13.8299C176.434 12.2556 178.054 11.2783 180.057 11.2783C183.203 11.2783 185.491 13.7695 185.491 17.4547V27.4727H182.088V17.6431C182.088 15.5961 180.944 14.3345 179.259 14.3345C177.574 14.3345 176.332 15.7205 176.332 17.6431V27.4727H173.182V17.6431C173.182 15.7205 171.941 14.3345 170.194 14.3345C168.412 14.3345 167.206 15.7205 167.206 17.6431V27.4727H163.93V11.5306H167.015V14.3345L166.131 14.1462ZM152.685 24.7932C149.697 24.7932 147.406 22.5224 147.406 19.4697C147.406 16.4135 149.693 14.3345 152.685 14.3345C155.482 14.3345 157.611 16.4135 157.611 19.4697C157.611 22.5259 155.482 24.7932 152.685 24.7932ZM152.588 27.8494C157.452 27.8494 160.79 24.3525 160.79 19.5656C160.79 14.7432 157.452 11.2783 152.588 11.2783C147.849 11.2783 144.226 14.7432 144.226 19.5656C144.226 24.3525 147.853 27.8494 152.588 27.8494Z" fill="#010F35"/>
<path d="M110.459 27.8495C113.256 27.8495 116.089 26.2752 117.583 23.6597L115.132 22.0853C114.245 23.6596 112.715 24.7968 110.459 24.7968C107.98 24.7968 105.721 22.9702 105.721 19.5657C105.721 15.9729 107.976 14.3346 110.459 14.3346C112.303 14.3346 113.797 15.0916 115.132 16.6659L117.294 14.7433C115.894 12.7603 113.447 11.2784 110.618 11.2784C106.486 11.2784 102.415 14.3346 102.415 19.5657C102.415 24.7933 106.389 27.8495 110.459 27.8495ZM97.8036 8.72682C99.2326 8.72682 100.315 7.65715 100.315 6.27119C100.315 4.85324 99.2326 3.78001 97.8036 3.78001C96.4034 3.78001 95.3245 4.84969 95.3245 6.27119C95.3245 7.65715 96.4034 8.72682 97.8036 8.72682ZM96.1797 11.783V27.4728H99.3301V11.783H96.1797ZM88.551 3.53125V27.4728H91.9828V3.53125H88.551ZM77.8044 27.8495C82.3838 27.8495 85.563 24.3526 85.563 19.5657C85.563 15.0312 82.1926 11.2784 77.8044 11.2784C75.4191 11.2784 73.6725 12.2557 72.6838 13.83V3.53125H69.187V27.4728H72.6838V25.4898C73.6689 26.9682 75.4191 27.8495 77.8044 27.8495ZM77.5158 24.6369C74.3654 24.6369 72.2363 22.526 72.2363 19.5657C72.2363 16.6659 74.3654 14.4945 77.5158 14.4945C80.3449 14.4945 82.3802 16.5095 82.3802 19.5657C82.3802 22.526 80.3485 24.6369 77.5158 24.6369ZM57.7403 27.6931C59.4256 27.6931 60.8257 26.9682 61.8722 25.4898V27.4728H65.1489V11.783H61.7784V20.8557C61.7784 23.155 60.3783 24.6369 58.0904 24.6369C56.1525 24.6369 55.1024 22.9667 55.1024 20.8557V11.783H51.667V21.3888C51.667 25.0456 53.9585 27.6931 57.7403 27.6931ZM40.7616 24.6369C37.5175 24.6369 35.5796 22.526 35.5796 19.5657C35.5796 16.6659 37.5175 14.4945 40.7616 14.4945C43.847 14.4945 45.7524 16.6694 45.7524 19.5657C45.7524 22.526 43.847 24.6369 40.7616 24.6369ZM35.7384 11.783H32.4004V33.0806H35.7384V25.4898C37.1674 26.9717 38.9176 27.8531 41.2091 27.8531C45.756 27.8531 49.0327 24.1039 49.0327 19.5693C49.0327 14.7469 45.756 11.282 41.2091 11.282C38.9176 11.282 37.171 12.2592 35.7384 13.8336V11.783Z" fill="#010F35"/>
<path d="M21.8447 11.2785C21.8447 17.0427 17.1065 21.7372 11.2894 21.7372C5.47224 21.7372 0.730469 17.0462 0.730469 11.2785C0.730469 5.51432 5.46863 0.819824 11.2858 0.819824C17.1029 0.819824 21.8447 5.51432 21.8447 11.2785Z" fill="#010F35"/>
<path d="M11.2858 30.4329C11.2858 33.3327 8.90046 35.6924 6.00632 35.6924C3.11579 35.6924 0.730469 33.3327 0.730469 30.4329C0.730469 27.597 3.11579 25.2373 6.00993 25.2373C8.90406 25.2373 11.2858 27.597 11.2858 30.4329Z" fill="#010F35"/>
</svg>
