<svg width="204" height="39" viewBox="0 0 204 39" fill="none" xmlns="http://www.w3.org/2000/svg">
<rect width="53.5262" height="37.9525" transform="matrix(1 0 0 -1 0.847656 38.3677)" fill="#010F35"/>
<path d="M4.63162 7.8891C8.72744 14.7798 19.4776 15.5048 20.6468 26.2158C20.6937 26.6564 21.0365 27.0082 21.484 27.0793C27.6765 28.0317 33.7101 30.5442 38.9535 34.6808L38.9571 34.6843L39.0762 34.7234L39.2061 34.6737L39.2133 34.4142C35.583 30.6579 31.148 27.655 26.168 25.6791L24.6524 25.0786C23.8729 24.7694 23.3316 24.0089 23.3533 23.1311C23.4363 19.9327 31.1227 20.5831 31.9022 19.0443L32.0357 18.7778C30.4515 17.4451 28.5714 16.443 26.5037 15.885C26.4856 15.9632 26.4351 16.3363 26.8537 17.0116C27.312 17.7472 26.3557 18.9164 24.9555 17.6548L24.8365 17.5517C14.4544 8.1805 6.6705 13.0385 2.55664 2.52295L4.63162 7.8891Z" fill="white"/>
<path d="M26.1367 18.2125V20.7641C27.259 20.4478 28.5329 20.2488 29.6082 20.0249V18.6034C29.6082 18.6034 27.905 18.6852 26.8621 17.0078C27.1688 17.5124 26.826 18.2125 26.1367 18.2125Z" fill="white"/>
<path d="M22.7695 27.2997C28.5109 28.3871 34.0754 30.8285 38.9543 34.6808C31.1488 28.1135 26.389 27.1113 24.1986 27.1113C23.3361 27.1113 22.8706 27.2677 22.7695 27.2997Z" fill="white"/>
<path d="M2.55664 2.52295L4.63522 7.8891C8.72744 14.7798 19.4776 15.5048 20.6504 26.2122C19.4668 12.5445 13.3718 14.5879 6.82207 8.36885C5.12961 7.1819 3.70058 5.44768 2.55664 2.52295Z" fill="white"/>
<path d="M74.3289 23.9541C78.367 23.9541 81.7664 21.9853 81.7664 19.288C81.7664 16.5872 78.367 14.622 74.3289 14.622C70.2909 14.622 66.8915 16.5908 66.8915 19.288C66.8915 21.9853 70.2909 23.9541 74.3289 23.9541ZM74.116 27.8241C66.7183 27.8241 62.0234 24.0394 62.0234 19.288C62.0234 14.455 66.9962 10.752 74.3289 10.752C81.6617 10.752 86.6344 14.4763 86.6344 19.0997C86.6344 21.1715 85.6998 22.8702 83.9135 24.2917H88.2692L87.2299 26.0508C86.5695 27.1596 85.7648 27.8277 84.0182 27.8277H74.116V27.8241Z" fill="#010F35"/>
<path d="M96.7712 21.484H104.465L100.896 15.2258C100.813 15.0801 100.748 15.0375 100.622 15.0375C100.495 15.0375 100.43 15.0801 100.347 15.2258L96.7712 21.484ZM106.439 24.9346H94.7936L93.1373 27.8238H88.3125L96.3887 14.0531C97.0274 12.9656 97.9404 12.127 99.7664 12.127H101.574C103.404 12.127 104.317 12.9621 104.952 14.0531L113.028 27.8238H108.099L106.439 24.9346Z" fill="#010F35"/>
<path d="M136.019 12.1276V27.8245H131.707L119.041 17.4227V27.8245H114.725V12.1276H117.424C118.806 12.1276 119.506 12.483 120.293 13.1511L131.707 22.5081V12.124H136.019V12.1276Z" fill="#010F35"/>
<path d="M151.364 15.6665V27.8238H147.048V15.6665H138.207V12.127H160.202V15.6665H151.364Z" fill="#010F35"/>
<path d="M164.896 21.484H172.59L169.021 15.2258C168.935 15.0801 168.873 15.0375 168.747 15.0375C168.621 15.0375 168.556 15.0801 168.469 15.2258L164.896 21.484ZM174.568 24.9346H162.923L161.266 27.8238H156.441L164.518 14.0531C165.156 12.9656 166.069 12.127 167.895 12.127H169.703C171.533 12.127 172.446 12.9621 173.081 14.0531L181.157 27.8238H176.228L174.568 24.9346Z" fill="#010F35"/>
<path d="M182.639 26.6941L182.238 26.5697L183.321 23.1581C186.421 24.1425 189.737 24.537 192.732 24.537C197.644 24.537 198.853 23.9719 198.853 23.3643C198.853 23.1155 198.683 22.9236 198.301 22.7992C197.81 22.6322 196.449 22.3585 192.433 21.7118C187.991 21.001 185.995 20.6421 184.53 19.974C183.065 19.3059 182.17 18.2398 182.17 16.669C182.17 15.4749 182.765 14.5119 183.722 13.7585C185.421 12.4614 188.33 11.939 191.498 11.939C195.58 11.939 199.001 12.273 202.804 13.1934L203.143 13.2965L202.23 16.6228C197.979 15.7237 195.623 15.4714 192.393 15.4287C190.12 15.4074 188.546 15.5744 187.716 15.8232C187.247 15.9725 187.056 16.1821 187.056 16.4309C187.056 16.6619 187.204 16.8716 187.673 17.0173C188.182 17.1843 189.012 17.3762 193.368 18.0656C198.088 18.819 199.639 19.1317 200.935 19.6364C202.7 20.3045 203.76 21.5412 203.76 23.0906C203.76 25.0381 202.23 26.4809 199.574 27.2769C197.94 27.7602 195.749 28.0303 193.285 28.0303C189.42 28.0339 185.295 27.5292 182.639 26.6941Z" fill="#010F35"/>
</svg>
