<svg width="185" height="40" viewBox="0 0 185 40" fill="none" xmlns="http://www.w3.org/2000/svg">
<path fill-rule="evenodd" clip-rule="evenodd" d="M73.9413 0.937012V31.1652H66.9333V27.75C65.2409 30.2341 62.6065 31.652 59.1783 31.652C52.8668 31.652 47.8472 26.0478 47.8472 19.1713C47.8472 12.2948 52.8668 6.74027 59.1783 6.74027C62.6065 6.74027 65.2409 8.15467 66.9333 10.6423V0.937012H73.9413ZM66.9333 19.1713C66.9333 15.8592 64.2485 13.2721 60.8203 13.2721C57.4426 13.2721 54.7072 15.9054 54.7072 19.1713C54.7072 22.4869 57.4426 25.0705 60.8203 25.0705C64.2485 25.0705 66.9333 22.5367 66.9333 19.1713ZM46.1114 19.221C46.1114 26.3392 40.5938 31.652 33.4378 31.652C26.2313 31.652 20.7642 26.3392 20.7642 19.221C20.7642 12.1029 26.2313 6.74027 33.4378 6.74027C40.5938 6.74027 46.1114 12.1029 46.1114 19.221ZM27.6207 19.221C27.6207 22.5367 30.1034 25.0705 33.4342 25.0705C36.7145 25.0705 39.2477 22.5367 39.2477 19.221C39.2477 15.8059 36.7145 13.3218 33.4342 13.3218C30.107 13.3218 27.6207 15.8059 27.6207 19.221ZM101.966 31.1652V7.22714H94.9581V10.6387C93.2692 8.15466 90.6349 6.73672 87.2067 6.73672C80.8952 6.73672 75.8719 12.2912 75.8719 19.1677C75.8719 26.0442 80.8952 31.6485 87.2067 31.6485C90.6349 31.6485 93.2692 30.2341 94.9581 27.7465V31.1616H101.966V31.1652ZM88.845 13.2721C92.2769 13.2721 94.9581 15.8592 94.9581 19.1713C94.9581 22.5367 92.2769 25.0705 88.845 25.0705C85.4673 25.0705 82.732 22.4869 82.732 19.1713C82.732 15.9054 85.4673 13.2721 88.845 13.2721ZM122.333 7.22714L116.917 21.2182L111.497 7.22714H103.944L113.337 29.2141L108.812 39.1078H116.318L129.886 7.22358H122.333V7.22714ZM157.5 31.1652V7.22714H150.492V31.1652H157.5ZM176.034 18.7804L184.882 31.1652H176.434L171.808 24.6796L167.185 31.1652H158.835L167.633 18.8301L159.383 7.22714H167.835L171.858 12.8811L176.034 18.7804ZM148.326 7.22358V13.7554H142.307V21.3142C142.307 23.8977 144.097 25.0172 146.533 25.0172C147.128 25.0172 147.774 24.971 148.323 24.8253V31.1652C147.381 31.4104 145.938 31.5561 144.945 31.5561C139.182 31.5561 135.303 27.8495 135.303 21.4137V13.7589H129.496L132.279 7.22714H135.303V0.99743H142.311V7.22358H148.326ZM18.9491 13.7767V7.24135H12.9335V1.01164H5.92546V7.24135H2.8978L0.119141 13.7767H5.92546V21.4314C5.92546 27.8673 9.80115 31.5738 15.5678 31.5738C16.5602 31.5738 18.0036 31.4281 18.9455 31.1829V24.8466C18.397 24.9959 17.751 25.042 17.1556 25.042C14.7197 25.042 12.9299 23.9191 12.9299 21.3391V13.7802H18.9491V13.7767ZM178 14.2387C180.335 14.2387 182.273 12.3374 182.273 10.0453C182.273 7.80284 180.335 5.90159 178 5.90159C175.666 5.90159 173.728 7.80284 173.728 10.0453C173.728 12.3339 175.662 14.2387 178 14.2387Z" fill="#010F35"/>
</svg>
