<svg width="186" height="37" viewBox="0 0 186 37" fill="none" xmlns="http://www.w3.org/2000/svg">
<path d="M133.411 6.12402H129.846V25.826H133.411V21.0604V6.12402ZM165.131 20.6553C164.781 22.0839 163.475 23.0221 161.8 23.0221C159.314 23.0221 157.946 21.1386 157.946 18.6296C157.946 16.1207 159.27 14.2372 161.75 14.2372C163.424 14.2372 164.853 15.2678 165.109 16.6857L168.491 15.8364C167.783 13.0147 165.008 11.213 161.659 11.213C157.105 11.213 154.24 14.5215 154.24 18.6403C154.24 22.7484 157.105 26.0676 161.659 26.0676C165.07 26.0676 167.722 24.2161 168.534 21.5331L165.131 20.6553ZM181.583 21.0284C181.204 22.3931 180.02 23.1429 178.191 23.1429C175.932 23.1429 174.42 21.6645 174.163 19.3475H184.942C184.975 19.0525 185.004 18.6403 185.004 18.1428C185.004 14.7241 182.803 11.213 177.902 11.213C173.113 11.213 170.739 14.7845 170.739 18.5799C170.739 22.3433 173.398 26.057 178.187 26.057C181.446 26.057 183.993 24.44 184.845 21.8564L181.583 21.0284ZM177.895 13.8356C180.009 13.8356 181.287 15.2038 181.428 17.0234H174.246C174.625 14.8662 175.899 13.8356 177.895 13.8356ZM112.347 31.1388H115.88V24.2588C116.692 25.3711 118.255 26.0605 120.023 26.0605C124.306 26.0605 127.06 23.0363 127.06 18.6332C127.06 14.2408 124.479 11.2059 120.279 11.2059C118.338 11.2059 116.743 12.0055 115.869 13.228L115.191 11.4262H112.333V31.1388H112.347ZM119.622 23.0221C117.219 23.0221 115.646 21.2807 115.646 18.6296C115.646 15.9786 117.208 14.2372 119.622 14.2372C121.964 14.2372 123.538 15.9786 123.538 18.6296C123.527 21.2843 121.964 23.0221 119.622 23.0221ZM143.533 26.0499C145.363 26.0499 147.037 25.2823 147.737 24.138L148.416 25.8153H151.313V11.4369H148.426L147.748 13.068C146.904 11.9557 145.312 11.2165 143.493 11.2165C139.149 11.2165 136.597 14.2408 136.597 18.6439C136.576 23.0221 139.123 26.0499 143.533 26.0499ZM144.024 23.0221C141.682 23.0221 140.109 21.2807 140.109 18.6296C140.109 15.9786 141.671 14.2372 144.024 14.2372C146.427 14.2372 148.001 15.9786 148.001 18.6296C147.99 21.2843 146.431 23.0221 144.024 23.0221ZM50.6934 24.6817L53.7535 16.142L56.7631 24.6426C57.4199 26.5154 60.1011 26.5332 60.8012 24.671L65.7018 11.4262H62.1689L58.7768 21.4549L55.8177 12.6736C55.1609 10.719 52.3642 10.719 51.7074 12.6736L48.7483 21.4549L45.3778 11.4262H41.8125L46.7744 24.703C47.4348 26.5261 50.0474 26.5047 50.6934 24.6817ZM74.0594 26.0285C78.4872 26.0285 81.6845 22.8906 81.6845 18.6012C81.6845 14.3118 78.4981 11.1739 74.0594 11.1739C69.5991 11.1739 66.4055 14.3118 66.4055 18.6012C66.4163 22.9012 69.5991 26.0285 74.0594 26.0285ZM74.0594 23.015C71.6236 23.015 69.9997 21.2132 69.9997 18.6225C69.9997 16.0212 71.6236 14.2301 74.0594 14.2301C76.4628 14.2301 78.0867 16.0319 78.0867 18.6225C78.0867 21.2132 76.4736 23.015 74.0594 23.015ZM93.4379 14.6139V11.2734C93.0878 11.2236 92.7378 11.2023 92.3589 11.2023C90.4174 11.2023 88.8224 12.0019 87.9491 13.2351L87.2707 11.4333H84.4126V25.8224H87.9491V18.6261C87.9491 17.0767 88.3821 15.7831 89.4395 15.0226C90.3561 14.3829 91.6624 14.1697 93.4379 14.6139ZM99.6159 6.12402H96.0505V25.826H99.6159V21.0604V6.12402ZM109.561 11.4369H105.44L101.575 16.5472C100.63 17.8016 100.652 19.511 101.626 20.7264L105.675 25.8153H110.063L103.961 18.5088L109.561 11.4369Z" fill="#010F35"/>
<path d="M18.5217 0.651367C27.3809 0.651367 34.5621 7.72331 34.5621 16.4478C34.5621 20.0619 33.328 23.3811 31.2638 26.0429C30.7803 26.6079 29.907 27.4786 28.5321 27.4786C26.5798 27.4786 25.9519 26.1033 25.3673 24.6462L22.4407 17.5636L19.5213 24.6462C19.0269 25.851 18.482 27.4892 16.3456 27.4892C14.2093 27.4892 13.6752 25.8581 13.17 24.6462L8.25866 12.7341H12.3978L16.342 22.5389L19.2795 15.3958C19.7414 14.2622 20.2971 12.5529 22.4226 12.5529C24.5517 12.5529 25.1038 14.2622 25.5658 15.3958L28.763 23.1359C30.0477 21.224 30.7983 18.9247 30.7983 16.4584C30.7983 9.77027 25.2915 4.34726 18.5 4.34726C14.6243 4.34726 10.9796 5.83272 8.24422 8.53712C5.50165 11.2415 3.98962 14.8201 3.98962 18.6475C3.98962 22.4713 5.49804 26.0535 8.24422 28.7579C10.9904 31.4623 14.6351 32.9478 18.5108 32.9478C20.4018 32.9478 22.1989 32.5924 23.8553 31.9456L25.2338 35.375C23.1588 36.1852 20.8853 36.6295 18.5253 36.6295C16.0606 36.6295 13.6644 36.1533 11.4054 35.2115C9.22578 34.3018 7.2735 33.0046 5.59908 31.3557C3.92467 29.7068 2.61112 27.7842 1.6837 25.6377C0.723794 23.4166 0.240234 21.0605 0.240234 18.6333C0.240234 16.2061 0.723794 13.8571 1.68009 11.6324C2.6039 9.48597 3.92106 7.5634 5.59547 5.91446C7.26989 4.26552 9.22217 2.96841 11.4018 2.05865C13.6608 1.12757 16.0533 0.651367 18.5217 0.651367Z" fill="#010F35"/>
</svg>
